<?xml version="1.0" encoding="utf-8"?>
<!-- Generator: Adobe Illustrator 21.0.1, SVG Export Plug-In . SVG Version: 6.00 Build 0)  -->
<svg version="1.1" id="Layer_1" xmlns="http://www.w3.org/2000/svg" xmlns:xlink="http://www.w3.org/1999/xlink" x="0px" y="0px"
	 viewBox="0 0 267 570" style="enable-background:new 0 0 267 570;" xml:space="preserve">
<style type="text/css">
	.st0{fill:none;stroke:url(#SVGID_1_);stroke-miterlimit:10;}
	.st1{opacity:0.49;}
	.st2{fill:none;stroke:url(#SVGID_2_);stroke-miterlimit:10;}
	.st3{fill:url(#SVGID_3_);}
	.st4{fill:none;stroke:url(#SVGID_4_);stroke-miterlimit:10;}
	.st5{fill:none;stroke:url(#SVGID_5_);stroke-miterlimit:10;}
	.st6{fill:url(#SVGID_6_);}
	.st7{fill:url(#SVGID_7_);}
	.st8{opacity:0.49;fill:none;stroke:#000000;stroke-miterlimit:10;enable-background:new    ;}
	.st9{fill:#8C8C8C;}
	.st10{fill:none;stroke:url(#SVGID_8_);stroke-miterlimit:10;}
	.st11{fill:none;stroke:url(#SVGID_9_);stroke-miterlimit:10;}
	.st12{fill:url(#SVGID_10_);}
	.st13{fill:url(#SVGID_11_);}
	.st14{fill:none;stroke:url(#SVGID_12_);stroke-miterlimit:10;}
	.st15{fill:none;stroke:url(#SVGID_13_);stroke-miterlimit:10;}
	.st16{fill:url(#SVGID_14_);}
	.st17{fill:url(#SVGID_15_);}
	.st18{fill:url(#SVGID_16_);}
	.st19{fill:url(#SVGID_17_);}
	.st20{fill:url(#SVGID_18_);}
	.st21{fill:url(#SVGID_19_);}
	.st22{fill:url(#SVGID_20_);}
	.st23{fill:url(#SVGID_21_);}
	.st24{fill:url(#SVGID_22_);}
	.st25{fill:url(#SVGID_23_);}
	.st26{fill:url(#SVGID_24_);}
	.st27{fill:url(#SVGID_25_);}
	.st28{fill:url(#SVGID_26_);}
	.st29{opacity:0.49;fill:none;stroke:url(#SVGID_27_);stroke-miterlimit:10;enable-background:new    ;}
	.st30{opacity:0.49;fill:none;stroke:url(#SVGID_28_);stroke-miterlimit:10;enable-background:new    ;}
	.st31{opacity:0.49;fill:none;stroke:url(#SVGID_29_);stroke-miterlimit:10;enable-background:new    ;}
	.st32{opacity:0.49;fill:none;stroke:url(#SVGID_30_);stroke-miterlimit:10;enable-background:new    ;}
	.st33{opacity:0.49;fill:none;stroke:url(#SVGID_31_);stroke-miterlimit:10;enable-background:new    ;}
	.st34{opacity:0.49;fill:none;stroke:url(#SVGID_32_);stroke-miterlimit:10;enable-background:new    ;}
	.st35{opacity:0.49;fill:none;stroke:url(#SVGID_33_);stroke-miterlimit:10;enable-background:new    ;}
	.st36{opacity:0.49;fill:none;stroke:url(#SVGID_34_);stroke-miterlimit:10;enable-background:new    ;}
	.st37{opacity:0.49;fill:none;stroke:url(#SVGID_35_);stroke-miterlimit:10;enable-background:new    ;}
	.st38{fill:url(#SVGID_36_);}
	.st39{fill:url(#SVGID_37_);}
	.st40{fill:url(#SVGID_38_);}
	.st41{fill:url(#SVGID_39_);}
	.st42{opacity:0.22;enable-background:new    ;}
	.st43{fill:url(#SVGID_40_);}
	.st44{fill:url(#SVGID_41_);}
	.st45{fill:url(#SVGID_42_);}
</style>
<g id="Layer_14">
	<g>
		<g>
			
				<linearGradient id="SVGID_1_" gradientUnits="userSpaceOnUse" x1="-65.8212" y1="1027.6" x2="39.3212" y2="1027.6" gradientTransform="matrix(1 0 0 -1 0 1100)">
				<stop  offset="0" style="stop-color:#63E2FF"/>
				<stop  offset="1" style="stop-color:#B066FE"/>
			</linearGradient>
			<path class="st0" d="M38.7,61.9c1,5.4-4.5,10.9-5.1,16.1C33,83.3,37,90,34.8,94.8s-9.9,6.1-13.5,10s-4.3,11.7-8.9,14.3
				c-4.5,2.5-11.5-0.9-16.9,0.1s-10.5,7-15.6,6.4c-5.3-0.6-8.9-7.6-13.7-9.8c-4.8-2.2-12.5-0.4-16.3-4s-2.6-11.3-5.3-16
				c-2.5-4.5-8.7-3.5-9.8-8.9c-1-5.4,4.5-10.9,5.1-16.1c0.6-5.3-3.4-12-1.2-16.8s8.9-10.1,12.5-14s4.3-11.7,8.9-14.3
				c4.5-2.5,11.5,0.9,16.9-0.1s10.5-7,15.6-6.4c5.3,0.6,8.9,7.6,13.7,9.8s12.5,0.4,16.3,4s2.6,11.3,5.3,16
				C30.4,53.5,37.6,56.5,38.7,61.9z"/>
		</g>
		<g class="st1">
			
				<linearGradient id="SVGID_2_" gradientUnits="userSpaceOnUse" x1="-58.6852" y1="1029.1" x2="45.5852" y2="1029.1" gradientTransform="matrix(1 0 0 -1 0 1100)">
				<stop  offset="0" style="stop-color:#63E2FF"/>
				<stop  offset="1" style="stop-color:#B066FE"/>
			</linearGradient>
			<path class="st2" d="M44.8,55.3c1.5,5.2-3.4,11.3-3.5,16.5c-0.1,5.3,4.6,11.6,2.8,16.6c-1.7,5-9.3,7-12.5,11.3
				c-3.1,4.2-3,12-7.5,15.1c-4.2,3-11.5,0.2-16.8,1.7s-9.8,8-14.9,7.9c-5.3-0.1-9.6-6.7-14.6-8.4s-12.4,0.8-16.7-2.4
				c-4.2-3.1-3.8-11-6.9-15.4c-3-4.2-10.5-6.5-12.1-11.7c-1.5-5.2,3.4-11.3,3.5-16.5c0.1-5.3-4.6-11.6-2.8-16.6
				c1.7-5,9.3-7,12.5-11.3c3.1-4.2,3-12,7.5-15.1c4.2-3,11.5-0.2,16.8-1.7s9.8-8,14.9-7.9c5.5,0,9.8,6.6,14.7,8.3
				c5,1.7,12.4-0.8,16.7,2.4c4.2,3.1,3.8,11,6.9,15.4C35.7,47.8,43.2,50,44.8,55.3z"/>
		</g>
		
			<linearGradient id="SVGID_3_" gradientUnits="userSpaceOnUse" x1="-71.9212" y1="1026.3" x2="32.2212" y2="1026.3" gradientTransform="matrix(1 0 0 -1 0 1100)">
			<stop  offset="0" style="stop-color:#63E2FF"/>
			<stop  offset="1" style="stop-color:#B066FE"/>
		</linearGradient>
		<path class="st3" d="M32.1,63.2c1,5.4-4.5,10.9-5.1,16.1c-0.6,5.3,3.4,12,1.2,16.8s-9.9,6.1-13.5,10s-4.3,11.7-8.9,14.3
			c-4.5,2.5-11.5-0.9-16.9,0.1s-10.5,7-15.6,6.4c-5.3-0.6-8.9-7.6-13.7-9.8s-12.5-0.4-16.3-4s-2.6-11.3-5.3-16
			c-2.5-4.5-8.7-3.5-9.8-8.9c-1-5.4,4.5-10.9,5.1-16.1c0.6-5.3-3.4-12-1.2-16.8c2.2-4.8,8.9-10.1,12.5-14s4.3-11.7,8.9-14.3
			c4.5-2.5,11.5,0.9,16.9-0.1s10.5-7,15.6-6.4C-8.6,21-5.1,28-0.3,30.2s12.5,0.4,16.3,4s2.6,11.3,5.3,16
			C23.8,54.8,31,57.9,32.1,63.2z"/>
	</g>
	<g>
		<g>
			
				<linearGradient id="SVGID_4_" gradientUnits="userSpaceOnUse" x1="224.3898" y1="1083.9" x2="336.0102" y2="1083.9" gradientTransform="matrix(1 0 0 -1 0 1100)">
				<stop  offset="0" style="stop-color:#63E2FF"/>
				<stop  offset="1" style="stop-color:#B066FE"/>
			</linearGradient>
			<path class="st4" d="M232.4,3.8c-1.4,5.5-7.8,10.4-7.5,15.7c0.3,5.5,7.3,9.6,9.3,14.7s-0.3,12.9,3.2,17.1s11.5,3.4,16.2,6.4
				c4.5,2.9,7.2,10.5,12.7,11.9s11.5-4,16.9-4.3c5.5-0.3,12.2,4.2,17.3,2.2c5.1-2,6.9-9.9,11.1-13.4s12.3-3.7,15.3-8.3
				c2.9-4.5-0.3-11.9,1.1-17.4s7.8-10.4,7.5-15.7c-0.3-5.5-7.3-9.6-9.3-14.7s0.3-12.9-3.2-17.1s-11.5-3.4-16.2-6.4
				c-4.5-2.9-7.2-10.5-12.7-11.9s-11.5,4-16.9,4.3c-5.5,0.3-12.2-4.2-17.3-2.2c-5.1,2-6.9,9.9-11.1,13.4s-12.3,3.7-15.3,8.3
				C230.6-9.1,233.9-1.7,232.4,3.8z"/>
		</g>
		<g class="st1">
			
				<linearGradient id="SVGID_5_" gradientUnits="userSpaceOnUse" x1="216.8955" y1="1085.8" x2="328.5045" y2="1085.8" gradientTransform="matrix(1 0 0 -1 0 1100)">
				<stop  offset="0" style="stop-color:#63E2FF"/>
				<stop  offset="1" style="stop-color:#B066FE"/>
			</linearGradient>
			<path class="st5" d="M226.4-2.9c-1.9,5.3-8.8,9.6-9,14.9c-0.2,5.5,6.3,10.3,7.8,15.6s-1.6,12.8,1.5,17.4c3,4.5,11.1,4.6,15.5,8
				c4.2,3.3,6.1,11.2,11.4,13.2c5.3,1.9,11.9-2.8,17.2-2.6c5.5,0.2,11.7,5.4,17,3.9s7.8-9.2,12.4-12.2c4.5-3,12.6-2.4,16-6.8
				c3.3-4.2,0.9-11.9,2.8-17.2s8.8-9.6,9-14.9c0.2-5.5-6.3-10.3-7.8-15.6s1.6-12.8-1.5-17.4c-3-4.5-11.1-4.6-15.5-8
				c-4.2-3.3-6.1-11.2-11.4-13.2c-5.3-1.9-11.9,2.8-17.2,2.6c-5.5-0.2-11.7-5.4-17-3.9s-7.8,9.2-12.4,12.2c-4.5,3-12.6,2.4-16,6.8
				C225.9-15.8,228.3-8.2,226.4-2.9z"/>
		</g>
		
			<linearGradient id="SVGID_6_" gradientUnits="userSpaceOnUse" x1="233.1687" y1="1082.1" x2="340.6313" y2="1082.1" gradientTransform="matrix(1 0 0 -1 0 1100)">
			<stop  offset="0" style="stop-color:#63E2FF"/>
			<stop  offset="1" style="stop-color:#B066FE"/>
		</linearGradient>
		<path class="st6" d="M233.4,4c-1.4,5.5,4,11.5,4.3,16.9c0.3,5.5-4.2,12.2-2.2,17.3s9.9,6.9,13.4,11.1s3.7,12.3,8.3,15.3
			c4.5,2.9,11.9-0.3,17.4,1.1s10.4,7.8,15.7,7.5c5.5-0.3,9.6-7.3,14.7-9.3c5.1-2,12.9,0.3,17.1-3.2s3.4-11.5,6.4-16.2
			c2.9-4.5,10.5-7.2,11.9-12.7s-4-11.5-4.3-16.9c-0.3-5.5,4.2-12.2,2.2-17.3s-9.9-6.9-13.4-11.1s-3.7-12.3-8.3-15.3
			c-4.5-2.9-11.9,0.3-17.4-1.1s-10.4-7.8-15.7-7.5C278-37,273.9-30,268.9-28c-5.1,2-12.9-0.3-17.1,3.2s-3.4,11.5-6.4,16.2
			C242.5-4.1,234.8-1.4,233.4,4z"/>
	</g>
	
		<linearGradient id="SVGID_7_" gradientUnits="userSpaceOnUse" x1="45.8559" y1="1064.2" x2="58.2559" y2="1064.2" gradientTransform="matrix(1 0 0 -1 0 1100)">
		<stop  offset="0" style="stop-color:#63E2FF"/>
		<stop  offset="1" style="stop-color:#B066FE"/>
	</linearGradient>
	<ellipse class="st7" cx="52.1" cy="35.8" rx="6.2" ry="6.2"/>
	<ellipse transform="matrix(0.9363 -0.3512 0.3512 0.9363 -8.6441 19.7416)" class="st8" cx="50.1" cy="33.7" rx="6.2" ry="6.2"/>
	<path class="st9" d="M25.9,16.3L25.9,16.3c-0.3,0.2-0.7,0.1-0.8-0.2l-2.8-5.3c-0.2-0.3-0.1-0.7,0.2-0.8l0,0
		c0.3-0.2,0.7-0.1,0.8,0.2l2.8,5.3C26.3,15.8,26.2,16.1,25.9,16.3z"/>
	<path class="st9" d="M21.1,14.8L21.1,14.8c-0.2-0.3-0.1-0.7,0.2-0.8l5.3-2.8c0.3-0.2,0.7-0.1,0.8,0.2l0,0c0.2,0.3,0.1,0.7-0.2,0.8
		L21.8,15C21.6,15.2,21.2,15.1,21.1,14.8z"/>
	<path class="st9" d="M246.7,71.6L246.7,71.6c-0.3,0.2-0.7,0.1-0.8-0.2l-3.2-5.3c-0.2-0.3-0.1-0.7,0.2-0.8l0,0
		c0.3-0.2,0.7-0.1,0.8,0.2l3.2,5.3C247.1,71.1,247,71.5,246.7,71.6z"/>
	<path class="st9" d="M241.6,70.4L241.6,70.4c-0.2-0.3-0.1-0.7,0.2-0.8l5.3-3.2c0.3-0.2,0.7-0.1,0.8,0.2l0,0
		c0.2,0.3,0.1,0.7-0.2,0.8l-5.3,3.2C242.2,70.8,241.8,70.7,241.6,70.4z"/>
	
		<linearGradient id="SVGID_8_" gradientUnits="userSpaceOnUse" x1="-135.6148" y1="854.4" x2="20.1891" y2="854.4" gradientTransform="matrix(1 0 0 -1 0 1100)">
		<stop  offset="0" style="stop-color:#63E2FF"/>
		<stop  offset="1" style="stop-color:#B066FE"/>
	</linearGradient>
	<path class="st10" d="M16.2,224.7l-104.9,89.7c-4.2,3.6-10.5,3.1-14-0.8l-30-33.4c-3.6-4-3.1-10.2,1-13.7l104.9-89.7
		c4.2-3.6,10.5-3.1,14,0.8l30,33.4C20.9,215.1,20.4,221.2,16.2,224.7z"/>
	
		<linearGradient id="SVGID_9_" gradientUnits="userSpaceOnUse" x1="-138.1148" y1="832.8" x2="17.6148" y2="832.8" gradientTransform="matrix(1 0 0 -1 0 1100)">
		<stop  offset="0" style="stop-color:#63E2FF"/>
		<stop  offset="1" style="stop-color:#B066FE"/>
	</linearGradient>
	<path class="st11" d="M13.7,246.3L-91.2,336c-4.2,3.6-10.5,3.1-14-0.8l-30-33.4c-3.6-4-3.1-10.2,1-13.7l104.9-89.7
		c4.2-3.6,10.5-3.1,14,0.8l30,33.4C18.3,236.6,17.8,242.8,13.7,246.3z"/>
	<path class="st9" d="M92.8,514.3L92.8,514.3c-0.2,0.3-0.5,0.3-0.7,0.2l-4.6-2.6c-0.3-0.2-0.3-0.5-0.2-0.7l0,0
		c0.2-0.3,0.5-0.3,0.7-0.2l4.6,2.6C92.9,513.8,93,514.1,92.8,514.3z"/>
	<path class="st9" d="M88.4,515.6L88.4,515.6c-0.3-0.2-0.3-0.5-0.2-0.7l2.6-4.6c0.2-0.3,0.5-0.3,0.7-0.2l0,0
		c0.3,0.2,0.3,0.5,0.2,0.7l-2.6,4.6C89.1,515.6,88.8,515.8,88.4,515.6z"/>
	<path class="st9" d="M217.6,486.3L217.6,486.3c-0.3,0-0.5-0.3-0.5-0.5l0.2-5.3c0-0.3,0.3-0.5,0.5-0.5l0,0c0.3,0,0.5,0.3,0.5,0.5
		l-0.2,5.3C218.2,486.2,217.9,486.4,217.6,486.3z"/>
	<path class="st9" d="M214.6,483.2L214.6,483.2c0-0.3,0.3-0.5,0.5-0.5l5.3,0.2c0.3,0,0.5,0.3,0.5,0.5l0,0c0,0.3-0.3,0.5-0.5,0.5
		l-5.3-0.2C214.8,483.7,214.6,483.4,214.6,483.2z"/>
	
		<linearGradient id="SVGID_10_" gradientUnits="userSpaceOnUse" x1="11.8" y1="703.75" x2="25.5" y2="703.75" gradientTransform="matrix(1 0 0 -1 0 1100)">
		<stop  offset="0" style="stop-color:#63E2FF"/>
		<stop  offset="1" style="stop-color:#B066FE"/>
	</linearGradient>
	<polygon class="st12" points="25.5,399.1 11.8,403.2 15.1,389.3 	"/>
	<polygon class="st8" points="29.6,398.8 15.3,398 23.1,386 	"/>
	
		<linearGradient id="SVGID_11_" gradientUnits="userSpaceOnUse" x1="151.9" y1="567.75" x2="163.6" y2="567.75" gradientTransform="matrix(1 0 0 -1 0 1100)">
		<stop  offset="0" style="stop-color:#63E2FF"/>
		<stop  offset="1" style="stop-color:#B066FE"/>
	</linearGradient>
	<polygon class="st13" points="163.6,534.7 151.9,538.2 154.7,526.3 	"/>
	<polygon class="st8" points="167.1,534.4 154.9,533.7 161.6,523.4 	"/>
	<path class="st9" d="M44.6,284.9L44.6,284.9c-0.3,0.2-0.7,0.1-0.8-0.2l-3.2-5.3c-0.2-0.3-0.1-0.7,0.2-0.8l0,0
		c0.3-0.2,0.7-0.1,0.8,0.2l3.2,5.3C45,284.4,44.9,284.7,44.6,284.9z"/>
	<path class="st9" d="M39.5,283.7L39.5,283.7c-0.2-0.3-0.1-0.7,0.2-0.8l5.3-3.2c0.3-0.2,0.7-0.1,0.8,0.2l0,0
		c0.2,0.3,0.1,0.7-0.2,0.8l-5.3,3.2C40.1,284.1,39.7,284,39.5,283.7z"/>
	<path class="st9" d="M25.5,360L25.5,360c-0.1,0.3-0.5,0.5-0.8,0.3l-5.7-2.5c-0.3-0.1-0.5-0.5-0.3-0.8l0,0c0.1-0.3,0.5-0.5,0.8-0.3
		l5.7,2.5C25.5,359.3,25.6,359.6,25.5,360z"/>
	<path class="st9" d="M20.6,361.9L20.6,361.9c-0.3-0.1-0.5-0.5-0.3-0.8l2.5-5.7c0.1-0.3,0.5-0.5,0.8-0.3l0,0
		c0.3,0.1,0.5,0.5,0.3,0.8l-2.5,5.7C21.4,361.9,21,362.1,20.6,361.9z"/>
	
		<linearGradient id="SVGID_12_" gradientUnits="userSpaceOnUse" x1="229.8851" y1="798.15" x2="401.1932" y2="798.15" gradientTransform="matrix(1 0 0 -1 0 1100)">
		<stop  offset="0" style="stop-color:#63E2FF"/>
		<stop  offset="1" style="stop-color:#B066FE"/>
	</linearGradient>
	<path class="st14" d="M235.6,295.3l125.6,72.5c5,2.9,11.4,1.1,14.2-3.8l23.9-41.4c2.9-5,1.1-11.4-3.8-14.2l-125.6-72.5
		c-5-2.9-11.4-1.1-14.2,3.8l-23.9,41.4C228.9,286.1,230.6,292.5,235.6,295.3z"/>
	
		<linearGradient id="SVGID_13_" gradientUnits="userSpaceOnUse" x1="237.8548" y1="775.95" x2="409.0932" y2="775.95" gradientTransform="matrix(1 0 0 -1 0 1100)">
		<stop  offset="0" style="stop-color:#63E2FF"/>
		<stop  offset="1" style="stop-color:#B066FE"/>
	</linearGradient>
	<path class="st15" d="M243.6,317.5L369.1,390c5,2.9,11.4,1.1,14.2-3.8l23.9-41.4c2.9-5,1.1-11.4-3.8-14.2l-125.6-72.5
		c-5-2.9-11.4-1.1-14.2,3.8l-23.9,41.4C236.9,308.2,238.6,314.6,243.6,317.5z"/>
	<polygon class="st8" points="250.4,223.6 247.5,227.7 242.7,227.1 240.8,222.6 243.6,218.5 248.4,219.1 	"/>
	
		<linearGradient id="SVGID_14_" gradientUnits="userSpaceOnUse" x1="241.8" y1="886.85" x2="251.3" y2="886.85" gradientTransform="matrix(1 0 0 -1 0 1100)">
		<stop  offset="0" style="stop-color:#63E2FF"/>
		<stop  offset="1" style="stop-color:#B066FE"/>
	</linearGradient>
	<polygon class="st16" points="251.3,213.7 248.5,217.7 243.7,217.2 241.8,212.6 244.6,208.6 249.4,209.1 	"/>
	
		<linearGradient id="SVGID_15_" gradientUnits="userSpaceOnUse" x1="232.2" y1="872.95" x2="241.8" y2="872.95" gradientTransform="matrix(1 0 0 -1 0 1100)">
		<stop  offset="0" style="stop-color:#63E2FF"/>
		<stop  offset="1" style="stop-color:#B066FE"/>
	</linearGradient>
	<polygon class="st17" points="241.8,227.6 238.9,231.6 234.1,231.1 232.2,226.5 235,222.5 239.8,223 	"/>
	<polygon class="st8" points="224.4,511.7 226.9,513 227,515.9 224.6,517.4 222,516 221.9,513.2 	"/>
	
		<linearGradient id="SVGID_16_" gradientUnits="userSpaceOnUse" x1="216.3" y1="585.25" x2="221.3" y2="585.25" gradientTransform="matrix(1 0 0 -1 0 1100)">
		<stop  offset="0" style="stop-color:#63E2FF"/>
		<stop  offset="1" style="stop-color:#B066FE"/>
	</linearGradient>
	<polygon class="st18" points="218.7,511.9 221.2,513.3 221.3,516.1 218.9,517.6 216.4,516.3 216.3,513.4 	"/>
	
		<linearGradient id="SVGID_17_" gradientUnits="userSpaceOnUse" x1="224.9" y1="580.75" x2="229.9" y2="580.75" gradientTransform="matrix(1 0 0 -1 0 1100)">
		<stop  offset="0" style="stop-color:#63E2FF"/>
		<stop  offset="1" style="stop-color:#B066FE"/>
	</linearGradient>
	<polygon class="st19" points="227.3,516.4 229.8,517.8 229.9,520.6 227.5,522.1 225,520.8 224.9,517.9 	"/>
	
		<linearGradient id="SVGID_18_" gradientUnits="userSpaceOnUse" x1="-527.2111" y1="217.0641" x2="-452.9459" y2="217.0641" gradientTransform="matrix(-0.3704 0.9289 -0.9289 -0.3704 302.5588 894.9268)">
		<stop  offset="0" style="stop-color:#63E2FF"/>
		<stop  offset="1" style="stop-color:#B066FE"/>
	</linearGradient>
	<path class="st20" d="M250.4,385.9l-1.3-1.7c-1.3-1.7-1-4.2,0.7-5.4l59.3-46.8c1.7-1.3,4.2-1,5.4,0.7l1.3,1.7
		c1.3,1.7,1,4.2-0.7,5.4l-59.3,46.8C254.1,387.9,251.7,387.6,250.4,385.9z"/>
	
		<linearGradient id="SVGID_19_" gradientUnits="userSpaceOnUse" x1="-534.5611" y1="206.0714" x2="-427.9956" y2="206.0714" gradientTransform="matrix(-0.3704 0.9289 -0.9289 -0.3704 302.5588 894.9268)">
		<stop  offset="0" style="stop-color:#63E2FF"/>
		<stop  offset="1" style="stop-color:#B066FE"/>
	</linearGradient>
	<path class="st21" d="M242.7,409.7l-1.3-1.7c-1.3-1.7-1-4.2,0.7-5.4l88.6-69.9c1.7-1.3,4.2-1,5.4,0.7l1.3,1.7
		c1.3,1.7,1,4.2-0.7,5.4l-88.6,69.9C246.5,411.7,244,411.4,242.7,409.7z"/>
	
		<linearGradient id="SVGID_20_" gradientUnits="userSpaceOnUse" x1="242.2" y1="670.1" x2="255" y2="670.1" gradientTransform="matrix(1 0 0 -1 0 1100)">
		<stop  offset="0" style="stop-color:#63E2FF"/>
		<stop  offset="1" style="stop-color:#B066FE"/>
	</linearGradient>
	<circle class="st22" cx="248.6" cy="429.9" r="6.4"/>
	
		<ellipse transform="matrix(0.9146 -0.4043 0.4043 0.9146 -151.9229 136.1433)" class="st8" cx="246.4" cy="427.8" rx="6.4" ry="6.4"/>
	
		<linearGradient id="SVGID_21_" gradientUnits="userSpaceOnUse" x1="5.8" y1="806.7" x2="18.6" y2="806.7" gradientTransform="matrix(1 0 0 -1 0 1100)">
		<stop  offset="0" style="stop-color:#63E2FF"/>
		<stop  offset="1" style="stop-color:#B066FE"/>
	</linearGradient>
	<ellipse class="st23" cx="12.2" cy="293.3" rx="6.4" ry="6.4"/>
	<ellipse transform="matrix(0.1409 -0.99 0.99 0.1409 -277.6621 260.6532)" class="st8" cx="11.4" cy="290.3" rx="6.4" ry="6.4"/>
	
		<linearGradient id="SVGID_22_" gradientUnits="userSpaceOnUse" x1="230.8198" y1="555.4" x2="241.8198" y2="555.4" gradientTransform="matrix(1 0 0 -1 0 1100)">
		<stop  offset="0" style="stop-color:#63E2FF"/>
		<stop  offset="1" style="stop-color:#B066FE"/>
	</linearGradient>
	<ellipse class="st24" cx="236.3" cy="544.6" rx="5.5" ry="5.5"/>
	
		<ellipse transform="matrix(0.4676 -0.8839 0.8839 0.4676 -353.0851 497.5092)" class="st8" cx="236.5" cy="541.9" rx="5.5" ry="5.5"/>
	<path class="st9" d="M248.6,350.9L248.6,350.9c-0.3,0.2-0.7,0.1-0.8-0.2l-3.2-5.3c-0.2-0.3-0.1-0.7,0.2-0.8l0,0
		c0.3-0.2,0.7-0.1,0.8,0.2l3.2,5.3C249,350.4,248.9,350.7,248.6,350.9z"/>
	<path class="st9" d="M243.5,349.7L243.5,349.7c-0.2-0.3-0.1-0.7,0.2-0.8l5.3-3.2c0.3-0.2,0.7-0.1,0.8,0.2l0,0
		c0.2,0.3,0.1,0.7-0.2,0.8l-5.3,3.2C244.1,350.1,243.7,350,243.5,349.7z"/>
	
		<linearGradient id="SVGID_23_" gradientUnits="userSpaceOnUse" x1="34.0096" y1="574.4219" x2="47.6641" y2="574.4219" gradientTransform="matrix(1 0 0 -1 0 1100)">
		<stop  offset="0" style="stop-color:#63E2FF"/>
		<stop  offset="1" style="stop-color:#B066FE"/>
	</linearGradient>
	<path class="st25" d="M45.4,530.4l-1.4-0.2c-0.7-0.1-1.3,0.2-1.7,0.7l-0.9,1c-1.1,1.2-3.2,0.7-3.4-0.9l-0.3-1.4
		c-0.1-0.7-0.6-1.2-1.2-1.5l-1.3-0.5c-1.5-0.7-1.6-2.7-0.2-3.6l1.2-0.7c0.6-0.3,0.9-0.9,1-1.5l0.2-1.4c0.2-1.6,2.1-2.4,3.3-1.3
		l1,0.9c0.5,0.4,1.1,0.6,1.8,0.5l1.4-0.3c1.6-0.3,2.9,1.3,2.2,2.8l-0.6,1.2c-0.3,0.6-0.3,1.3,0.1,1.9l0.7,1.2
		C48.3,528.9,47.1,530.6,45.4,530.4z"/>
	<path class="st8" d="M46.2,527.9l-1.4-0.2c-0.7-0.1-1.3,0.2-1.7,0.7l-0.9,1c-1.1,1.2-3.2,0.7-3.4-0.9l-0.3-1.4
		c-0.1-0.7-0.6-1.2-1.2-1.5l-1.3-0.5c-1.5-0.7-1.6-2.7-0.2-3.6l1.2-0.7c0.6-0.3,0.9-0.9,1-1.5l0.2-1.4c0.2-1.6,2.1-2.4,3.3-1.3
		l1,0.9c0.5,0.4,1.1,0.6,1.8,0.5l1.4-0.3c1.6-0.3,2.9,1.3,2.2,2.8l-0.6,1.2c-0.3,0.6-0.3,1.3,0.1,1.9l0.7,1.2
		C49,526.3,47.8,528,46.2,527.9z"/>
	
		<linearGradient id="SVGID_24_" gradientUnits="userSpaceOnUse" x1="76.22" y1="562.0281" x2="90.0546" y2="562.0281" gradientTransform="matrix(1 0 0 -1 0 1100)">
		<stop  offset="0" style="stop-color:#63E2FF"/>
		<stop  offset="1" style="stop-color:#B066FE"/>
	</linearGradient>
	<path class="st26" d="M79.5,543.1l-0.1-1.4c-0.1-0.7-0.4-1.2-1-1.5l-1.2-0.7c-1.4-0.9-1.3-3,0.3-3.5l1.3-0.5c0.7-0.3,1-0.9,1.2-1.5
		l0.3-1.4c0.3-1.6,2.3-2.1,3.5-0.9l0.9,1c0.4,0.5,1,0.8,1.7,0.7l1.4-0.1c1.6-0.2,2.8,1.6,2,3l-0.7,1.2c-0.3,0.6-0.3,1.2-0.2,1.9
		l0.5,1.3c0.7,1.5-0.7,3.1-2.3,2.7l-1.3-0.3c-0.6-0.2-1.3,0-1.8,0.4l-1,0.9C81.6,545.5,79.7,544.7,79.5,543.1z"/>
	<path class="st8" d="M82.2,543.3l-0.1-1.4c-0.1-0.7-0.4-1.2-1-1.5l-1.2-0.7c-1.4-0.9-1.3-3,0.3-3.5l1.3-0.5c0.7-0.3,1-0.9,1.2-1.5
		l0.3-1.4c0.3-1.6,2.3-2.1,3.5-0.9l0.9,1c0.4,0.5,1,0.8,1.7,0.7l1.4-0.1c1.6-0.2,2.8,1.6,2,3l-0.7,1.2c-0.3,0.6-0.3,1.2-0.2,1.9
		l0.5,1.3c0.7,1.5-0.7,3.1-2.3,2.7l-1.3-0.3c-0.6-0.2-1.3,0-1.8,0.4l-1,0.9C84.2,545.7,82.3,544.9,82.2,543.3z"/>
	<path class="st8" d="M249.7,603.5c-3.6-2.5-4.5-7.4-2.1-10.9c2-2.9,5.8-3.6,8.7-1.6c2.3,1.5,2.9,4.7,1.4,7c-1.3,1.8-3.8,2.3-5.6,1
		c-1.5-1-1.9-3-0.9-4.5c0.8-1.2,2.4-1.5,3.6-0.7c0.9,0.6,1.2,1.9,0.5,2.8c-0.5,0.8-1.5,0.9-2.3,0.4c-0.6-0.4-0.8-1.2-0.3-1.8"/>
	
		<linearGradient id="SVGID_25_" gradientUnits="userSpaceOnUse" x1="13.2444" y1="959.9191" x2="24" y2="959.9191" gradientTransform="matrix(1 0 0 -1 0 1100)">
		<stop  offset="0" style="stop-color:#63E2FF"/>
		<stop  offset="1" style="stop-color:#B066FE"/>
	</linearGradient>
	<path class="st27" d="M24,143.7c-2.7,2.5-6.9,2.3-9.4-0.4c-2-2.2-1.8-5.5,0.3-7.5c1.8-1.6,4.4-1.4,6,0.3c1.2,1.4,1.2,3.5-0.2,4.8
		c-1.1,1-2.8,1-3.8-0.1c-0.8-0.9-0.8-2.3,0.1-3.1c0.7-0.6,1.8-0.6,2.5,0.1c0.5,0.5,0.5,1.4-0.1,2c-0.4,0.4-1.2,0.4-1.6-0.1
		c-0.3-0.3-0.3-1,0.1-1.2"/>
	
		<linearGradient id="SVGID_26_" gradientUnits="userSpaceOnUse" x1="-568.8067" y1="575.6083" x2="-557.7163" y2="575.6083" gradientTransform="matrix(0.3355 0.942 0.942 -0.3355 -152.2339 741.535)">
		<stop  offset="0" style="stop-color:#63E2FF"/>
		<stop  offset="1" style="stop-color:#B066FE"/>
	</linearGradient>
	<path class="st28" d="M199.7,24.2c-3.4-1.6-4.8-5.5-3.3-8.9c1.2-2.7,4.4-3.9,7.1-2.7c2.2,1,3.1,3.6,2.1,5.7
		c-0.8,1.7-2.8,2.5-4.6,1.7c-1.4-0.6-2-2.3-1.4-3.6c0.5-1.1,1.8-1.6,2.9-1.1c0.9,0.4,1.3,1.4,0.9,2.3c-0.3,0.7-1.1,1-1.9,0.7
		c-0.6-0.2-0.8-0.9-0.5-1.5c0.2-0.4,0.8-0.6,1.2-0.4"/>
	
		<linearGradient id="SVGID_27_" gradientUnits="userSpaceOnUse" x1="70.1217" y1="519.95" x2="141.7783" y2="519.95" gradientTransform="matrix(1 0 0 -1 0 1100)">
		<stop  offset="0" style="stop-color:#63E2FF"/>
		<stop  offset="1" style="stop-color:#B066FE"/>
	</linearGradient>
	<path class="st29" d="M139.4,584.4l-32.1,29.3c-2.4,2.2-6.2,2.1-8.3-0.3L72.2,584c-2.2-2.4-2.1-6.2,0.3-8.3l32.1-29.3
		c2.4-2.2,6.2-2.1,8.3,0.3l26.8,29.3C141.9,578.4,141.8,582.2,139.4,584.4z"/>
	
		<linearGradient id="SVGID_28_" gradientUnits="userSpaceOnUse" x1="80.2217" y1="523.6" x2="151.8783" y2="523.6" gradientTransform="matrix(1 0 0 -1 0 1100)">
		<stop  offset="0" style="stop-color:#63E2FF"/>
		<stop  offset="1" style="stop-color:#B066FE"/>
	</linearGradient>
	<path class="st30" d="M149.5,580.7L117.4,610c-2.4,2.2-6.2,2.1-8.3-0.3l-26.8-29.3c-2.2-2.4-2.1-6.2,0.3-8.3l32.1-29.3
		c2.4-2.2,6.2-2.1,8.3,0.3l26.8,29.3C152,574.8,151.9,578.4,149.5,580.7z"/>
	
		<linearGradient id="SVGID_29_" gradientUnits="userSpaceOnUse" x1="75.7217" y1="522" x2="147.3323" y2="522" gradientTransform="matrix(1 0 0 -1 0 1100)">
		<stop  offset="0" style="stop-color:#63E2FF"/>
		<stop  offset="1" style="stop-color:#B066FE"/>
	</linearGradient>
	<path class="st31" d="M144.9,582.3l-32.1,29.3c-2.4,2.2-6.2,2.1-8.3-0.3L77.8,582c-2.2-2.4-2.1-6.2,0.3-8.3l32.1-29.3
		c2.4-2.2,6.2-2.1,8.3,0.3l26.8,29.3C147.5,576.4,147.3,580.2,144.9,582.3z"/>
	
		<linearGradient id="SVGID_30_" gradientUnits="userSpaceOnUse" x1="-75.6783" y1="613.15" x2="15.1783" y2="613.15" gradientTransform="matrix(1 0 0 -1 0 1100)">
		<stop  offset="0" style="stop-color:#63E2FF"/>
		<stop  offset="1" style="stop-color:#B066FE"/>
	</linearGradient>
	<path class="st32" d="M12.8,491.1L-29.5,530c-2.4,2.2-6.2,2.1-8.3-0.3l-35.8-38.8c-2.2-2.4-2.1-6.2,0.3-8.3l42.3-38.9
		c2.4-2.2,6.2-2.1,8.3,0.3l35.8,38.8C15.3,485.2,15.2,488.9,12.8,491.1z"/>
	
		<linearGradient id="SVGID_31_" gradientUnits="userSpaceOnUse" x1="-62.9783" y1="617.85" x2="27.8394" y2="617.85" gradientTransform="matrix(1 0 0 -1 0 1100)">
		<stop  offset="0" style="stop-color:#63E2FF"/>
		<stop  offset="1" style="stop-color:#B066FE"/>
	</linearGradient>
	<path class="st33" d="M25.5,486.4l-42.3,38.9c-2.4,2.2-6.2,2.1-8.3-0.3l-35.8-38.8c-2.2-2.4-2.1-6.2,0.3-8.3l42.3-38.9
		c2.4-2.2,6.2-2.1,8.3,0.3l35.8,38.8C27.9,480.5,27.9,484.2,25.5,486.4z"/>
	
		<linearGradient id="SVGID_32_" gradientUnits="userSpaceOnUse" x1="-68.7783" y1="615.8" x2="22.1323" y2="615.8" gradientTransform="matrix(1 0 0 -1 0 1100)">
		<stop  offset="0" style="stop-color:#63E2FF"/>
		<stop  offset="1" style="stop-color:#B066FE"/>
	</linearGradient>
	<path class="st34" d="M19.7,488.5l-42.3,38.9c-2.4,2.2-6.2,2.1-8.3-0.3l-35.8-38.8c-2.2-2.4-2.1-6.2,0.3-8.3l42.4-39
		c2.4-2.2,6.2-2.1,8.3,0.3l35.8,38.8C22.3,482.5,22.1,486.3,19.7,488.5z"/>
	
		<linearGradient id="SVGID_33_" gradientUnits="userSpaceOnUse" x1="236.6659" y1="602.7" x2="323.7649" y2="602.7" gradientTransform="matrix(1 0 0 -1 0 1100)">
		<stop  offset="0" style="stop-color:#63E2FF"/>
		<stop  offset="1" style="stop-color:#B066FE"/>
	</linearGradient>
	<path class="st35" d="M321,504.9l-43.4,33.8c-2.6,2-6.3,1.5-8.2-1l-31-39.8c-2-2.6-1.5-6.3,1-8.2l43.4-33.8c2.6-2,6.3-1.5,8.2,1
		l31,39.8C324,499.1,323.6,502.9,321,504.9z"/>
	
		<linearGradient id="SVGID_34_" gradientUnits="userSpaceOnUse" x1="249.1659" y1="606.3" x2="336.3071" y2="606.3" gradientTransform="matrix(1 0 0 -1 0 1100)">
		<stop  offset="0" style="stop-color:#63E2FF"/>
		<stop  offset="1" style="stop-color:#B066FE"/>
	</linearGradient>
	<path class="st36" d="M333.5,501.3l-43.4,33.8c-2.6,2-6.3,1.5-8.2-1l-31-39.8c-2-2.6-1.5-6.3,1-8.2l43.4-33.8c2.6-2,6.3-1.5,8.2,1
		l31,39.8C336.6,495.6,336.1,499.4,333.5,501.3z"/>
	
		<linearGradient id="SVGID_35_" gradientUnits="userSpaceOnUse" x1="243.4659" y1="604.7" x2="330.6071" y2="604.7" gradientTransform="matrix(1 0 0 -1 0 1100)">
		<stop  offset="0" style="stop-color:#63E2FF"/>
		<stop  offset="1" style="stop-color:#B066FE"/>
	</linearGradient>
	<path class="st37" d="M327.8,502.9l-43.4,33.8c-2.6,2-6.3,1.5-8.2-1l-31-39.8c-2-2.6-1.5-6.3,1-8.2l43.4-33.8c2.6-2,6.3-1.5,8.2,1
		l31,39.8C330.9,497.2,330.4,500.9,327.8,502.9z"/>
	
		<linearGradient id="SVGID_36_" gradientUnits="userSpaceOnUse" x1="-640.9819" y1="529.5369" x2="-566.653" y2="529.5369" gradientTransform="matrix(-0.7071 0.7071 -0.7071 -0.7071 -81.7295 1133.8506)">
		<stop  offset="0" style="stop-color:#63E2FF"/>
		<stop  offset="1" style="stop-color:#B066FE"/>
	</linearGradient>
	<path class="st38" d="M-69.2,344.2l-0.5-2.1c-0.5-2.1,0.7-4.2,2.8-4.7l73-19.5c2.1-0.5,4.2,0.7,4.7,2.8l0.5,2.1
		c0.5,2.1-0.7,4.2-2.8,4.7l-73,19.5C-66.6,347.6-68.7,346.3-69.2,344.2z"/>
	
		<linearGradient id="SVGID_37_" gradientUnits="userSpaceOnUse" x1="-655.407" y1="514.5108" x2="-548.7793" y2="514.5108" gradientTransform="matrix(-0.7071 0.7071 -0.7071 -0.7071 -81.7295 1133.8506)">
		<stop  offset="0" style="stop-color:#63E2FF"/>
		<stop  offset="1" style="stop-color:#B066FE"/>
	</linearGradient>
	<path class="st39" d="M-77.8,360.9l-0.5-2.1c-0.5-2.1,0.7-4.2,2.8-4.7l109-29.2c2.1-0.5,4.2,0.7,4.7,2.8l0.5,2.1
		c0.5,2.1-0.7,4.2-2.8,4.7l-109,29.2C-75.2,364.2-77.3,363-77.8,360.9z"/>
</g>
<linearGradient id="SVGID_38_" gradientUnits="userSpaceOnUse" x1="172.5393" y1="516.2" x2="183.5393" y2="516.2" gradientTransform="matrix(1 0 0 -1 0 1100)">
	<stop  offset="0" style="stop-color:#63E2FF"/>
	<stop  offset="1" style="stop-color:#B066FE"/>
</linearGradient>
<ellipse class="st40" cx="178" cy="583.8" rx="5.5" ry="5.5"/>
<ellipse transform="matrix(0.4676 -0.8839 0.8839 0.4676 -418.8474 466.6661)" class="st8" cx="178" cy="581" rx="5.5" ry="5.5"/>
<path class="st8" d="M187.6,534.9c2.2,4.9-2.6,6.9-0.3,11.9c2.2,4.9,7.9,4.2,10.1,9.1c2.2,4.9-2.6,6.9-0.3,11.9
	c2.2,4.9,6.9,2.8,9.1,7.7c2.2,4.9-2.6,6.9-0.3,11.9"/>
<path class="st8" d="M126,501.2l-0.1-1.4c-0.1-0.7-0.4-1.2-1-1.5l-1.2-0.7c-1.4-0.9-1.3-3,0.3-3.5l1.3-0.5c0.7-0.3,1-0.9,1.2-1.5
	l0.3-1.4c0.3-1.6,2.3-2.1,3.5-0.9l0.9,1c0.4,0.5,1,0.8,1.7,0.7l1.4-0.1c1.6-0.2,2.8,1.6,2,3l-0.7,1.2c-0.3,0.6-0.3,1.2-0.2,1.9
	l0.5,1.3c0.7,1.5-0.7,3.1-2.3,2.7l-1.3-0.3c-0.6-0.2-1.3,0-1.8,0.4l-1,0.9C128,503.7,126.1,502.8,126,501.2z"/>
<linearGradient id="SVGID_39_" gradientUnits="userSpaceOnUse" x1="125.32" y1="603.7174" x2="139.1546" y2="603.7174" gradientTransform="matrix(1 0 0 -1 0 1100)">
	<stop  offset="0" style="stop-color:#63E2FF"/>
	<stop  offset="1" style="stop-color:#B066FE"/>
</linearGradient>
<path class="st41" d="M128.6,501.4l-0.1-1.4c-0.1-0.7-0.4-1.2-1-1.5l-1.2-0.7c-1.4-0.9-1.3-3,0.3-3.5l1.3-0.5c0.7-0.3,1-0.9,1.2-1.5
	l0.3-1.4c0.3-1.6,2.3-2.1,3.5-0.9l0.9,1c0.4,0.5,1,0.8,1.7,0.7l1.4-0.1c1.6-0.2,2.8,1.6,2,3l-0.7,1.2c-0.3,0.6-0.3,1.2-0.2,1.9
	l0.5,1.3c0.7,1.5-0.7,3.1-2.3,2.7l-1.3-0.3c-0.6-0.2-1.3,0-1.8,0.4l-1,0.9C130.7,503.8,128.8,503.1,128.6,501.4z"/>
<path class="st42" d="M248.3,168.7l-0.1-1c-0.1-0.5-0.3-0.9-0.8-1.2l-0.9-0.5c-1-0.6-1-2.2,0.2-2.6l1-0.4c0.5-0.2,0.8-0.6,0.9-1.1
	l0.2-1c0.3-1.2,1.7-1.6,2.6-0.7l0.7,0.8c0.3,0.4,0.8,0.6,1.3,0.5l1-0.1c1.2-0.1,2.1,1.2,1.5,2.2l-0.5,0.9c-0.3,0.4-0.3,0.9-0.1,1.4
	l0.4,1c0.5,1.2-0.5,2.3-1.7,2.1l-1-0.3c-0.4-0.1-1,0-1.3,0.3l-0.8,0.7C249.8,170.6,248.4,170,248.3,168.7z"/>
<linearGradient id="SVGID_40_" gradientUnits="userSpaceOnUse" x1="247.7733" y1="934.9131" x2="258.091" y2="934.9131" gradientTransform="matrix(1 0 0 -1 0 1100)">
	<stop  offset="0" style="stop-color:#63E2FF"/>
	<stop  offset="1" style="stop-color:#B066FE"/>
</linearGradient>
<path class="st43" d="M250.3,168.9l-0.1-1c-0.1-0.5-0.3-0.9-0.8-1.2l-0.9-0.5c-1-0.6-1-2.2,0.2-2.6l1-0.4c0.5-0.2,0.8-0.6,0.9-1.1
	l0.2-1c0.3-1.2,1.7-1.6,2.6-0.7l0.7,0.8c0.3,0.4,0.8,0.6,1.3,0.5l1-0.1c1.2-0.1,2.1,1.2,1.5,2.2l-0.5,0.9c-0.3,0.4-0.3,0.9-0.1,1.4
	l0.4,1c0.5,1.2-0.5,2.3-1.7,2.1l-1-0.3c-0.4-0.1-1,0-1.3,0.3l-0.8,0.7C251.8,170.7,250.4,170.1,250.3,168.9z"/>
<path class="st9" d="M55.6,500.5L55.6,500.5c-0.3,0-0.5-0.3-0.5-0.5l0.2-5.3c0-0.3,0.3-0.5,0.5-0.5l0,0c0.3,0,0.5,0.3,0.5,0.5
	l-0.2,5.3C56.1,500.3,55.8,500.6,55.6,500.5z"/>
<path class="st9" d="M52.5,497.3L52.5,497.3c0-0.3,0.3-0.5,0.5-0.5l5.3,0.2c0.3,0,0.5,0.3,0.5,0.5l0,0c0,0.3-0.3,0.5-0.5,0.5
	l-5.3-0.2C52.7,497.8,52.5,497.6,52.5,497.3z"/>
<linearGradient id="SVGID_41_" gradientUnits="userSpaceOnUse" x1="-27.5308" y1="529.3" x2="23.4968" y2="529.3" gradientTransform="matrix(1 0 0 -1 0 1100)">
	<stop  offset="0" style="stop-color:#63E2FF"/>
	<stop  offset="1" style="stop-color:#B066FE"/>
</linearGradient>
<path class="st44" d="M22.7,549.3l-43,48.4c-1.2,1.4-3.3,1.5-4.7,0.3l-1.4-1.2c-1.4-1.2-1.5-3.3-0.3-4.7l43-48.4
	c1.2-1.4,3.3-1.5,4.7-0.3l1.4,1.2C23.7,545.8,23.9,547.9,22.7,549.3z"/>
<linearGradient id="SVGID_42_" gradientUnits="userSpaceOnUse" x1="-28.1308" y1="522.7" x2="44.2308" y2="522.7" gradientTransform="matrix(1 0 0 -1 0 1100)">
	<stop  offset="0" style="stop-color:#63E2FF"/>
	<stop  offset="1" style="stop-color:#B066FE"/>
</linearGradient>
<path class="st45" d="M43.4,543.9l-64.3,72.3c-1.2,1.4-3.3,1.5-4.7,0.3l-1.4-1.2c-1.4-1.2-1.5-3.3-0.3-4.7L37,538.4
	c1.2-1.4,3.3-1.5,4.7-0.3l1.4,1.2C44.5,540.4,44.6,542.5,43.4,543.9z"/>
</svg>
