<?xml version="1.0" encoding="utf-8"?>
<!-- Generator: Adobe Illustrator 21.0.1, SVG Export Plug-In . SVG Version: 6.00 Build 0)  -->
<svg version="1.1" xmlns="http://www.w3.org/2000/svg" xmlns:xlink="http://www.w3.org/1999/xlink" x="0px" y="0px"
	 viewBox="0 0 100 100" style="enable-background:new 0 0 100 100;" xml:space="preserve">
<style type="text/css">
	.st0{display:none;}
	.st1{display:inline;fill:#444444;}
	.st2{fill:#FFFFFF;}
</style>
<g id="Layer_4" class="st0">
	<rect x="0.2" y="-0.1" class="st1" width="100" height="100"/>
</g>
<g id="Layer_5">
	<g>
		<ellipse class="st2" cx="50.2" cy="47" rx="33.3" ry="23.8"/>
		<path class="st2" d="M53.3,69.5c0,0-18.5,7.6-20.4,7.1c-1.9-0.5,3.3-7.2-1-11.7S53.3,69.5,53.3,69.5z"/>
		<g>
			<path d="M36.8,41.6c0-1.2,0.3-2.2,0.9-2.9s1.5-1,2.7-1s2.1,0.3,2.7,1c0.6,0.7,0.9,1.6,0.9,2.9v0.6h-2.3v-0.7
				c0-0.6-0.1-0.9-0.3-1.2S40.8,40,40.4,40c-0.4,0-0.7,0.1-0.9,0.3c-0.2,0.2-0.3,0.6-0.3,1.2c0,0.5,0.1,1,0.4,1.4s0.5,0.8,0.9,1.1
				s0.7,0.7,1.1,1.1c0.4,0.4,0.8,0.8,1.1,1.2c0.4,0.4,0.6,0.9,0.9,1.5c0.2,0.5,0.4,1.2,0.4,1.9c0,1.2-0.3,2.2-0.9,2.9
				c-0.6,0.7-1.5,1-2.7,1s-2.1-0.3-2.7-1c-0.6-0.7-0.9-1.6-0.9-2.9v-1.1H39v1.2c0,0.6,0.1,0.9,0.3,1.2c0.2,0.2,0.5,0.3,0.9,0.3
				c0.4,0,0.7-0.1,0.9-0.3c0.2-0.2,0.3-0.6,0.3-1.2c0-0.5-0.1-1-0.4-1.4c-0.2-0.4-0.5-0.8-0.9-1.1c-0.4-0.4-0.7-0.7-1.1-1.1
				S38.4,45.4,38,45c-0.4-0.4-0.6-0.9-0.9-1.5C36.9,43,36.8,42.4,36.8,41.6z"/>
			<path d="M50.5,48.9L52.1,38h3.4v15.4h-2.3v-11l-1.7,11h-2.3l-1.8-10.9v10.9h-2.1V38h3.4L50.5,48.9z"/>
			<path d="M56.9,41.6c0-1.2,0.3-2.2,0.9-2.9s1.5-1,2.7-1s2.1,0.3,2.7,1s0.9,1.6,0.9,2.9v0.6h-2.3v-0.7c0-0.6-0.1-0.9-0.3-1.2
				c-0.2-0.2-0.5-0.3-0.9-0.3c-0.4,0-0.7,0.1-0.9,0.3c-0.2,0.2-0.3,0.6-0.3,1.2c0,0.5,0.1,1,0.4,1.4s0.5,0.8,0.9,1.1
				s0.7,0.7,1.1,1.1s0.8,0.8,1.1,1.2c0.4,0.4,0.6,0.9,0.9,1.5c0.2,0.5,0.4,1.2,0.4,1.9c0,1.2-0.3,2.2-0.9,2.9c-0.6,0.7-1.5,1-2.7,1
				c-1.2,0-2.1-0.3-2.7-1c-0.6-0.7-0.9-1.6-0.9-2.9v-1.1h2.3v1.2c0,0.6,0.1,0.9,0.3,1.2s0.5,0.3,0.9,0.3c0.4,0,0.7-0.1,0.9-0.3
				c0.2-0.2,0.3-0.6,0.3-1.2c0-0.5-0.1-1-0.4-1.4c-0.2-0.4-0.5-0.8-0.9-1.1c-0.4-0.4-0.7-0.7-1.1-1.1c-0.4-0.4-0.8-0.8-1.1-1.2
				c-0.4-0.4-0.6-0.9-0.9-1.5C57,43,56.9,42.4,56.9,41.6z"/>
		</g>
	</g>
</g>
</svg>
