<?xml version="1.0" encoding="utf-8"?>
<!-- Generator: Adobe Illustrator 21.0.1, SVG Export Plug-In . SVG Version: 6.00 Build 0)  -->
<svg version="1.1" xmlns="http://www.w3.org/2000/svg" xmlns:xlink="http://www.w3.org/1999/xlink" x="0px" y="0px"
	 viewBox="0 0 250 50" style="enable-background:new 0 0 250 50;" xml:space="preserve">
<style type="text/css">
	.st0{fill:#F9F9F9;}
</style>
<g id="Layer_1">
	<g id="Layer_1_1_">
		<g>
			<path class="st0" d="M68.7,27.5c-0.4,0.3-0.8,0.5-1.5,0.8c-0.5,0.1-1.1,0.4-1.7,0.5c-0.5,0.1-1.1,0.3-1.7,0.3
				c-0.5,0.1-1.1,0.1-1.6,0.1c-0.8,0-1.5-0.1-2.1-0.1c-0.8-0.1-1.5-0.4-2-0.8S57,27.5,56.6,27s-0.5-1.3-0.5-2.1c0-1.1,0.1-2,0.7-2.6
				c0.5-0.8,1.1-1.5,1.7-1.8c0.8-0.5,1.6-0.8,2.5-1.1c0.9-0.3,1.8-0.4,2.6-0.4s1.7,0.1,2.6,0.1c0.8,0.1,1.7,0.4,2.5,0.8
				c0.1-1.2,0.3-2.5,0.3-3.8c0-0.5,0-0.9,0-1.5s0-1,0-1.5c-0.8-0.3-1.5-0.4-2.2-0.5c-0.8-0.1-1.5-0.1-2.2-0.1
				c-1.8,0-3.7,0.3-5.5,0.8c-1.7,0.5-3.4,1.2-4.9,2.2c-1.5,1.1-2.5,2.2-3.4,3.8c-0.8,1.6-1.3,3.3-1.3,5.5c0,1.7,0.3,3.3,0.9,4.6
				c0.5,1.3,1.5,2.4,2.5,3.3c1.1,0.8,2.4,1.5,3.7,2c1.5,0.5,3,0.7,4.6,0.7c1.5,0,2.9-0.1,4.4-0.5c1.5-0.3,2.9-0.8,4.2-1.3
				c-0.1-1.1-0.1-2.1-0.5-3C69.5,29.5,69.2,28.5,68.7,27.5z"/>
			<path class="st0" d="M90.8,15.3c-1.1-1.1-2.4-2-4-2.5c-1.5-0.7-3-0.9-4.8-0.9s-3.2,0.3-4.8,0.9c-1.6,0.7-2.8,1.5-4,2.5
				c-1.1,1.1-2.1,2.4-2.6,3.8c-0.7,1.5-1.1,3-1.1,4.8c0,1.7,0.4,3.3,1.1,4.8s1.6,2.6,2.6,3.8c1.1,1.1,2.4,1.8,4,2.5s3,0.9,4.8,0.9
				c1.7,0,3.3-0.3,4.8-0.9c1.5-0.7,2.8-1.5,4-2.5c1.1-1.1,2.1-2.4,2.6-3.8c0.5-1.5,1.1-3,1.1-4.8c0-1.7-0.4-3.3-1.1-4.8
				C92.8,17.7,92,16.4,90.8,15.3z M86.8,26.3c-0.3,0.7-0.5,1.2-1.1,1.7c-0.5,0.5-0.9,0.8-1.6,1.1c-0.7,0.3-1.3,0.5-2.1,0.5
				s-1.6-0.1-2.2-0.5c-0.7-0.3-1.2-0.8-1.7-1.3S77.3,26.6,77,26c-0.3-0.8-0.4-1.5-0.4-2.2s0.1-1.5,0.4-2.1c0.3-0.7,0.5-1.2,1.1-1.7
				c0.5-0.5,0.9-0.8,1.6-1.1c0.7-0.3,1.3-0.5,2.1-0.5s1.6,0.1,2.2,0.5c0.7,0.3,1.2,0.8,1.7,1.3s0.8,1.2,1.1,1.8
				c0.3,0.8,0.4,1.5,0.4,2.2S87.1,25.6,86.8,26.3z"/>
			<path class="st0" d="M114.4,13.1c-0.5,0-1.1-0.1-1.6-0.1c-0.8,0-1.5,0-2.2,0.1c-0.8,0.1-1.5,0.1-2.2,0.3l0.3,11.2l-5.3-11.8
				c-0.4,0-0.8,0-1.1-0.1c-0.4,0-0.8,0-1.1,0c-1.7,0-3.6,0.1-5.3,0.5V35c0.8,0.1,1.5,0.1,2.4,0.3c0.8,0.1,1.6,0.1,2.4,0.1
				c0.5,0,1.1,0,1.5,0c0.5,0,1.1-0.1,1.5-0.1L103.2,25l5.5,10.4c0.8,0.1,1.5,0.1,2.1,0.3c0.8,0.1,1.5,0.1,2.1,0.1
				c1.1,0,2.2-0.1,3.3-0.1l-0.1-22.5C115.5,13.1,114.9,13.1,114.4,13.1z"/>
			<path class="st0" d="M136.6,13.1c-0.5,0-1.1-0.1-1.6-0.1c-0.8,0-1.5,0-2.2,0.1c-0.8,0.1-1.5,0.1-2.2,0.3l0.3,11.2l-5.3-11.8
				c-0.4,0-0.8,0-1.1-0.1c-0.4,0-0.8,0-1.1,0c-1.7,0-3.6,0.1-5.3,0.5V35c0.8,0.1,1.5,0.1,2.4,0.3c0.8,0.1,1.6,0.1,2.4,0.1
				c0.5,0,1.1,0,1.5,0s1.1-0.1,1.5-0.1L125.4,25l5.5,10.4c0.8,0.1,1.5,0.1,2.1,0.3c0.8,0.1,1.5,0.1,2.1,0.1c1.1,0,2.2-0.1,3.3-0.1
				l-0.1-22.5C137.7,13.1,137.3,13.1,136.6,13.1z"/>
			<path class="st0" d="M158,18c0.1-0.9,0.1-1.8,0.1-2.8c0-0.7,0-1.3-0.1-2l-17.7-0.1l0.8,22.1l16.6,0.1c0.1-0.7,0.1-1.3,0.1-2
				s0.1-1.3,0.1-2c0-0.4,0-0.8,0-1.1c0-0.4,0-0.8-0.1-1.1L148,29l-0.1-3.3l9.4-0.1c0.1-0.8,0.1-1.6,0.1-2.4s0-1.6-0.1-2.4L148,21
				v-3.2h10V18z"/>
			<path class="st0" d="M178.1,27.5c-0.4,0.3-0.8,0.5-1.5,0.8c-0.5,0.1-1.1,0.4-1.7,0.5c-0.5,0.1-1.1,0.3-1.7,0.3
				c-0.5,0.1-1.1,0.1-1.6,0.1c-0.8,0-1.5-0.1-2.1-0.1s-1.3-0.4-2-0.8c-0.5-0.4-1.1-0.8-1.5-1.3s-0.5-1.3-0.5-2.1
				c0-1.1,0.1-2,0.7-2.6c0.5-0.8,1.1-1.5,1.7-1.8c0.8-0.5,1.6-0.8,2.5-1.1c0.9-0.3,1.8-0.4,2.6-0.4s1.7,0.1,2.6,0.1
				c0.8,0.1,1.7,0.4,2.5,0.8c0.1-1.2,0.3-2.5,0.3-3.8c0-0.5,0-0.9,0-1.5s-0.1-0.9-0.1-1.5c-0.8-0.3-1.5-0.4-2.2-0.5
				c-0.8-0.1-1.5-0.1-2.2-0.1c-1.8,0-3.7,0.3-5.5,0.8c-1.7,0.5-3.4,1.2-4.9,2.2c-1.5,1.1-2.5,2.2-3.4,3.8c-0.8,1.6-1.3,3.3-1.3,5.5
				c0,1.7,0.3,3.3,0.9,4.6c0.5,1.3,1.5,2.4,2.5,3.3c1.1,0.8,2.4,1.5,3.7,2c1.5,0.5,3,0.7,4.6,0.7c1.5,0,2.9-0.1,4.4-0.5
				c1.5-0.3,2.9-0.8,4.2-1.3c-0.1-1.1-0.1-2.1-0.5-3C178.7,29.5,178.6,28.5,178.1,27.5z"/>
			<path class="st0" d="M200,17.6c0-2-0.4-3.7-0.9-5.5c-1.6-0.1-3.2-0.1-4.8-0.1s-3.2-0.1-4.8-0.1c-1.5,0-2.8,0-4.4,0.1
				c-1.5,0-2.8,0.1-4.4,0.1c-0.4,0.8-0.7,1.7-0.8,2.6c-0.1,0.9-0.4,1.8-0.4,2.6l6.2-0.1v17.7c0.5,0,1.1,0.1,1.5,0.1s0.9,0,1.5,0
				c0.8,0,1.6,0,2.4-0.1c0.8-0.1,1.6-0.1,2.4-0.3V17.4L200,17.6z"/>
		</g>
	</g>
</g>
<g id="Layer_2">
</g>
</svg>
