<?xml version="1.0" encoding="utf-8"?>
<!-- Generator: Adobe Illustrator 21.0.1, SVG Export Plug-In . SVG Version: 6.00 Build 0)  -->
<svg version="1.1" id="Layer_1" xmlns="http://www.w3.org/2000/svg" xmlns:xlink="http://www.w3.org/1999/xlink" x="0px" y="0px"
	 viewBox="0 0 330 60" style="enable-background:new 0 0 330 60;" xml:space="preserve">
<style type="text/css">
	.st0{fill:url(#SVGID_1_);}
	.st1{fill:url(#SVGID_2_);}
	.st2{fill:#008B8D;}
	.st3{fill:url(#SVGID_3_);}
	.st4{fill:url(#SVGID_4_);}
	.st5{fill:#FCFCFC;}
	.st6{fill:none;stroke:#FCFCFC;stroke-miterlimit:10;}
	.st7{fill:none;stroke:url(#SVGID_5_);stroke-width:0.75;stroke-miterlimit:10;}
	.st8{fill:none;stroke:url(#SVGID_6_);stroke-width:0.75;stroke-miterlimit:10;}
	.st9{fill:none;stroke:url(#SVGID_7_);stroke-width:0.75;stroke-miterlimit:10;}
	.st10{fill:none;stroke:url(#SVGID_8_);stroke-width:0.75;stroke-miterlimit:10;}
</style>
<g id="Layer_1_1_">
	<g>
		
			<linearGradient id="SVGID_1_" gradientUnits="userSpaceOnUse" x1="21.6977" y1="7.7291" x2="296.2231" y2="7.7291" gradientTransform="matrix(0.8815 2.643188e-02 -2.997190e-02 0.9996 22.0566 15.2215)">
			<stop  offset="0" style="stop-color:#00FFEE"/>
			<stop  offset="1" style="stop-color:#D585FF"/>
		</linearGradient>
		<path class="st0" d="M269.6,52.3L53.4,48.8c-7.1-0.2-12.7-6.4-12.6-13.9l0.4-19.6c0.1-7.5,6-13.6,13.1-13.4l216.2,3.6
			c7.1,0.1,12.8,6.4,12.6,13.8l-0.4,19.6C282.6,46.4,276.7,52.5,269.6,52.3z"/>
		
			<linearGradient id="SVGID_2_" gradientUnits="userSpaceOnUse" x1="31.1923" y1="13.379" x2="305.7177" y2="13.379" gradientTransform="matrix(0.8815 2.643188e-02 -2.997190e-02 0.9996 22.0566 15.2215)">
			<stop  offset="6.810900e-04" style="stop-color:#FC6767"/>
			<stop  offset="0.9997" style="stop-color:#EC008C"/>
		</linearGradient>
		<path class="st1" d="M277.9,58.2L61.7,54.7c-7.1-0.2-12.8-6.4-12.7-13.9l0.4-19.6c0.1-7.5,6.1-13.6,13.1-13.4l216.2,3.6
			c7.1,0.1,12.8,6.4,12.6,13.8l-0.4,19.6C290.8,52.4,285,58.4,277.9,58.2z"/>
		<path class="st2" d="M273.8,54.7L57.6,51.2c-7.1-0.1-12.8-6.4-12.6-13.8l0.4-19.6c0.1-7.5,6.1-13.6,13.1-13.4L274.7,8
			c7.1,0.1,12.8,6.4,12.6,13.8l-0.4,19.6C286.8,48.8,280.9,54.9,273.8,54.7z"/>
	</g>
</g>
<linearGradient id="SVGID_3_" gradientUnits="userSpaceOnUse" x1="380.9831" y1="-376.5866" x2="380.1583" y2="-373.5243" gradientTransform="matrix(1 0 0 -1 0 -284)">
	<stop  offset="0" style="stop-color:#A343FF"/>
	<stop  offset="1" style="stop-color:#4CABFD"/>
	<stop  offset="1" style="stop-color:#E93E3A"/>
</linearGradient>
<rect x="380.3" y="91" class="st3" width="0.7" height="0.7"/>
<linearGradient id="SVGID_4_" gradientUnits="userSpaceOnUse" x1="259" y1="-291.3" x2="259" y2="-291.3" gradientTransform="matrix(1 0 0 -1 0 -284)">
	<stop  offset="0" style="stop-color:#A343FF"/>
	<stop  offset="1" style="stop-color:#4CABFD"/>
	<stop  offset="1" style="stop-color:#E93E3A"/>
</linearGradient>
<path class="st4" d="M259,7.3"/>
<g>
	<g>
		<path class="st5" d="M108,32.3v2.2c0,1.4-0.4,2.4-1,3.2s-1.7,1.2-3,1.2s-2.3-0.4-3-1.2c-0.6-0.8-1-1.8-1-3.2v-8.9
			c0-1.4,0.4-2.4,1-3.2c0.6-0.8,1.7-1.2,3-1.2s2.3,0.4,3,1.2s1,1.8,1,3.2v1.5h-2.6v-1.8c0-0.6-0.1-1-0.4-1.3s-0.6-0.4-1-0.4
			s-0.8,0.1-1,0.4c-0.3,0.3-0.4,0.6-0.4,1.3v9.3c0,0.6,0.1,1,0.4,1.3s0.6,0.4,1,0.4s0.8-0.1,1-0.4s0.4-0.6,0.4-1.3v-2.4
			C105.4,32.2,108,32.2,108,32.3z"/>
		<path class="st5" d="M112.4,38.5h-2.7V21.4h2.7v7.3h3.1v-7.3h2.7v17.1h-2.7v-7.3h-3.1V38.5z"/>
		<path class="st5" d="M128.9,38.5h-2.7l-0.5-3.1h-3.3l-0.5,3.1h-2.4l2.7-17.1h4L128.9,38.5z M122.7,33.1h2.6l-1.3-8.6L122.7,33.1z"
			/>
		<path class="st5" d="M128.4,21.4h8.4v2.4H134v14.7h-2.7V24h-2.8L128.4,21.4L128.4,21.4z"/>
		<path class="st5" d="M147.7,29.5l-1,9.1H143l-2-17.1h2.6l1.7,13.4l1.3-13.5h2.6l1.3,13.6l1.4-13.6h2.3l-1.9,17.1h-3.6L147.7,29.5z
			"/>
		<path class="st5" d="M155.5,21.4h2.7v17.1h-2.7V21.4z"/>
		<path class="st5" d="M159.4,21.4h8.4v2.4H165v14.7h-2.7V24h-2.8C159.4,24,159.4,21.4,159.4,21.4z"/>
		<path class="st5" d="M171.6,38.5h-2.7V21.4h2.7v7.3h3.1v-7.3h2.7v17.1h-2.7v-7.3h-3.1V38.5z"/>
		<path class="st5" d="M185.8,21.4v13.3c0,0.6,0.1,1,0.4,1.3c0.3,0.3,0.6,0.4,1,0.4s0.8-0.1,1-0.4c0.3-0.3,0.4-0.6,0.4-1.3V21.4h2.6
			v13c0,1.4-0.4,2.4-1,3.2s-1.7,1.2-3,1.2s-2.3-0.4-3-1.2c-0.6-0.8-1-1.8-1-3.2v-13C183.2,21.4,185.8,21.4,185.8,21.4z"/>
		<path class="st5" d="M192.6,25.5c0-1.4,0.4-2.4,1-3.2c0.6-0.8,1.7-1.2,3-1.2s2.3,0.4,3,1.2s1,1.8,1,3.2v0.6H198v-0.8
			c0-0.6-0.1-1-0.4-1.3s-0.5-0.4-1-0.4c-0.4,0-0.8,0.1-1,0.4c-0.3,0.3-0.4,0.6-0.4,1.3s0.1,1.2,0.4,1.5c0.3,0.4,0.6,0.9,1,1.3
			s0.8,0.8,1.3,1.2c0.4,0.4,0.9,0.8,1.3,1.3c0.4,0.5,0.8,1,1,1.7c0.3,0.6,0.4,1.3,0.4,2.2c0,1.4-0.4,2.4-1,3.2s-1.7,1.2-3,1.2
			s-2.3-0.4-3-1.2c-0.6-0.8-1-1.8-1-3.2v-1.2h2.6v1.3c0,0.6,0.1,1,0.4,1.3c0.3,0.3,0.6,0.4,1,0.4s0.8-0.1,1-0.4
			c0.3-0.3,0.4-0.6,0.4-1.3c0-0.6-0.1-1.2-0.4-1.5c-0.3-0.4-0.6-0.9-1-1.3c-0.4-0.4-0.8-0.8-1.3-1.2c-0.4-0.4-0.9-0.8-1.3-1.3
			c-0.4-0.5-0.8-1-1-1.7C192.7,27,192.6,26.5,192.6,25.5z"/>
		<path class="st5" d="M208.4,35.9v2.6h-2.6v-2.6H208.4z"/>
	</g>
	<path class="st6" d="M229.6,19.7c-5.6-0.4-10.5,3.6-10.9,8.9c-0.2,3,1,5.7,3.1,7.7l-0.2,3.6l3.6-1.6c0.9,0.3,1.9,0.5,3,0.7
		c5.6,0.4,10.5-3.6,10.9-8.9C239.4,24.8,235.2,20.1,229.6,19.7z"/>
	<polygon class="st5" points="221.8,31.9 227.2,29.6 229.6,32.8 235.7,27.3 230.3,29.5 227.9,26.6 	"/>
</g>
<linearGradient id="SVGID_5_" gradientUnits="userSpaceOnUse" x1="-365.0741" y1="-207.1987" x2="-352.3634" y2="-207.1987" gradientTransform="matrix(0.9104 -0.4137 -0.4137 -0.9104 288.5985 -294.8806)">
	<stop  offset="0" style="stop-color:#A343FF"/>
	<stop  offset="1" style="stop-color:#4CABFD"/>
	<stop  offset="1" style="stop-color:#E93E3A"/>
</linearGradient>
<path class="st7" d="M53.9,45.9l-7.4,3.4c-1,0.4-2.1,0-2.5-1l-3.4-7.4c-0.4-1,0-2.1,1-2.5L49,35c1-0.4,2.1,0,2.5,1l3.4,7.4
	C55.3,44.3,54.8,45.5,53.9,45.9z"/>
<linearGradient id="SVGID_6_" gradientUnits="userSpaceOnUse" x1="-198.3545" y1="-439.2566" x2="-186.0677" y2="-439.2566" gradientTransform="matrix(0.3827 -0.9239 -0.9239 -0.3827 -63.0829 -295.9562)">
	<stop  offset="0" style="stop-color:#A343FF"/>
	<stop  offset="1" style="stop-color:#4CABFD"/>
	<stop  offset="1" style="stop-color:#E93E3A"/>
</linearGradient>
<path class="st8" d="M276,48.3l-3,7.2c-0.4,0.9-1.5,1.4-2.4,1l-7.2-3c-0.9-0.4-1.4-1.5-1-2.4l3-7.2c0.4-0.9,1.5-1.4,2.4-1l7.2,3
	C275.9,46.3,276.4,47.4,276,48.3z"/>
<linearGradient id="SVGID_7_" gradientUnits="userSpaceOnUse" x1="-127.5403" y1="-432.8688" x2="-115.2535" y2="-432.8688" gradientTransform="matrix(9.125579e-02 -0.9958 -0.9958 -9.125579e-02 -145.4716 -151.299)">
	<stop  offset="0" style="stop-color:#A343FF"/>
	<stop  offset="1" style="stop-color:#4CABFD"/>
	<stop  offset="1" style="stop-color:#E93E3A"/>
</linearGradient>
<path class="st9" d="M280.6,5.7l-0.7,7.8c-0.1,1-1,1.8-2,1.7l-7.8-0.7c-1-0.1-1.8-1-1.7-2l0.7-7.8c0.1-1,1-1.8,2-1.7l7.8,0.7
	C279.9,3.8,280.7,4.7,280.6,5.7z"/>
<linearGradient id="SVGID_8_" gradientUnits="userSpaceOnUse" x1="-305.7961" y1="-186.73" x2="-297.1761" y2="-186.73" gradientTransform="matrix(0.7331 -0.6801 -0.6801 -0.7331 148.9244 -327.8325)">
	<stop  offset="0" style="stop-color:#A343FF"/>
	<stop  offset="1" style="stop-color:#4CABFD"/>
	<stop  offset="1" style="stop-color:#E93E3A"/>
</linearGradient>
<path class="st10" d="M59.5,15.2l-3.9,3.6c-0.5,0.5-1.3,0.4-1.8-0.1l-3.6-3.9c-0.5-0.5-0.4-1.3,0.1-1.8l3.9-3.6
	C54.7,8.9,55.5,9,56,9.5l3.6,3.9C60.1,13.9,60,14.7,59.5,15.2z"/>
<g id="Layer_2">
</g>
</svg>
