<?xml version="1.0" encoding="utf-8"?>
<!-- Generator: Adobe Illustrator 21.0.1, SVG Export Plug-In . SVG Version: 6.00 Build 0)  -->
<svg version="1.1" id="Layer_1" xmlns="http://www.w3.org/2000/svg" xmlns:xlink="http://www.w3.org/1999/xlink" x="0px" y="0px"
	 viewBox="0 0 330 60" style="enable-background:new 0 0 330 60;" xml:space="preserve">
<style type="text/css">
	.st0{fill:url(#SVGID_1_);}
	.st1{fill:url(#SVGID_2_);}
	.st2{fill:#563594;}
	.st3{fill:url(#SVGID_3_);}
	.st4{fill:url(#SVGID_4_);}
	.st5{fill:#FFFFFF;}
	.st6{fill:#FCFCFC;}
	.st7{fill:none;stroke:url(#SVGID_5_);stroke-width:0.75;stroke-miterlimit:10;}
	.st8{fill:none;stroke:url(#SVGID_6_);stroke-miterlimit:10;}
	.st9{fill:none;stroke:url(#SVGID_7_);stroke-width:0.75;stroke-miterlimit:10;}
	.st10{fill:none;stroke:url(#SVGID_8_);stroke-width:0.75;stroke-miterlimit:10;}
	.st11{fill:none;stroke:url(#SVGID_9_);stroke-width:0.75;stroke-miterlimit:10;}
	.st12{fill:none;stroke:url(#SVGID_10_);stroke-width:0.75;stroke-miterlimit:10;}
</style>
<g id="Layer_2">
	<g id="Layer_1_1_">
		<g>
			
				<linearGradient id="SVGID_1_" gradientUnits="userSpaceOnUse" x1="56.0742" y1="7.1962" x2="330.4896" y2="7.1962" gradientTransform="matrix(-0.8819 5.448807e-03 6.178497e-03 1 340.5612 18.9496)">
				<stop  offset="0" style="stop-color:#00FFEE"/>
				<stop  offset="1" style="stop-color:#D585FF"/>
			</linearGradient>
			<path class="st0" d="M49.2,36.1l0.1-19.6c0-7.4,5.8-13.6,12.9-13.5l216.2,1.5c7.1,0,12.8,6.2,12.7,13.7L291,37.8
				c-0.1,7.5-5.8,13.6-12.9,13.6L62,49.8C54.9,49.9,49.1,43.6,49.2,36.1z"/>
			
				<linearGradient id="SVGID_2_" gradientUnits="userSpaceOnUse" x1="65.5261" y1="12.9443" x2="339.9469" y2="12.9443" gradientTransform="matrix(-0.8819 5.448807e-03 6.178497e-03 1 340.5612 18.9496)">
				<stop  offset="0" style="stop-color:#FB4ECB"/>
				<stop  offset="1" style="stop-color:#AC26AD"/>
			</linearGradient>
			<path class="st1" d="M40.9,41.9L41,22.3c0-7.4,5.8-13.6,12.9-13.5l216.2,1.5c7,0,12.8,6.2,12.7,13.7l-0.1,19.6
				c-0.1,7.5-5.9,13.6-13,13.6L53.5,55.6C46.5,55.6,40.7,49.4,40.9,41.9z"/>
			<path class="st2" d="M45,38.5L45.1,19c0-7.4,5.8-13.6,12.9-13.5L274.2,7c7,0,12.8,6.2,12.7,13.7l-0.1,19.6
				c0,7.4-5.8,13.6-12.9,13.5L57.7,52.1C50.6,52.2,44.9,45.9,45,38.5z"/>
		</g>
	</g>
</g>
<g id="Layer_1_2_">
	
		<linearGradient id="SVGID_3_" gradientUnits="userSpaceOnUse" x1="380.9831" y1="1158.5867" x2="380.1583" y2="1155.5243" gradientTransform="matrix(1 0 0 1 0 -1066)">
		<stop  offset="0" style="stop-color:#A343FF"/>
		<stop  offset="1" style="stop-color:#4CABFD"/>
		<stop  offset="1" style="stop-color:#E93E3A"/>
	</linearGradient>
	<rect x="380.3" y="91" class="st3" width="0.7" height="0.7"/>
	
		<linearGradient id="SVGID_4_" gradientUnits="userSpaceOnUse" x1="259" y1="1073.3" x2="259" y2="1073.3" gradientTransform="matrix(1 0 0 1 0 -1066)">
		<stop  offset="0" style="stop-color:#A343FF"/>
		<stop  offset="1" style="stop-color:#4CABFD"/>
		<stop  offset="1" style="stop-color:#E93E3A"/>
	</linearGradient>
	<path class="st4" d="M259,7.3"/>
	<g>
		<path class="st5" d="M85.4,27.1v11h-2.2V22.9h3.1l2.5,9.1v-9.1h2.1v15.2h-2.4L85.4,27.1z"/>
		<path class="st5" d="M94.9,29.3h3.3v2.2h-3.3V36H99v2.2h-6.6V22.9H99V25h-4.1V29.3z"/>
		<path class="st5" d="M103,29.3h3.3v2.2H103V36h4.1v2.2h-6.6V22.9h6.6V25H103V29.3z"/>
		<path class="st5" d="M108.6,22.9h3.8c1.2,0,2.1,0.4,2.7,1s0.9,1.6,0.9,2.8v7.7c0,1.2-0.3,2.2-0.9,2.8s-1.5,1-2.7,1h-3.8
			C108.6,38.1,108.6,22.9,108.6,22.9z M110.9,25v10.9h1.3c0.3,0,0.7-0.1,0.9-0.4c0.2-0.3,0.4-0.6,0.4-1.1v-7.9c0-0.5-0.1-1-0.4-1.1
			c-0.2-0.2-0.5-0.4-0.9-0.4C112.2,25,110.9,25,110.9,25z"/>
		<path class="st5" d="M123.2,38.1h-2.4V22.9h2.4v6.6h2.7v-6.6h2.5v15.2h-2.5v-6.5h-2.7C123.2,31.6,123.2,38.1,123.2,38.1z"/>
		<path class="st5" d="M132.4,29.3h3.3v2.2h-3.3V36h4.1v2.2H130V22.9h6.6V25h-4.1v4.3H132.4z"/>
		<path class="st5" d="M138,22.9h2.5v13h3.9v2.2h-6.3L138,22.9L138,22.9z"/>
		<path class="st5" d="M149,22.9c1.2,0,2.1,0.4,2.7,1c0.6,0.6,0.9,1.6,0.9,2.8v2c0,1.2-0.3,2.2-0.9,2.8c-0.6,0.6-1.5,1-2.7,1h-1.1
			v5.7h-2.4V22.9H149z M147.8,25v5.2h1.1c0.4,0,0.7-0.1,0.9-0.3c0.2-0.2,0.3-0.6,0.3-1.1v-2.3c0-0.5-0.1-1-0.3-1.1
			c-0.2-0.2-0.5-0.3-0.9-0.3L147.8,25L147.8,25z"/>
		<path class="st5" d="M155.5,34.8c-0.1-0.3-0.1-0.6-0.1-1c0-0.5,0.1-1.1,0.2-1.4c0.1-0.4,0.3-0.8,0.4-1.1c0.2-0.3,0.4-0.7,0.6-1
			c0.3-0.4,0.4-0.6,0.6-1.1c0.2-0.4,0.4-0.8,0.4-1.2s0.2-1.1,0.2-1.7c0-0.5-0.1-1-0.4-1.1c-0.2-0.3-0.5-0.4-0.9-0.4
			s-0.7,0.1-0.9,0.4s-0.4,0.6-0.4,1.1V28h-2.3v-1.5c0-1.2,0.3-2.2,0.9-2.8c0.6-0.6,1.5-1,2.6-1s2,0.4,2.6,1s0.9,1.6,0.9,2.8
			c0,0.7-0.1,1.2-0.2,1.8c-0.2,0.5-0.4,1-0.5,1.3c-0.2,0.3-0.4,0.8-0.7,1.1c-0.3,0.3-0.4,0.6-0.7,1c-0.2,0.4-0.3,0.7-0.5,1
			c-0.2,0.4-0.2,0.8-0.2,1.2s0,0.6,0.1,0.9C157.4,34.8,155.5,34.8,155.5,34.8z M157.6,35.8v2.3h-2.3v-2.3H157.6z"/>
		<path class="st6" d="M170,33.7l1.6-10.9h3.3V38h-2.3V27.1L170.9,38h-2.3l-1.8-10.8V38h-2.1V22.9h3.3L170,33.7z"/>
		<path class="st6" d="M179,29.3h3.3v2.2H179V36h4.1v2.2h-6.6V22.9h6.6V25H179V29.3z"/>
		<path class="st6" d="M184.3,26.5c0-1.2,0.3-2.2,0.9-2.8c0.6-0.6,1.5-1,2.6-1s2,0.4,2.6,1s0.9,1.6,0.9,2.8v0.6H189v-0.8
			c0-0.5-0.1-1-0.3-1.1c-0.2-0.3-0.5-0.3-0.9-0.3s-0.7,0.1-0.9,0.3c-0.2,0.3-0.3,0.6-0.3,1.1s0.1,1,0.3,1.4c0.3,0.4,0.5,0.8,0.9,1.1
			c0.3,0.3,0.7,0.7,1.1,1c0.4,0.4,0.8,0.7,1.1,1.1s0.6,0.9,0.9,1.4c0.3,0.5,0.3,1.1,0.3,1.9c0,1.2-0.3,2.2-0.9,2.8
			c-0.6,0.7-1.5,1-2.6,1s-2.1-0.4-2.6-1s-0.9-1.6-0.9-2.8v-1h2.3v1.2c0,0.5,0.1,1,0.3,1.1c0.3,0.2,0.5,0.4,0.9,0.4s0.7-0.1,0.9-0.4
			c0.2-0.3,0.3-0.6,0.3-1.1s-0.1-1-0.3-1.4s-0.5-0.8-0.9-1.1c-0.3-0.4-0.7-0.7-1.1-1.1c-0.4-0.3-0.8-0.7-1.1-1.1s-0.6-0.9-0.9-1.4
			C184.4,27.9,184.3,27.2,184.3,26.5z"/>
		<path class="st6" d="M192.4,26.5c0-1.2,0.3-2.2,0.9-2.8c0.6-0.6,1.5-1,2.6-1s2,0.4,2.6,1s0.9,1.6,0.9,2.8v0.6h-2.3v-0.8
			c0-0.5-0.1-1-0.3-1.1c-0.2-0.3-0.5-0.3-0.9-0.3s-0.7,0.1-0.9,0.3c-0.2,0.3-0.4,0.6-0.4,1.1s0.1,1,0.4,1.4s0.5,0.8,0.9,1.1
			c0.3,0.3,0.7,0.7,1.1,1c0.4,0.4,0.8,0.7,1.1,1.1c0.4,0.4,0.6,0.9,0.9,1.4c0.3,0.5,0.3,1.1,0.3,1.9c0,1.2-0.3,2.2-0.9,2.8
			c-0.6,0.7-1.5,1-2.6,1s-2.1-0.4-2.6-1s-0.9-1.6-0.9-2.8v-1h2.3v1.2c0,0.5,0.1,1,0.4,1.1c0.3,0.2,0.5,0.4,0.9,0.4
			c0.3,0,0.7-0.1,0.9-0.4c0.2-0.3,0.3-0.6,0.3-1.1s-0.1-1-0.3-1.4c-0.3-0.4-0.5-0.8-0.9-1.1c-0.4-0.4-0.7-0.7-1.1-1.1
			c-0.4-0.3-0.8-0.7-1.1-1.1s-0.6-0.9-0.9-1.4C192.5,27.9,192.4,27.2,192.4,26.5z"/>
		<path class="st6" d="M208.6,38.1h-2.4l-0.4-2.8h-3l-0.4,2.8h-2.2l2.5-15.2h3.5L208.6,38.1z M203.2,33.3h2.3l-1.1-7.7L203.2,33.3z"
			/>
		<path class="st6" d="M213.4,29.6h3.3v4.8c0,1.2-0.3,2.2-0.9,2.8c-0.6,0.6-1.5,1-2.6,1s-2.1-0.4-2.6-1s-0.9-1.6-0.9-2.8v-7.9
			c0-1.2,0.3-2.2,0.9-2.8c0.6-0.6,1.5-1,2.6-1s2.1,0.4,2.6,1s0.9,1.6,0.9,2.8V28h-2.3v-1.7c0-0.5-0.1-1-0.4-1.1
			c-0.3-0.3-0.5-0.3-0.9-0.3c-0.3,0-0.7,0.1-0.9,0.3c-0.2,0.3-0.3,0.6-0.3,1.1v8.2c0,0.5,0.1,1,0.3,1.1c0.3,0.2,0.5,0.4,0.9,0.4
			s0.7-0.1,0.9-0.4c0.3-0.2,0.4-0.6,0.4-1.1v-2.8h-1.1v-2.1H213.4z"/>
		<path class="st6" d="M220.6,29.3h3.3v2.2h-3.3V36h4.1v2.2h-6.6V22.9h6.6V25h-4.1V29.3z"/>
		<path class="st6" d="M231.9,22.9v11.7c0,0.5,0.1,1,0.3,1.1c0.3,0.2,0.5,0.4,0.9,0.4s0.7-0.1,0.9-0.4c0.3-0.2,0.3-0.6,0.3-1.1V22.9
			h2.3v11.6c0,1.2-0.3,2.2-0.9,2.8c-0.6,0.6-1.5,1-2.6,1s-2.1-0.4-2.6-1s-0.9-1.6-0.9-2.8V22.9H231.9z"/>
		<path class="st6" d="M237.9,26.5c0-1.2,0.3-2.2,0.9-2.8c0.6-0.6,1.5-1,2.6-1s2,0.4,2.6,1s0.9,1.6,0.9,2.8v0.6h-2.3v-0.8
			c0-0.5-0.1-1-0.4-1.1s-0.5-0.3-0.9-0.3c-0.3,0-0.7,0.1-0.9,0.3c-0.2,0.3-0.3,0.6-0.3,1.1s0.1,1,0.3,1.4c0.3,0.4,0.5,0.8,0.9,1.1
			c0.4,0.3,0.7,0.7,1.1,1c0.4,0.4,0.8,0.7,1.1,1.1s0.6,0.9,0.9,1.4c0.3,0.5,0.3,1.1,0.3,1.9c0,1.2-0.3,2.2-0.9,2.8
			c-0.6,0.6-1.5,1-2.6,1s-2.1-0.4-2.6-1s-0.9-1.6-0.9-2.8v-1h2.3v1.2c0,0.5,0.1,1,0.3,1.1c0.3,0.2,0.5,0.4,0.9,0.4s0.7-0.1,0.9-0.4
			c0.3-0.2,0.4-0.6,0.4-1.1s-0.1-1-0.4-1.4s-0.5-0.8-0.9-1.1c-0.3-0.4-0.7-0.7-1.1-1.1c-0.4-0.3-0.8-0.7-1.1-1.1s-0.6-0.9-0.9-1.4
			C238.1,27.9,237.9,27.2,237.9,26.5z"/>
		<path class="st6" d="M246.6,34.8l-0.3-5.5v-6.4h2.4v6.4l-0.3,5.5H246.6z M248.7,35.8v2.3h-2.3v-2.3H248.7z"/>
	</g>
	
		<linearGradient id="SVGID_5_" gradientUnits="userSpaceOnUse" x1="-136.2405" y1="-439.0757" x2="-120.3992" y2="-439.0757" gradientTransform="matrix(9.125579e-02 -0.9958 -0.9958 -9.125579e-02 -145.4716 -151.299)">
		<stop  offset="0" style="stop-color:#A343FF"/>
		<stop  offset="1" style="stop-color:#4CABFD"/>
		<stop  offset="1" style="stop-color:#E93E3A"/>
	</linearGradient>
	<path class="st7" d="M288,12.1l-0.9,10.2c-0.1,1.3-1.3,2.4-2.6,2.2l-10.2-0.9c-1.3-0.1-2.4-1.3-2.2-2.6l0.9-10.2
		c0.1-1.3,1.3-2.4,2.6-2.2l10.2,0.9C287,9.6,288.1,10.8,288,12.1z"/>
	
		<linearGradient id="SVGID_6_" gradientUnits="userSpaceOnUse" x1="259.8224" y1="647.6" x2="268.8224" y2="647.6" gradientTransform="matrix(1 0 0 -1 0 692)">
		<stop  offset="0" style="stop-color:#A343FF"/>
		<stop  offset="1" style="stop-color:#4CABFD"/>
		<stop  offset="1" style="stop-color:#E93E3A"/>
	</linearGradient>
	<circle class="st8" cx="264.3" cy="44.4" r="4"/>
	
		<linearGradient id="SVGID_7_" gradientUnits="userSpaceOnUse" x1="-154.6153" y1="-226.3439" x2="-144.0109" y2="-226.3439" gradientTransform="matrix(-0.7407 -0.6718 -0.6718 0.7407 -200.9175 115.6869)">
		<stop  offset="0" style="stop-color:#A343FF"/>
		<stop  offset="1" style="stop-color:#4CABFD"/>
		<stop  offset="1" style="stop-color:#E93E3A"/>
	</linearGradient>
	<path class="st9" d="M62.6,42.5l5,4.5c0.7,0.6,0.7,1.6,0.1,2.2l-4.5,5c-0.6,0.7-1.6,0.7-2.2,0.1l-5-4.5c-0.7-0.6-0.7-1.6-0.1-2.2
		l4.5-5C60.9,42,61.9,41.9,62.6,42.5z"/>
	
		<linearGradient id="SVGID_8_" gradientUnits="userSpaceOnUse" x1="-132.5322" y1="-255.4593" x2="-123.3292" y2="-255.4593" gradientTransform="matrix(-0.9795 -0.2015 -0.2015 0.9795 -131.9766 252.6854)">
		<stop  offset="0" style="stop-color:#A343FF"/>
		<stop  offset="1" style="stop-color:#4CABFD"/>
		<stop  offset="1" style="stop-color:#E93E3A"/>
	</linearGradient>
	<path class="st10" d="M42.9,23.5l5.6,1.1c0.7,0.2,1.2,0.9,1.1,1.6l-1.2,5.7c-0.2,0.7-0.9,1.2-1.6,1.1l-5.6-1.1
		c-0.7-0.2-1.2-0.9-1.1-1.6l1.1-5.6C41.4,23.9,42.2,23.4,42.9,23.5z"/>
	
		<linearGradient id="SVGID_9_" gradientUnits="userSpaceOnUse" x1="-68.7126" y1="-535.3348" x2="-52.8689" y2="-535.3348" gradientTransform="matrix(-0.5331 -0.846 -0.846 0.5331 -153.5982 276.5328)">
		<stop  offset="0" style="stop-color:#A343FF"/>
		<stop  offset="1" style="stop-color:#4CABFD"/>
		<stop  offset="1" style="stop-color:#E93E3A"/>
	</linearGradient>
	<path class="st11" d="M335.4,34.2l5.5,8.7c0.7,1.1,0.4,2.7-0.7,3.4l-8.7,5.5c-1.1,0.7-2.7,0.4-3.4-0.7l-5.5-8.7
		c-0.7-1.1-0.4-2.7,0.7-3.4l8.7-5.5C333.2,32.8,334.7,33.1,335.4,34.2z"/>
	
		<linearGradient id="SVGID_10_" gradientUnits="userSpaceOnUse" x1="-140.8741" y1="-256.3489" x2="-129.2893" y2="-256.3489" gradientTransform="matrix(-0.7407 -0.6718 -0.6718 0.7407 -200.9175 115.6869)">
		<stop  offset="0" style="stop-color:#A343FF"/>
		<stop  offset="1" style="stop-color:#4CABFD"/>
		<stop  offset="1" style="stop-color:#E93E3A"/>
	</linearGradient>
	<path class="st12" d="M72.3,10.1l5.4,5c0.7,0.6,0.8,1.8,0.1,2.5L73,23c-0.6,0.7-1.8,0.8-2.5,0.1l-5.4-5c-0.7-0.6-0.8-1.8-0.1-2.5
		l5-5.4C70.5,9.6,71.6,9.4,72.3,10.1z"/>
</g>
</svg>
