<?xml version="1.0" encoding="utf-8"?>
<!-- Generator: Adobe Illustrator 21.0.1, SVG Export Plug-In . SVG Version: 6.00 Build 0)  -->
<svg version="1.1" id="Layer_1" xmlns="http://www.w3.org/2000/svg" xmlns:xlink="http://www.w3.org/1999/xlink" x="0px" y="0px"
	 viewBox="0 0 1337 768" style="enable-background:new 0 0 1337 768;" xml:space="preserve">
<style type="text/css">
	.st0{opacity:0.22;enable-background:new    ;}
	.st1{enable-background:new    ;}
	.st2{fill:#232323;}
	.st3{fill:url(#SVGID_1_);}
	.st4{fill:url(#SVGID_2_);}
	.st5{fill:url(#SVGID_3_);}
	.st6{fill:url(#SVGID_4_);}
	.st7{fill:url(#SVGID_5_);}
	.st8{fill:url(#SVGID_6_);}
	.st9{fill:url(#SVGID_7_);}
	.st10{fill:url(#SVGID_8_);}
	.st11{fill:url(#SVGID_9_);}
	.st12{fill:url(#SVGID_10_);}
	.st13{fill:url(#SVGID_11_);}
	.st14{opacity:0.49;fill:none;stroke:#000000;stroke-miterlimit:10;enable-background:new    ;}
	.st15{fill:url(#SVGID_12_);}
	.st16{fill:url(#SVGID_13_);}
	.st17{fill:#8C8C8C;}
	.st18{fill:url(#SVGID_14_);}
	.st19{fill:url(#SVGID_15_);}
	.st20{opacity:0.49;enable-background:new    ;}
	.st21{fill:none;stroke:#000000;stroke-miterlimit:10;}
	.st22{fill:url(#SVGID_16_);}
	.st23{fill:url(#SVGID_17_);}
	.st24{fill:url(#SVGID_18_);}
	.st25{fill:url(#SVGID_19_);}
	.st26{fill:url(#SVGID_20_);}
	.st27{fill:url(#SVGID_21_);}
</style>
<path class="st0" d="M-154.6,96.5c-1.4,5.5,4,11.5,4.3,16.9c0.3,5.5-4.2,12.2-2.2,17.3c2,5.1,9.9,6.9,13.4,11.1s3.7,12.3,8.3,15.3
	c4.5,2.9,11.9-0.3,17.4,1.1c5.5,1.4,10.4,7.8,15.7,7.5c5.5-0.3,9.6-7.3,14.7-9.3s12.9,0.3,17.1-3.2s3.4-11.5,6.4-16.2
	c2.9-4.5,10.5-7.2,11.9-12.7s-4-11.5-4.3-16.9c-0.3-5.5,4.2-12.2,2.2-17.3s-9.9-6.9-13.4-11.1s-3.7-12.3-8.3-15.3
	c-4.5-2.9-11.9,0.3-17.4-1.1c-5.5-1.4-10.4-7.8-15.7-7.5c-5.5,0.4-9.6,7.4-14.6,9.4c-5.1,2-12.9-0.3-17.1,3.2s-3.4,11.5-6.4,16.2
	C-145.5,88.4-153.2,91.1-154.6,96.5z"/>
<g class="st1">
	<path class="st2" d="M97.2,252.6l-6.7-22.4H96l4,15.3l4-15.3h5l-6.7,22.4v11.1H97v-11.1H97.2z"/>
	<path class="st2" d="M110.1,238.2c0-2.7,0.7-4.8,2.1-6.3s3.4-2.2,5.9-2.2s4.6,0.7,5.9,2.2c1.4,1.5,2.1,3.5,2.1,6.3v17.5
		c0,2.7-0.7,4.8-2.1,6.3s-3.4,2.2-5.9,2.2s-4.6-0.7-5.9-2.2c-1.4-1.5-2.1-3.5-2.1-6.3V238.2z M115.3,256c0,1.2,0.2,2.1,0.7,2.6
		s1.2,0.7,2,0.7s1.5-0.2,2-0.7s0.7-1.4,0.7-2.6v-18.1c0-1.2-0.2-2.1-0.7-2.6s-1.2-0.7-2-0.7s-1.5,0.2-2,0.7s-0.7,1.4-0.7,2.6V256z"
		/>
	<path class="st2" d="M134.5,230.2v25.9c0,1.2,0.2,2.1,0.7,2.5c0.5,0.5,1.2,0.7,2,0.7s1.5-0.2,2-0.7s0.7-1.3,0.7-2.5v-25.9h5v25.6
		c0,2.7-0.7,4.8-2,6.3s-3.3,2.2-5.9,2.2s-4.5-0.7-5.9-2.2c-1.3-1.5-2-3.5-2-6.3v-25.6H134.5z"/>
	<path class="st2" d="M159.6,263.8c-0.1-0.2-0.1-0.4-0.2-0.6c-0.1-0.2-0.1-0.4-0.2-0.7s-0.1-0.7-0.1-1.1s0-1,0-1.7v-5.3
		c0-1.6-0.3-2.7-0.8-3.3s-1.4-1-2.6-1h-1.8v13.7h-5.3v-33.6h8c2.7,0,4.7,0.6,6,1.9c1.2,1.3,1.8,3.2,1.8,5.8v2.6
		c0,3.5-1.2,5.7-3.5,6.8c1.3,0.5,2.3,1.4,2.8,2.7c0.5,1.2,0.7,2.7,0.7,4.5v5.2c0,0.8,0,1.6,0.1,2.2s0.2,1.3,0.5,1.9L159.6,263.8
		L159.6,263.8z M153.8,235v10.3h2.1c1,0,1.8-0.3,2.3-0.8c0.6-0.5,0.8-1.4,0.8-2.8v-3.3c0-1.2-0.2-2.1-0.6-2.6
		c-0.4-0.5-1.1-0.8-2-0.8L153.8,235L153.8,235z"/>
	<path class="st2" d="M192.3,263.8H187l-0.9-6.1h-6.5l-0.9,6.1h-4.8l5.4-33.6h7.7L192.3,263.8z M180.3,253.1h5.1l-2.5-17
		L180.3,253.1z"/>
	<path class="st2" d="M194.8,230.2h8.3c2.7,0,4.6,0.7,5.9,2.1c1.3,1.4,1.9,3.5,1.9,6.2v17c0,2.7-0.6,4.8-1.9,6.2
		c-1.3,1.4-3.3,2.1-5.9,2.1h-8.3V230.2z M200.1,235v24h3c0.8,0,1.5-0.2,2-0.7s0.7-1.3,0.7-2.5v-17.5c0-1.2-0.2-2.1-0.7-2.5
		s-1.1-0.7-2-0.7L200.1,235L200.1,235z"/>
	<path class="st2" d="M222.3,257.6l4-27.4h4.8l-5.2,33.6H218l-5.2-33.6h5.3L222.3,257.6z"/>
	<path class="st2" d="M238.8,244.3h7.2v4.8h-7.2v9.8h9.1v4.8h-14.4v-33.6H248v4.8h-9.1L238.8,244.3L238.8,244.3z"/>
	<path class="st2" d="M255.9,239.4v24.3h-4.7v-33.6h6.6l5.4,20.1v-20.1h4.7v33.6h-5.4L255.9,239.4z"/>
	<path class="st2" d="M270.3,230.2h16.3v4.8H281v28.8h-5.3V235h-5.5L270.3,230.2L270.3,230.2z"/>
	<path class="st2" d="M294,230.2v25.9c0,1.2,0.2,2.1,0.7,2.5c0.5,0.5,1.2,0.7,2,0.7s1.5-0.2,2-0.7s0.7-1.3,0.7-2.5v-25.9h5v25.6
		c0,2.7-0.7,4.8-2,6.3s-3.3,2.2-5.9,2.2s-4.5-0.7-5.9-2.2c-1.3-1.5-2-3.5-2-6.3v-25.6H294z"/>
	<path class="st2" d="M319.1,263.8c-0.1-0.2-0.1-0.4-0.2-0.6s-0.1-0.4-0.2-0.7s-0.1-0.7-0.1-1.1s0-1,0-1.7v-5.3
		c0-1.6-0.3-2.7-0.8-3.3s-1.4-1-2.6-1h-1.8v13.7H308v-33.6h8c2.7,0,4.7,0.6,6,1.9c1.2,1.3,1.8,3.2,1.8,5.8v2.6
		c0,3.5-1.2,5.7-3.5,6.8c1.3,0.5,2.3,1.4,2.8,2.7c0.5,1.2,0.7,2.7,0.7,4.5v5.2c0,0.8,0,1.6,0.1,2.2s0.2,1.3,0.5,1.9L319.1,263.8
		L319.1,263.8z M313.3,235v10.3h2.1c1,0,1.8-0.3,2.3-0.8c0.6-0.5,0.8-1.4,0.8-2.8v-3.3c0-1.2-0.2-2.1-0.6-2.6s-1.1-0.8-2-0.8
		L313.3,235L313.3,235z"/>
	<path class="st2" d="M332.6,244.3h7.2v4.8h-7.2v9.8h9.1v4.8h-14.4v-33.6h14.4v4.8h-9.1V244.3z"/>
</g>
<g class="st1">
	
		<linearGradient id="SVGID_1_" gradientUnits="userSpaceOnUse" x1="98.1" y1="476.3999" x2="111.7" y2="476.3999" gradientTransform="matrix(1 0 0 -1 0 768)">
		<stop  offset="0" style="stop-color:#00FFEE"/>
		<stop  offset="1" style="stop-color:#D585FF"/>
	</linearGradient>
	<path class="st3" d="M104.9,275.4c1.2,0,2.2,0.2,3.1,0.6c0.8,0.4,1.5,0.9,2.1,1.7c0.5,0.7,0.9,1.5,1.2,2.5c0.3,1,0.4,2,0.4,3.2v0.7
		h-2v-0.8c0-0.8-0.1-1.6-0.2-2.3c-0.2-0.7-0.4-1.3-0.8-1.9c-0.4-0.5-0.9-0.9-1.5-1.2c-0.6-0.3-1.3-0.5-2.2-0.5
		c-1.7,0-2.9,0.6-3.6,1.7s-1.1,2.5-1.1,4.2c0,1.3,0.3,2.4,0.8,3.3c0.6,0.9,1.3,1.7,2.1,2.5c0.9,0.7,1.8,1.4,2.8,2.1s1.9,1.4,2.8,2.2
		c0.9,0.8,1.6,1.7,2.1,2.7c0.6,1,0.8,2.3,0.8,3.7c0,1.1-0.1,2.2-0.4,3.2s-0.7,1.8-1.2,2.5c-0.6,0.7-1.3,1.3-2.1,1.7
		c-0.9,0.4-1.9,0.6-3.1,0.6s-2.2-0.2-3.1-0.6s-1.6-0.9-2.1-1.7c-0.6-0.7-1-1.5-1.2-2.5c-0.3-1-0.4-2-0.4-3.2v-1.6h2v1.8
		c0,1.7,0.4,3.1,1.1,4.2s2,1.7,3.7,1.7s3-0.5,3.7-1.7c0.7-1.1,1.1-2.5,1.1-4.2c0-1.3-0.3-2.4-0.8-3.3c-0.6-0.9-1.3-1.7-2.1-2.5
		c-0.9-0.7-1.8-1.4-2.8-2.1s-1.9-1.4-2.8-2.2c-0.9-0.8-1.6-1.7-2.1-2.8c-0.6-1-0.8-2.3-0.8-3.8c0-2.4,0.5-4.3,1.6-5.7
		C100.8,276.2,102.6,275.4,104.9,275.4z"/>
	
		<linearGradient id="SVGID_2_" gradientUnits="userSpaceOnUse" x1="114" y1="476.55" x2="129" y2="476.55" gradientTransform="matrix(1 0 0 -1 0 768)">
		<stop  offset="0" style="stop-color:#00FFEE"/>
		<stop  offset="1" style="stop-color:#D585FF"/>
	</linearGradient>
	<path class="st4" d="M120.4,307.3v-29.8H114v-1.9h15v1.9h-6.5v29.8H120.4z"/>
	
		<linearGradient id="SVGID_3_" gradientUnits="userSpaceOnUse" x1="129.3" y1="476.55" x2="146.3" y2="476.55" gradientTransform="matrix(1 0 0 -1 0 768)">
		<stop  offset="0" style="stop-color:#00FFEE"/>
		<stop  offset="1" style="stop-color:#D585FF"/>
	</linearGradient>
	<path class="st5" d="M132.8,300.3l-1.6,7h-1.9l6.9-31.7h3l7.1,31.7h-2.1l-1.6-7H132.8z M133.1,298.5h9.2l-4.7-20.5L133.1,298.5z"/>
	
		<linearGradient id="SVGID_4_" gradientUnits="userSpaceOnUse" x1="149.5" y1="476.45" x2="163.6" y2="476.45" gradientTransform="matrix(1 0 0 -1 0 768)">
		<stop  offset="0" style="stop-color:#00FFEE"/>
		<stop  offset="1" style="stop-color:#D585FF"/>
	</linearGradient>
	<path class="st6" d="M156.1,275.7c2.4,0,4.1,0.6,5.2,1.9c1.1,1.3,1.6,3,1.6,5.2v2.8c0,3.7-1.5,5.9-4.6,6.6c1.6,0.4,2.8,1.1,3.5,2.2
		s1.1,2.5,1.1,4.3v4.9c0,0.7,0,1.3,0.1,2s0.3,1.3,0.6,1.8h-2.2c-0.3-0.5-0.5-1-0.5-1.6c-0.1-0.6-0.1-1.3-0.1-2.2v-5
		c0-1.1-0.1-1.9-0.4-2.6c-0.3-0.7-0.7-1.2-1.2-1.7c-0.5-0.4-1.2-0.7-1.9-0.9c-0.7-0.2-1.5-0.2-2.4-0.2h-3.3v14.2h-2.1v-31.6
		L156.1,275.7L156.1,275.7z M154.9,291.3c0.9,0,1.8-0.1,2.5-0.2c0.7-0.2,1.3-0.4,1.8-0.8s0.9-0.9,1.2-1.6s0.4-1.6,0.4-2.6v-3
		c0-1.7-0.4-3.1-1.1-4c-0.7-0.9-1.9-1.4-3.7-1.4h-4.5v13.7h3.4L154.9,291.3L154.9,291.3z"/>
	
		<linearGradient id="SVGID_5_" gradientUnits="userSpaceOnUse" x1="165.9" y1="476.55" x2="180.9" y2="476.55" gradientTransform="matrix(1 0 0 -1 0 768)">
		<stop  offset="0" style="stop-color:#00FFEE"/>
		<stop  offset="1" style="stop-color:#D585FF"/>
	</linearGradient>
	<path class="st7" d="M172.3,307.3v-29.8h-6.4v-1.9h15v1.9h-6.5v29.8H172.3z"/>
	
		<linearGradient id="SVGID_6_" gradientUnits="userSpaceOnUse" x1="183.2" y1="476.3999" x2="196.8" y2="476.3999" gradientTransform="matrix(1 0 0 -1 0 768)">
		<stop  offset="0" style="stop-color:#00FFEE"/>
		<stop  offset="1" style="stop-color:#D585FF"/>
	</linearGradient>
	<path class="st8" d="M190,275.4c1.2,0,2.2,0.2,3.1,0.6c0.8,0.4,1.5,0.9,2.1,1.7c0.5,0.7,0.9,1.5,1.2,2.5s0.4,2,0.4,3.2v0.7h-2v-0.8
		c0-0.8-0.1-1.6-0.2-2.3c-0.2-0.7-0.4-1.3-0.8-1.9c-0.4-0.5-0.9-0.9-1.5-1.2c-0.6-0.3-1.3-0.5-2.2-0.5c-1.7,0-2.9,0.6-3.6,1.7
		c-0.7,1.1-1.1,2.5-1.1,4.2c0,1.3,0.3,2.4,0.8,3.3c0.6,0.9,1.3,1.7,2.1,2.5c0.9,0.7,1.8,1.4,2.8,2.1s1.9,1.4,2.8,2.2
		c0.9,0.8,1.6,1.7,2.1,2.7c0.6,1,0.8,2.3,0.8,3.7c0,1.1-0.1,2.2-0.4,3.2c-0.3,1-0.7,1.8-1.2,2.5c-0.6,0.7-1.3,1.3-2.1,1.7
		c-0.9,0.4-1.9,0.6-3.1,0.6c-1.2,0-2.2-0.2-3.1-0.6c-0.9-0.4-1.6-0.9-2.1-1.7c-0.6-0.7-1-1.5-1.2-2.5c-0.3-1-0.4-2-0.4-3.2v-1.6h2
		v1.8c0,1.7,0.4,3.1,1.1,4.2c0.7,1.1,2,1.7,3.7,1.7s3-0.5,3.7-1.7c0.7-1.1,1.1-2.5,1.1-4.2c0-1.3-0.3-2.4-0.8-3.3
		c-0.6-0.9-1.3-1.7-2.1-2.5c-0.9-0.7-1.8-1.4-2.8-2.1s-1.9-1.4-2.8-2.2c-0.9-0.8-1.6-1.7-2.1-2.8c-0.6-1-0.8-2.3-0.8-3.8
		c0-2.4,0.5-4.3,1.6-5.7C185.9,276.2,187.6,275.4,190,275.4z"/>
	
		<linearGradient id="SVGID_7_" gradientUnits="userSpaceOnUse" x1="207.1" y1="476.5" x2="221.2" y2="476.5" gradientTransform="matrix(1 0 0 -1 0 768)">
		<stop  offset="0" style="stop-color:#00FFEE"/>
		<stop  offset="1" style="stop-color:#D585FF"/>
	</linearGradient>
	<path class="st9" d="M209.2,292.4v14.9h-2.1v-31.6h2.1v14.9h9.9v-14.9h2.1v31.6h-2.1v-14.9H209.2z"/>
	
		<linearGradient id="SVGID_8_" gradientUnits="userSpaceOnUse" x1="224.8" y1="476.5" x2="237.3" y2="476.5" gradientTransform="matrix(1 0 0 -1 0 768)">
		<stop  offset="0" style="stop-color:#00FFEE"/>
		<stop  offset="1" style="stop-color:#D585FF"/>
	</linearGradient>
	<path class="st10" d="M235.5,290.3v1.9h-8.6v13.2h10.4v1.9h-12.5v-31.6h12.5v1.9h-10.4v12.8L235.5,290.3L235.5,290.3z"/>
	
		<linearGradient id="SVGID_9_" gradientUnits="userSpaceOnUse" x1="240.7" y1="476.45" x2="254.8" y2="476.45" gradientTransform="matrix(1 0 0 -1 0 768)">
		<stop  offset="0" style="stop-color:#00FFEE"/>
		<stop  offset="1" style="stop-color:#D585FF"/>
	</linearGradient>
	<path class="st11" d="M247.3,275.7c2.4,0,4.1,0.6,5.2,1.9c1.1,1.3,1.6,3,1.6,5.2v2.8c0,3.7-1.5,5.9-4.6,6.6
		c1.6,0.4,2.8,1.1,3.5,2.2s1.1,2.5,1.1,4.3v4.9c0,0.7,0,1.3,0.1,2s0.3,1.3,0.6,1.8h-2.2c-0.3-0.5-0.5-1-0.5-1.6
		c-0.1-0.6-0.1-1.3-0.1-2.2v-5c0-1.1-0.1-1.9-0.4-2.6c-0.3-0.7-0.7-1.2-1.2-1.7c-0.5-0.4-1.2-0.7-1.9-0.9c-0.7-0.2-1.5-0.2-2.4-0.2
		h-3.3v14.2h-2.1v-31.6L247.3,275.7L247.3,275.7z M246.1,291.3c0.9,0,1.8-0.1,2.5-0.2c0.7-0.2,1.3-0.4,1.8-0.8s0.9-0.9,1.2-1.6
		s0.4-1.6,0.4-2.6v-3c0-1.7-0.4-3.1-1.1-4c-0.7-0.9-1.9-1.4-3.7-1.4h-4.5v13.7h3.4L246.1,291.3L246.1,291.3z"/>
	
		<linearGradient id="SVGID_10_" gradientUnits="userSpaceOnUse" x1="258.1" y1="476.5" x2="270.6" y2="476.5" gradientTransform="matrix(1 0 0 -1 0 768)">
		<stop  offset="0" style="stop-color:#00FFEE"/>
		<stop  offset="1" style="stop-color:#D585FF"/>
	</linearGradient>
	<path class="st12" d="M268.8,290.3v1.9h-8.6v13.2h10.4v1.9h-12.5v-31.6h12.5v1.9h-10.4v12.8L268.8,290.3L268.8,290.3z"/>
</g>
<linearGradient id="SVGID_11_" gradientUnits="userSpaceOnUse" x1="847.2" y1="698.9" x2="866.4" y2="698.9" gradientTransform="matrix(1 0 0 -1 0 768)">
	<stop  offset="0" style="stop-color:#00FFEE"/>
	<stop  offset="1" style="stop-color:#D585FF"/>
</linearGradient>
<circle class="st13" cx="856.8" cy="69.1" r="9.6"/>
<ellipse transform="matrix(0.9146 -0.4043 0.4043 0.9146 46.2272 350.6935)" class="st14" cx="853.5" cy="65.9" rx="9.6" ry="9.6"/>
<linearGradient id="SVGID_12_" gradientUnits="userSpaceOnUse" x1="497.6" y1="135.5" x2="540" y2="135.5" gradientTransform="matrix(1 0 0 -1 0 768)">
	<stop  offset="0" style="stop-color:#00FFEE"/>
	<stop  offset="1" style="stop-color:#D585FF"/>
</linearGradient>
<ellipse class="st15" cx="518.8" cy="632.5" rx="21.2" ry="21.2"/>
<ellipse transform="matrix(0.2635 -0.9647 0.9647 0.2635 -219.3674 957.7353)" class="st14" cx="517.5" cy="622.5" rx="21.2" ry="21.2"/>
<linearGradient id="SVGID_13_" gradientUnits="userSpaceOnUse" x1="281.9" y1="698.9" x2="324.3" y2="698.9" gradientTransform="matrix(1 0 0 -1 0 768)">
	<stop  offset="0" style="stop-color:#00FFEE"/>
	<stop  offset="1" style="stop-color:#D585FF"/>
</linearGradient>
<ellipse class="st16" cx="303.1" cy="69.1" rx="21.2" ry="21.2"/>
<ellipse transform="matrix(0.1904 -0.9817 0.9817 0.1904 187.6224 361.4423)" class="st14" cx="313" cy="67" rx="21.2" ry="21.2"/>
<path class="st17" d="M613.4,245.3L613.4,245.3c-0.3,0.2-0.7,0.1-0.8-0.2l-3.2-5.3c-0.2-0.3-0.1-0.7,0.2-0.8l0,0
	c0.3-0.2,0.7-0.1,0.8,0.2l3.2,5.3C613.8,244.7,613.7,245.1,613.4,245.3z"/>
<path class="st17" d="M608.3,244L608.3,244c-0.2-0.3-0.1-0.7,0.2-0.8l5.3-3.2c0.3-0.2,0.7-0.1,0.8,0.2l0,0c0.2,0.3,0.1,0.7-0.2,0.8
	l-5.3,3.2C608.9,244.4,608.5,244.3,608.3,244z"/>
<path class="st17" d="M305.9,366.6L305.9,366.6c-0.9-0.2-1.4-1.1-1.1-1.8l3.7-15.1c0.2-0.9,1.1-1.4,1.8-1.1l0,0
	c0.9,0.2,1.4,1.1,1.1,1.8l-3.7,15.1C307.7,366.2,306.8,366.8,305.9,366.6z"/>
<path class="st17" d="M299.1,355.2L299.1,355.2c0.2-0.9,1.1-1.4,1.8-1.1l15.1,3.7c0.9,0.2,1.4,1.1,1.1,1.8l0,0
	c-0.2,0.9-1.1,1.4-1.8,1.1l-15.1-3.7C299.5,357,299,356.1,299.1,355.2z"/>
<path class="st17" d="M88.4,178.8L88.4,178.8c-0.7-0.1-1.2-0.9-0.9-1.4l3-12.3c0.1-0.7,0.9-1.2,1.4-0.9l0,0c0.7,0.1,1.2,0.9,0.9,1.4
	l-3,12.3C89.9,178.5,89.2,179,88.4,178.8z"/>
<path class="st17" d="M83,169.6L83,169.6c0.1-0.7,0.9-1.2,1.4-0.9l12.3,3c0.7,0.1,1.2,0.9,0.9,1.4l0,0c-0.1,0.7-0.9,1.2-1.4,0.9
	l-12.3-3C83.2,171,82.8,170.3,83,169.6z"/>
<linearGradient id="SVGID_14_" gradientUnits="userSpaceOnUse" x1="820.5234" y1="278.1" x2="836.1371" y2="278.1" gradientTransform="matrix(1 0 0 -1 0 768)">
	<stop  offset="0" style="stop-color:#00FFEE"/>
	<stop  offset="1" style="stop-color:#D585FF"/>
</linearGradient>
<path class="st18" d="M834.5,504.3L834.5,504.3c-1.4,0.7-3,0-3.3-1.3l-10.4-24.2c-0.7-1.4,0-3,1.3-3.3l0,0c1.4-0.7,3,0,3.3,1.3
	l10.4,24.2C836.6,502,835.9,503.6,834.5,504.3z"/>
<linearGradient id="SVGID_15_" gradientUnits="userSpaceOnUse" x1="813.5234" y1="278.351" x2="842.8765" y2="278.351" gradientTransform="matrix(1 0 0 -1 0 768)">
	<stop  offset="0" style="stop-color:#00FFEE"/>
	<stop  offset="1" style="stop-color:#D585FF"/>
</linearGradient>
<path class="st19" d="M813.8,495.8L813.8,495.8c-0.7-1.4,0-3,1.3-3.3l24.2-10.4c1.4-0.7,3,0,3.3,1.3l0,0c0.7,1.4,0,3-1.3,3.3
	L817,497.2C816.1,497.9,814.4,497.2,813.8,495.8z"/>
<g class="st20">
	<path class="st21" d="M661.7,630.8c4.7,4.1,0.7,8.6,5.5,12.8c4.7,4.1,8.7-0.4,13.4,3.7c4.7,4.1,0.7,8.6,5.5,12.8
		c4.7,4.1,8.7-0.4,13.4,3.7c4.7,4.1,0.7,8.6,5.5,12.8"/>
</g>
<g class="st20">
	<path class="st21" d="M520.8,197c-4.4,4.4-8.7,0.1-13.1,4.6c-4.4,4.4-0.2,8.7-4.6,13.1s-8.7,0.1-13.1,4.6
		c-4.4,4.4-0.2,8.7-4.6,13.1s-8.7,0.1-13.1,4.6"/>
</g>
<g class="st20">
	<path class="st21" d="M36.2,338.8c3.4,5.2-1.6,8.5,1.9,13.8c3.4,5.2,8.4,2,11.9,7.2c3.4,5.2-1.6,8.5,1.9,13.8
		c3.4,5.2,8.4,2,11.9,7.2s-1.6,8.5,1.9,13.8"/>
</g>
<g class="st20">
	<path class="st21" d="M940.6,147.4c4.9,3.8,1.2,8.5,6.2,12.4c4.9,3.8,8.6-0.8,13.5,3s1.2,8.5,6.2,12.4c4.9,3.8,8.6-0.8,13.5,3
		s1.2,8.5,6.2,12.4"/>
</g>
<path class="st14" d="M497.7,418.8c-8.7-6-11-17.8-5-26.3c4.8-7,14.1-8.7,21.1-3.9c5.6,3.7,7,11.4,3.3,17c-3.1,4.3-9.1,5.6-13.4,2.5
	c-3.5-2.5-4.5-7.2-2.1-10.8c1.9-2.9,5.8-3.5,8.7-1.7c2.3,1.4,2.9,4.5,1.2,6.8c-1.2,1.9-3.7,2.3-5.6,1c-1.4-1-1.9-2.9-0.8-4.3"/>
<path class="st14" d="M876.2,301.6c-7.8,7.1-19.8,6.6-26.7-1.2c-5.8-6.2-5.2-15.7,1-21.4c4.9-4.6,12.7-4.2,17.3,0.7
	c3.5,4,3.4,10.1-0.7,13.7c-3.2,2.9-8.1,2.8-10.9-0.4c-2.4-2.5-2.1-6.4,0.4-8.8c1.9-1.9,5.1-1.8,6.9,0.4c1.5,1.6,1.4,4.1-0.3,5.7
	c-1.3,1.2-3.2,1.2-4.4-0.2"/>
<path class="st14" d="M137.9,57.3c-10.5-0.4-18.8-9.1-18.3-19.5c0.2-8.5,7.2-14.9,15.7-14.6c6.7,0.1,12,5.8,11.9,12.5
	c-0.3,5.3-4.7,9.6-10,9.3c-4.3-0.2-7.7-3.7-7.5-8c0-3.4,3-6.1,6.4-6.1c2.7,0,4.9,2.3,4.7,5.1c0,2.2-1.9,3.9-4.2,3.9
	c-1.8-0.1-3.1-1.4-3-3.2"/>
<linearGradient id="SVGID_16_" gradientUnits="userSpaceOnUse" x1="1023.3122" y1="717.8798" x2="1045.8756" y2="717.8798" gradientTransform="matrix(1 0 0 -1 0 1298)">
	<stop  offset="0" style="stop-color:#63E2FF"/>
	<stop  offset="1" style="stop-color:#B066FE"/>
</linearGradient>
<path class="st22" d="M1042.1,588.1l-2.3-0.3c-1.2-0.2-2.1,0.3-2.8,1.2l-1.5,1.7c-1.8,2-5.3,1.2-5.6-1.5l-0.5-2.3
	c-0.2-1.2-1-2-2-2.5l-2.1-0.8c-2.5-1.2-2.6-4.5-0.3-5.9l2-1.2c1-0.5,1.5-1.5,1.7-2.5l0.3-2.3c0.3-2.6,3.5-4,5.5-2.1l1.7,1.5
	c0.8,0.7,1.8,1,3,0.8l2.3-0.5c2.6-0.5,4.8,2.1,3.6,4.6l-1,2c-0.5,1-0.5,2.1,0.2,3.1l1.2,2C1046.9,585.6,1044.9,588.4,1042.1,588.1z"
	/>
<path class="st14" d="M1043.5,584l-2.3-0.3c-1.2-0.2-2.1,0.3-2.8,1.2l-1.5,1.7c-1.8,2-5.3,1.2-5.6-1.5l-0.5-2.3c-0.2-1.2-1-2-2-2.5
	l-2.1-0.8c-2.5-1.2-2.6-4.5-0.3-5.9l2-1.2c1-0.5,1.5-1.5,1.7-2.5l0.3-2.3c0.3-2.6,3.5-4,5.5-2.1l1.7,1.5c0.8,0.7,1.8,1,3,0.8
	l2.3-0.5c2.6-0.5,4.8,2.1,3.6,4.6l-1,2c-0.5,1-0.5,2.1,0.2,3.1l1.2,2C1048.1,581.3,1046.1,584.1,1043.5,584z"/>
<linearGradient id="SVGID_17_" gradientUnits="userSpaceOnUse" x1="1202.8879" y1="617.5175" x2="1245.288" y2="617.5175" gradientTransform="matrix(0.5929 0.8053 0.8053 -0.5929 -3.2368 -470.6096)">
	<stop  offset="0" style="stop-color:#00FFEE"/>
	<stop  offset="1" style="stop-color:#D585FF"/>
</linearGradient>
<ellipse class="st23" cx="1219.8" cy="149" rx="21.2" ry="21.2"/>
<ellipse transform="matrix(0.933 -0.3598 0.3598 0.933 31.0719 450.998)" class="st14" cx="1227.1" cy="142" rx="21.2" ry="21.2"/>
<path class="st14" d="M1213.3,676.7c-8.7-6-11-17.8-5-26.3c4.8-7,14.1-8.7,21.1-3.9c5.6,3.7,7,11.4,3.3,17
	c-3.1,4.3-9.1,5.6-13.4,2.5c-3.5-2.5-4.5-7.2-2.1-10.8c1.9-2.9,5.8-3.5,8.7-1.7c2.3,1.4,2.9,4.5,1.2,6.8c-1.2,1.9-3.7,2.3-5.6,1
	c-1.4-1-1.9-2.9-0.8-4.3"/>
<linearGradient id="SVGID_18_" gradientUnits="userSpaceOnUse" x1="1003.0459" y1="-40.6747" x2="1018.6595" y2="-40.6747" gradientTransform="matrix(0.6511 -0.759 -0.759 -0.6511 468.1676 1074.2561)">
	<stop  offset="0" style="stop-color:#00FFEE"/>
	<stop  offset="1" style="stop-color:#D585FF"/>
</linearGradient>
<path class="st24" d="M1172.2,338.2L1172.2,338.2c-0.4,1.5-2,2.3-3.1,1.7l-25.1-7.9c-1.5-0.4-2.3-2-1.7-3.1l0,0
	c0.4-1.5,2-2.3,3.1-1.7l25.1,7.9C1171.8,335.1,1172.5,336.7,1172.2,338.2z"/>
<linearGradient id="SVGID_19_" gradientUnits="userSpaceOnUse" x1="996.0459" y1="-40.4237" x2="1025.399" y2="-40.4237" gradientTransform="matrix(0.6511 -0.759 -0.759 -0.6511 468.1676 1074.2561)">
	<stop  offset="0" style="stop-color:#00FFEE"/>
	<stop  offset="1" style="stop-color:#D585FF"/>
</linearGradient>
<path class="st25" d="M1152.2,348.4L1152.2,348.4c-1.5-0.4-2.3-2-1.7-3.1l7.9-25.1c0.4-1.5,2-2.3,3.1-1.7l0,0c1.5,0.4,2.3,2,1.7,3.1
	l-7.9,25.3C1155.3,348,1153.7,348.8,1152.2,348.4z"/>
<linearGradient id="SVGID_20_" gradientUnits="userSpaceOnUse" x1="-36.6195" y1="803.3735" x2="18.4949" y2="803.3735" gradientTransform="matrix(0.5615 0.4963 0.4667 -0.528 -252.2783 967.8813)">
	<stop  offset="0" style="stop-color:#63E2FF"/>
	<stop  offset="1" style="stop-color:#B066FE"/>
</linearGradient>
<path class="st26" d="M118.8,558.6l-2.8-3.2c-1.4-1.6-3.3-2.2-5.2-1.9l-3.9,0.3c-4.8,0.4-8.6-4.9-6-8.7l2-3.6
	c1.1-1.7,0.9-3.8,0.1-5.6l-2-3.7c-2.1-4.5,1.5-9,6.3-8.1l4,0.9c1.9,0.6,3.7-0.1,5.1-1.2l3.1-2.6c3.5-3,9.3-0.9,9.9,3.8l0.6,3.9
	c0.4,1.9,1.4,3.5,3.1,4.7l3.7,2.2c4.2,2.6,4.1,8.6-0.3,10.4l-3.6,1.4c-1.8,0.7-3.1,2.2-3.4,4.2l-0.7,4
	C128.2,561.2,122.3,562.4,118.8,558.6z"/>
<path class="st14" d="M125.3,554.9l-2.8-3.2c-1.4-1.6-3.3-2.2-5.2-1.9l-3.9,0.3c-4.8,0.4-8.6-4.9-6-8.7l2-3.6
	c1.1-1.7,0.9-3.8,0.1-5.6l-2-3.7c-2.1-4.5,1.5-9,6.3-8.1l4,0.9c1.9,0.6,3.7-0.1,5.1-1.2l3.1-2.6c3.5-3,9.3-0.9,9.9,3.8l0.6,3.9
	c0.4,1.9,1.4,3.5,3.1,4.7l3.7,2.2c4.2,2.6,4.1,8.6-0.3,10.4l-3.6,1.4c-1.8,0.7-3.1,2.2-3.4,4.2l-0.7,4
	C134.7,557.1,128.8,558.3,125.3,554.9z"/>
<linearGradient id="SVGID_21_" gradientUnits="userSpaceOnUse" x1="76.3333" y1="265.1667" x2="78" y2="265.1667">
	<stop  offset="0" style="stop-color:#00FFEE"/>
	<stop  offset="1" style="stop-color:#D585FF"/>
</linearGradient>
<rect x="76.3" y="208.7" class="st27" width="1.7" height="113"/>
</svg>
