<?xml version="1.0" encoding="utf-8"?>
<!-- Generator: Adobe Illustrator 21.0.1, SVG Export Plug-In . SVG Version: 6.00 Build 0)  -->
<svg version="1.1" id="Layer_1" xmlns="http://www.w3.org/2000/svg" xmlns:xlink="http://www.w3.org/1999/xlink" x="0px" y="0px"
	 viewBox="0 0 300 50" style="enable-background:new 0 0 300 50;" xml:space="preserve">
<style type="text/css">
	.st0{fill:url(#SVGID_1_);}
	.st1{fill:url(#SVGID_2_);}
	.st2{fill:#4B4453;}
	.st3{fill:none;stroke:url(#SVGID_3_);stroke-width:0.75;stroke-miterlimit:10;}
	.st4{fill:none;stroke:url(#SVGID_4_);stroke-width:0.75;stroke-miterlimit:10;}
	.st5{fill:none;stroke:url(#SVGID_5_);stroke-width:0.75;stroke-miterlimit:10;}
	.st6{fill:none;stroke:url(#SVGID_6_);stroke-width:0.75;stroke-miterlimit:10;}
	.st7{fill:none;stroke:url(#SVGID_7_);stroke-width:0.75;stroke-miterlimit:10;}
</style>
<linearGradient id="SVGID_1_" gradientUnits="userSpaceOnUse" x1="8.0958" y1="16.5" x2="300" y2="16.5">
	<stop  offset="0" style="stop-color:#00FFFF"/>
	<stop  offset="1" style="stop-color:#00FFA1"/>
</linearGradient>
<path class="st0" d="M292.5,33H15.6c-4.1,0-7.5-3.4-7.5-7.5v-18c0-4.1,3.4-7.5,7.5-7.5h276.9c4.1,0,7.5,3.4,7.5,7.5v18
	C300,29.6,296.6,33,292.5,33z"/>
<linearGradient id="SVGID_2_" gradientUnits="userSpaceOnUse" x1="257.1267" y1="36.2116" x2="11.1267" y2="30.2116">
	<stop  offset="0" style="stop-color:#00FFEE"/>
	<stop  offset="1" style="stop-color:#D585FF"/>
</linearGradient>
<path class="st1" d="M284.4,50H7.5C3.4,50,0,46.6,0,42.5v-18C0,20.4,3.4,17,7.5,17h276.9c4.1,0,7.5,3.4,7.5,7.5v18
	C291.9,46.6,288.5,50,284.4,50z"/>
<path class="st2" d="M287.5,46H10.6c-4.1,0-7.5-3.4-7.5-7.5v-28C3.1,6.4,6.5,3,10.6,3h276.9c4.1,0,7.5,3.4,7.5,7.5v28
	C295,42.6,291.6,46,287.5,46z"/>
<linearGradient id="SVGID_3_" gradientUnits="userSpaceOnUse" x1="-136.8683" y1="392.2982" x2="-125.0314" y2="392.2982" gradientTransform="matrix(0.9792 -0.203 0.203 0.9792 329.7806 -369.4709)">
	<stop  offset="0" style="stop-color:#A343FF"/>
	<stop  offset="1" style="stop-color:#4CABFD"/>
	<stop  offset="1" style="stop-color:#E93E3A"/>
</linearGradient>
<path class="st3" d="M286,45.9l-7.3,1.5c-1,0.2-1.9-0.5-2.1-1.4l-1.5-7.3c-0.2-1,0.5-1.9,1.4-2.1l7.3-1.5c1-0.2,1.9,0.5,2.1,1.4
	l1.5,7.3C287.6,44.8,286.9,45.7,286,45.9z"/>
<linearGradient id="SVGID_4_" gradientUnits="userSpaceOnUse" x1="-397.4963" y1="303.9553" x2="-385.6594" y2="303.9553" gradientTransform="matrix(0.8625 -0.1926 0.1941 0.8545 286.0539 -328.2601)">
	<stop  offset="0" style="stop-color:#A343FF"/>
	<stop  offset="1" style="stop-color:#4CABFD"/>
	<stop  offset="1" style="stop-color:#E93E3A"/>
</linearGradient>
<path class="st4" d="M11.6,10.9l-6.4,1.4c-0.9,0.2-1.7-0.4-1.9-1.2L1.9,4.7C1.7,3.9,2.3,3.1,3.1,2.9l6.4-1.4
	c0.9-0.2,1.7,0.4,1.9,1.2L12.8,9C13,9.9,12.4,10.7,11.6,10.9z"/>
<linearGradient id="SVGID_5_" gradientUnits="userSpaceOnUse" x1="-86.7769" y1="403.8035" x2="-81.4535" y2="403.8035" gradientTransform="matrix(0.8625 -0.1926 0.1941 0.8545 286.0539 -328.2601)">
	<stop  offset="0" style="stop-color:#A343FF"/>
	<stop  offset="1" style="stop-color:#4CABFD"/>
	<stop  offset="1" style="stop-color:#E93E3A"/>
</linearGradient>
<path class="st5" d="M293.7,34.6l-2.7,0.6c-0.4,0.1-0.7-0.2-0.8-0.5l-0.6-2.6c-0.1-0.4,0.2-0.7,0.5-0.8l2.7-0.6
	c0.4-0.1,0.7,0.2,0.8,0.5l0.6,2.6C294.2,34.2,294,34.6,293.7,34.6z"/>
<linearGradient id="SVGID_6_" gradientUnits="userSpaceOnUse" x1="-381.9354" y1="305.6514" x2="-375.7786" y2="305.6514" gradientTransform="matrix(0.7452 -0.475 0.4737 0.7372 156.2814 -398.8522)">
	<stop  offset="0" style="stop-color:#A343FF"/>
	<stop  offset="1" style="stop-color:#4CABFD"/>
	<stop  offset="1" style="stop-color:#E93E3A"/>
</linearGradient>
<path class="st6" d="M21.4,7.6l-2.7,1.7c-0.4,0.2-0.8,0.1-1.1-0.2l-1.7-2.7c-0.2-0.4-0.1-0.8,0.2-1.1l2.7-1.7
	c0.4-0.2,0.8-0.1,1.1,0.2l1.7,2.7C21.9,6.9,21.7,7.3,21.4,7.6z"/>
<linearGradient id="SVGID_7_" gradientUnits="userSpaceOnUse" x1="-401.3556" y1="306.8003" x2="-395.1987" y2="306.8003" gradientTransform="matrix(0.7452 -0.475 0.4737 0.7372 156.2814 -398.8522)">
	<stop  offset="0" style="stop-color:#A343FF"/>
	<stop  offset="1" style="stop-color:#4CABFD"/>
	<stop  offset="1" style="stop-color:#E93E3A"/>
</linearGradient>
<path class="st7" d="M7.5,17.6l-2.7,1.7c-0.4,0.2-0.8,0.1-1.1-0.2L2,16.4c-0.2-0.4-0.1-0.8,0.2-1.1l2.7-1.7c0.4-0.2,0.8-0.1,1.1,0.2
	l1.7,2.7C7.9,16.9,7.8,17.4,7.5,17.6z"/>
</svg>
