<?xml version="1.0" encoding="utf-8"?>
<!-- Generator: Adobe Illustrator 21.0.1, SVG Export Plug-In . SVG Version: 6.00 Build 0)  -->
<svg version="1.1" id="Layer_1" xmlns="http://www.w3.org/2000/svg" xmlns:xlink="http://www.w3.org/1999/xlink" x="0px" y="0px"
	 viewBox="0 0 200 40" style="enable-background:new 0 0 200 40;" xml:space="preserve">
<style type="text/css">
	.st0{enable-background:new    ;}
	.st1{fill:#FFFFFF;}
</style>
<g class="st0">
	<path class="st1" d="M39.7,27.7H37V10.6h2.7v7.3h3.1v-7.3h2.7v17.1h-2.7v-7.3h-3.1V27.7z"/>
	<path class="st1" d="M47.2,14.7c0-1.4,0.4-2.4,1.1-3.2c0.7-0.7,1.7-1.1,3-1.1c1.3,0,2.3,0.4,3,1.1c0.7,0.7,1.1,1.8,1.1,3.2v8.9
		c0,1.4-0.4,2.4-1.1,3.2c-0.7,0.7-1.7,1.1-3,1.1c-1.3,0-2.3-0.4-3-1.1c-0.7-0.7-1.1-1.8-1.1-3.2V14.7z M49.9,23.7
		c0,0.6,0.1,1.1,0.4,1.3c0.3,0.3,0.6,0.4,1,0.4c0.4,0,0.8-0.1,1-0.4c0.3-0.3,0.4-0.7,0.4-1.3v-9.2c0-0.6-0.1-1.1-0.4-1.3
		c-0.3-0.3-0.6-0.4-1-0.4c-0.4,0-0.8,0.1-1,0.4c-0.3,0.3-0.4,0.7-0.4,1.3V23.7z"/>
	<path class="st1" d="M63.1,18.6l-1,9.1h-3.7l-1.9-17.1h2.6l1.4,13.5l1.3-13.5h2.6l1.3,13.6l1.4-13.6h2.3l-1.9,17.1h-3.6L63.1,18.6z
		"/>
	<path class="st1" d="M73.9,10.6h8.3V13h-2.8v14.7h-2.7V13h-2.8V10.6z"/>
	<path class="st1" d="M83.2,14.7c0-1.4,0.4-2.4,1.1-3.2c0.7-0.7,1.7-1.1,3-1.1c1.3,0,2.3,0.4,3,1.1c0.7,0.7,1.1,1.8,1.1,3.2v8.9
		c0,1.4-0.4,2.4-1.1,3.2c-0.7,0.7-1.7,1.1-3,1.1c-1.3,0-2.3-0.4-3-1.1c-0.7-0.7-1.1-1.8-1.1-3.2V14.7z M85.9,23.7
		c0,0.6,0.1,1.1,0.4,1.3c0.3,0.3,0.6,0.4,1,0.4c0.4,0,0.8-0.1,1-0.4c0.3-0.3,0.4-0.7,0.4-1.3v-9.2c0-0.6-0.1-1.1-0.4-1.3
		c-0.3-0.3-0.6-0.4-1-0.4c-0.4,0-0.8,0.1-1,0.4c-0.3,0.3-0.4,0.7-0.4,1.3V23.7z"/>
	<path class="st1" d="M104.7,21.3v2.3c0,1.4-0.3,2.4-1,3.2c-0.7,0.7-1.7,1.1-3,1.1c-1.3,0-2.3-0.4-3-1.1c-0.7-0.7-1-1.8-1-3.2v-8.9
		c0-1.4,0.3-2.4,1-3.2c0.7-0.7,1.7-1.1,3-1.1c1.3,0,2.3,0.4,3,1.1c0.7,0.7,1,1.8,1,3.2v1.7h-2.5v-1.8c0-0.6-0.1-1.1-0.4-1.3
		c-0.3-0.3-0.6-0.4-1-0.4c-0.4,0-0.8,0.1-1,0.4c-0.3,0.3-0.4,0.7-0.4,1.3v9.2c0,0.6,0.1,1,0.4,1.3s0.6,0.4,1,0.4
		c0.4,0,0.8-0.1,1-0.4c0.3-0.2,0.4-0.7,0.4-1.3v-2.4H104.7z"/>
	<path class="st1" d="M106.1,14.7c0-1.4,0.3-2.4,1-3.2c0.7-0.7,1.7-1.1,3-1.1s2.3,0.4,3,1.1c0.7,0.7,1,1.8,1,3.2v8.9
		c0,1.4-0.3,2.4-1,3.2c-0.7,0.7-1.7,1.1-3,1.1s-2.3-0.4-3-1.1c-0.7-0.7-1-1.8-1-3.2V14.7z M108.8,23.7c0,0.6,0.1,1.1,0.4,1.3
		c0.3,0.3,0.6,0.4,1,0.4c0.4,0,0.8-0.1,1-0.4c0.3-0.3,0.4-0.7,0.4-1.3v-9.2c0-0.6-0.1-1.1-0.4-1.3c-0.3-0.3-0.6-0.4-1-0.4
		c-0.4,0-0.8,0.1-1,0.4c-0.3,0.3-0.4,0.7-0.4,1.3V23.7z"/>
	<path class="st1" d="M118.4,15.3v12.4H116V10.6h3.4l2.8,10.2V10.6h2.4v17.1h-2.8L118.4,15.3z"/>
	<path class="st1" d="M128.8,15.3v12.4h-2.4V10.6h3.4l2.8,10.2V10.6h2.4v17.1h-2.8L128.8,15.3z"/>
	<path class="st1" d="M139.6,17.8h3.7v2.4h-3.7v5h4.6v2.4h-7.3V10.6h7.3V13h-4.6V17.8z"/>
	<path class="st1" d="M153.6,21.3v2.3c0,1.4-0.3,2.4-1,3.2c-0.7,0.7-1.7,1.1-3,1.1s-2.3-0.4-3-1.1c-0.7-0.7-1-1.8-1-3.2v-8.9
		c0-1.4,0.3-2.4,1-3.2c0.7-0.7,1.7-1.1,3-1.1s2.3,0.4,3,1.1c0.7,0.7,1,1.8,1,3.2v1.7h-2.5v-1.8c0-0.6-0.1-1.1-0.4-1.3
		c-0.3-0.3-0.6-0.4-1-0.4c-0.4,0-0.8,0.1-1,0.4c-0.3,0.3-0.4,0.7-0.4,1.3v9.2c0,0.6,0.1,1,0.4,1.3c0.3,0.2,0.6,0.4,1,0.4
		c0.4,0,0.8-0.1,1-0.4c0.3-0.2,0.4-0.7,0.4-1.3v-2.4H153.6z"/>
	<path class="st1" d="M154.5,10.6h8.3V13H160v14.7h-2.7V13h-2.8V10.6z"/>
</g>
</svg>
