<?xml version="1.0" encoding="utf-8"?>
<!-- Generator: Adobe Illustrator 21.0.1, SVG Export Plug-In . SVG Version: 6.00 Build 0)  -->
<svg version="1.1" id="Layer_1" xmlns="http://www.w3.org/2000/svg" xmlns:xlink="http://www.w3.org/1999/xlink" x="0px" y="0px"
	 viewBox="0 0 253.5 58.7" style="enable-background:new 0 0 253.5 58.7;" xml:space="preserve">
<style type="text/css">
	.st0{fill:url(#SVGID_1_);}
	.st1{fill:url(#SVGID_2_);}
	.st2{fill:#4B4453;}
	.st3{fill:none;stroke:url(#SVGID_3_);stroke-width:0.75;stroke-miterlimit:10;}
	.st4{fill:none;stroke:url(#SVGID_4_);stroke-width:0.75;stroke-miterlimit:10;}
	.st5{fill:none;stroke:url(#SVGID_5_);stroke-width:0.75;stroke-miterlimit:10;}
	.st6{fill:none;stroke:url(#SVGID_6_);stroke-width:0.75;stroke-miterlimit:10;}
	.st7{fill:none;stroke:url(#SVGID_7_);stroke-width:0.75;stroke-miterlimit:10;}
</style>
<g id="Layer_1_1_">
	<g>
		
			<linearGradient id="SVGID_1_" gradientUnits="userSpaceOnUse" x1="2.2514" y1="33.4944" x2="242.8492" y2="33.4944" gradientTransform="matrix(1 0 0 -1 0 60)">
			<stop  offset="0" style="stop-color:#00FFEE"/>
			<stop  offset="1" style="stop-color:#D585FF"/>
		</linearGradient>
		<path class="st0" d="M230.2,48.5l-214.9,3c-7,0-12.8-6.1-12.9-13.6L2.3,18.2c0-7.6,5.7-13.9,12.6-13.9l214.9-2.9
			c7-0.2,12.9,6.1,12.9,13.6l0.2,19.8C243.1,42.3,237.4,48.5,230.2,48.5z"/>
		
			<linearGradient id="SVGID_2_" gradientUnits="userSpaceOnUse" x1="10.6549" y1="27.832" x2="251.25" y2="27.832" gradientTransform="matrix(1 0 0 -1 0 60)">
			<stop  offset="0" style="stop-color:#FB4ECB"/>
			<stop  offset="1" style="stop-color:#AC26AD"/>
		</linearGradient>
		<path class="st1" d="M238.7,54.3L23.9,57.2c-7,0-12.9-6.1-13-13.6l-0.2-19.7C10.6,16.4,16.3,10,23.3,10l214.9-2.9
			c7-0.2,12.9,6.1,12.9,13.6l0.2,19.7C251.4,48,245.7,54.3,238.7,54.3z"/>
		<path class="st2" d="M234.6,50.9l-215,2.9c-7.1,0.2-13-6.1-13-13.6L6.5,20.4C6.3,12.9,12.1,6.5,19.1,6.5l214.9-2.9
			c7-0.2,12.9,6.1,12.9,13.6L247,37C247.3,44.5,241.6,50.9,234.6,50.9z"/>
	</g>
</g>
<g id="Layer_2">
</g>
<linearGradient id="SVGID_3_" gradientUnits="userSpaceOnUse" x1="-177.8741" y1="-311.7348" x2="-166.0372" y2="-311.7348" gradientTransform="matrix(0.9792 -0.203 -0.203 -0.9792 337.9006 -330.3029)">
	<stop  offset="0" style="stop-color:#A343FF"/>
	<stop  offset="1" style="stop-color:#4CABFD"/>
	<stop  offset="1" style="stop-color:#E93E3A"/>
</linearGradient>
<path class="st3" d="M237.6,14.5l-7.3,1.5c-1,0.2-1.9-0.5-2.1-1.4l-1.5-7.3c-0.2-1,0.5-1.9,1.4-2.1l7.3-1.5c1-0.2,1.9,0.5,2.1,1.4
	l1.5,7.3C239.2,13.4,238.5,14.3,237.6,14.5z"/>
<linearGradient id="SVGID_4_" gradientUnits="userSpaceOnUse" x1="-398.8084" y1="-306.694" x2="-386.9715" y2="-306.694" gradientTransform="matrix(0.9792 -0.203 -0.203 -0.9792 337.9006 -330.3029)">
	<stop  offset="0" style="stop-color:#A343FF"/>
	<stop  offset="1" style="stop-color:#4CABFD"/>
	<stop  offset="1" style="stop-color:#E93E3A"/>
</linearGradient>
<path class="st4" d="M20.2,54.4l-7.3,1.5c-1,0.2-1.9-0.5-2.1-1.4l-1.5-7.3c-0.2-1,0.5-1.9,1.4-2.1l7.3-1.5c1-0.2,1.9,0.5,2.1,1.4
	l1.5,7.3C21.9,53.3,21.2,54.2,20.2,54.4z"/>
<linearGradient id="SVGID_5_" gradientUnits="userSpaceOnUse" x1="-366.5216" y1="-269.6105" x2="-359.1344" y2="-269.6105" gradientTransform="matrix(0.9792 -0.203 -0.203 -0.9792 337.9006 -330.3029)">
	<stop  offset="0" style="stop-color:#A343FF"/>
	<stop  offset="1" style="stop-color:#4CABFD"/>
	<stop  offset="1" style="stop-color:#E93E3A"/>
</linearGradient>
<path class="st5" d="M40.2,10.1L35.8,11c-0.6,0.1-1.1-0.3-1.3-0.9l-0.9-4.4c-0.1-0.6,0.3-1.1,0.9-1.3l4.4-0.9
	c0.6-0.1,1.1,0.3,1.3,0.9l0.9,4.4C41.2,9.5,40.8,10,40.2,10.1z"/>
<linearGradient id="SVGID_6_" gradientUnits="userSpaceOnUse" x1="-192.4428" y1="-351.347" x2="-180.606" y2="-351.347" gradientTransform="matrix(0.9792 -0.203 -0.203 -0.9792 337.9006 -330.3029)">
	<stop  offset="0" style="stop-color:#A343FF"/>
	<stop  offset="1" style="stop-color:#4CABFD"/>
	<stop  offset="1" style="stop-color:#E93E3A"/>
</linearGradient>
<path class="st6" d="M231.4,56.3l-7.3,1.5c-1,0.2-1.9-0.5-2.1-1.4l-1.5-7.3c-0.2-1,0.5-1.9,1.4-2.1l7.3-1.5c1-0.2,1.9,0.5,2.1,1.4
	l1.5,7.3C233,55.1,232.3,56,231.4,56.3z"/>
<linearGradient id="SVGID_7_" gradientUnits="userSpaceOnUse" x1="-167.6827" y1="-329.1925" x2="-159.759" y2="-329.1925" gradientTransform="matrix(0.7405 0.672 0.672 -0.7405 586.8821 -108.4934)">
	<stop  offset="0" style="stop-color:#A343FF"/>
	<stop  offset="1" style="stop-color:#4CABFD"/>
	<stop  offset="1" style="stop-color:#E93E3A"/>
</linearGradient>
<path class="st7" d="M243.8,29.5l-3.6-3.3c-0.5-0.4-0.5-1.1-0.1-1.6l3.3-3.6c0.4-0.5,1.1-0.5,1.6-0.1l3.6,3.3
	c0.5,0.4,0.5,1.1,0.1,1.6l-3.3,3.6C245,30,244.3,29.9,243.8,29.5z"/>
</svg>
