<?xml version="1.0" encoding="utf-8"?>
<!-- Generator: Adobe Illustrator 21.0.1, SVG Export Plug-In . SVG Version: 6.00 Build 0)  -->
<svg version="1.1" id="Layer_1" xmlns="http://www.w3.org/2000/svg" xmlns:xlink="http://www.w3.org/1999/xlink" x="0px" y="0px"
	 viewBox="0 0 253.5 58.7" style="enable-background:new 0 0 253.5 58.7;" xml:space="preserve">
<style type="text/css">
	.st0{fill:url(#SVGID_1_);}
	.st1{fill:url(#SVGID_2_);}
	.st2{fill:#4B4453;}
	.st3{fill:none;stroke:url(#SVGID_3_);stroke-width:0.75;stroke-miterlimit:10;}
	.st4{fill:none;stroke:url(#SVGID_4_);stroke-width:0.75;stroke-miterlimit:10;}
	.st5{fill:none;stroke:url(#SVGID_5_);stroke-width:0.75;stroke-miterlimit:10;}
	.st6{fill:none;stroke:url(#SVGID_6_);stroke-width:0.75;stroke-miterlimit:10;}
	.st7{fill:none;stroke:url(#SVGID_7_);stroke-width:0.75;stroke-miterlimit:10;}
	.st8{fill:none;stroke:url(#SVGID_8_);stroke-width:0.75;stroke-miterlimit:10;}
</style>
<g id="Layer_1_1_">
	<g>
		
			<linearGradient id="SVGID_1_" gradientUnits="userSpaceOnUse" x1="2.2514" y1="33.4944" x2="242.8492" y2="33.4944" gradientTransform="matrix(0.9998 2.066412e-02 2.066412e-02 -0.9998 -0.6039 57.3743)">
			<stop  offset="0" style="stop-color:#00FFEE"/>
			<stop  offset="1" style="stop-color:#D585FF"/>
		</linearGradient>
		<path class="st0" d="M229.8,50.7L15,49.3c-7-0.1-12.7-6.4-12.6-13.9l0.2-19.8C2.7,8,8.5,1.8,15.4,2l214.9,1.6
			c7,0,12.8,6.4,12.6,13.9l-0.2,19.8C242.8,44.7,237,50.8,229.8,50.7z"/>
		
			<linearGradient id="SVGID_2_" gradientUnits="userSpaceOnUse" x1="10.6549" y1="27.832" x2="251.25" y2="27.832" gradientTransform="matrix(0.9998 2.066412e-02 2.066412e-02 -0.9998 -0.6039 57.3743)">
			<stop  offset="0" style="stop-color:#FB4ECB"/>
			<stop  offset="1" style="stop-color:#AC26AD"/>
		</linearGradient>
		<path class="st1" d="M238.2,56.7L23.3,55.1c-7-0.1-12.8-6.4-12.7-13.9l0.2-19.7c0.1-7.5,6-13.8,12.9-13.6l214.9,1.6
			c7,0,12.8,6.4,12.6,13.9L251,43C250.9,50.5,245.1,56.8,238.2,56.7z"/>
		<path class="st2" d="M234.2,53.1l-215-1.6c-7.1,0-12.9-6.4-12.7-13.9l0.2-19.8c0.1-7.5,6-13.8,12.9-13.6l214.9,1.6
			c7,0,12.8,6.4,12.6,13.9l-0.2,19.8C246.9,47,241.1,53.3,234.2,53.1z"/>
	</g>
</g>
<g id="Layer_2">
</g>
<linearGradient id="SVGID_3_" gradientUnits="userSpaceOnUse" x1="-171.4465" y1="-330.0879" x2="-159.6097" y2="-330.0879" gradientTransform="matrix(0.9831 -0.1827 -0.1827 -0.9831 345.2898 -325.8628)">
	<stop  offset="0" style="stop-color:#A343FF"/>
	<stop  offset="1" style="stop-color:#4CABFD"/>
	<stop  offset="1" style="stop-color:#E93E3A"/>
</linearGradient>
<path class="st3" d="M247.5,33.7l-7.4,1.3c-1,0.2-1.8-0.5-2.1-1.5l-1.3-7.4c-0.2-1,0.5-1.8,1.5-2.1l7.4-1.3c1-0.2,1.8,0.5,2.1,1.5
	l1.3,7.4C249.2,32.6,248.5,33.5,247.5,33.7z"/>
<linearGradient id="SVGID_4_" gradientUnits="userSpaceOnUse" x1="-397.5458" y1="-276.8566" x2="-385.709" y2="-276.8566" gradientTransform="matrix(0.9831 -0.1827 -0.1827 -0.9831 345.2898 -325.8628)">
	<stop  offset="0" style="stop-color:#A343FF"/>
	<stop  offset="1" style="stop-color:#4CABFD"/>
	<stop  offset="1" style="stop-color:#E93E3A"/>
</linearGradient>
<path class="st4" d="M15.5,22.7L8.2,24c-1,0.2-1.8-0.5-2.1-1.5l-1.3-7.4c-0.2-1,0.5-1.8,1.5-2.1l7.4-1.3c1-0.2,1.8,0.5,2.1,1.5
	l1.3,7.4C17.2,21.6,16.5,22.4,15.5,22.7z"/>
<linearGradient id="SVGID_5_" gradientUnits="userSpaceOnUse" x1="-366.5216" y1="-269.6105" x2="-359.1344" y2="-269.6105" gradientTransform="matrix(0.9831 -0.1827 -0.1827 -0.9831 345.2898 -325.8628)">
	<stop  offset="0" style="stop-color:#A343FF"/>
	<stop  offset="1" style="stop-color:#4CABFD"/>
	<stop  offset="1" style="stop-color:#E93E3A"/>
</linearGradient>
<path class="st5" d="M40.6,8.4l-4.4,0.8c-0.6,0.1-1.1-0.3-1.2-0.9l-0.8-4.4c-0.1-0.6,0.3-1.1,0.9-1.2l4.4-0.8
	c0.6-0.1,1.1,0.3,1.2,0.9l0.8,4.4C41.6,7.7,41.2,8.2,40.6,8.4z"/>
<linearGradient id="SVGID_6_" gradientUnits="userSpaceOnUse" x1="-191.996" y1="-331.6104" x2="-180.1591" y2="-331.6104" gradientTransform="matrix(0.9831 -0.1827 -0.1827 -0.9831 345.2898 -325.8628)">
	<stop  offset="0" style="stop-color:#A343FF"/>
	<stop  offset="1" style="stop-color:#4CABFD"/>
	<stop  offset="1" style="stop-color:#E93E3A"/>
</linearGradient>
<path class="st6" d="M227.6,38.9l-7.4,1.3c-1,0.2-1.8-0.5-2.1-1.5l-1.3-7.4c-0.2-1,0.5-1.8,1.5-2.1l7.4-1.3c1-0.2,1.8,0.5,2.1,1.5
	l1.3,7.4C229.3,37.8,228.6,38.7,227.6,38.9z"/>
<linearGradient id="SVGID_7_" gradientUnits="userSpaceOnUse" x1="-153.0715" y1="-345.2928" x2="-145.1478" y2="-345.2928" gradientTransform="matrix(0.7265 0.6872 0.6872 -0.7265 589.6347 -98.9557)">
	<stop  offset="0" style="stop-color:#A343FF"/>
	<stop  offset="1" style="stop-color:#4CABFD"/>
	<stop  offset="1" style="stop-color:#E93E3A"/>
</linearGradient>
<path class="st7" d="M243.3,53.7l-3.5-3.3c-0.5-0.4-0.4-1.2,0-1.6l3.3-3.5c0.4-0.5,1.2-0.4,1.6,0l3.5,3.3c0.5,0.4,0.4,1.2,0,1.6
	l-3.3,3.5C244.5,54.2,243.8,54.1,243.3,53.7z"/>
<linearGradient id="SVGID_8_" gradientUnits="userSpaceOnUse" x1="-373.2641" y1="-315.636" x2="-365.8768" y2="-315.636" gradientTransform="matrix(0.9831 -0.1827 -0.1827 -0.9831 345.2898 -325.8628)">
	<stop  offset="0" style="stop-color:#A343FF"/>
	<stop  offset="1" style="stop-color:#4CABFD"/>
	<stop  offset="1" style="stop-color:#E93E3A"/>
</linearGradient>
<path class="st8" d="M42.4,54.8L38,55.6c-0.6,0.1-1.1-0.3-1.2-0.9L36,50.4c-0.1-0.6,0.3-1.1,0.9-1.2l4.4-0.8
	c0.6-0.1,1.1,0.3,1.2,0.9l0.8,4.4C43.4,54.2,43,54.7,42.4,54.8z"/>
</svg>
