<?xml version="1.0" encoding="utf-8"?>
<!-- Generator: Adobe Illustrator 21.0.1, SVG Export Plug-In . SVG Version: 6.00 Build 0)  -->
<svg version="1.1" xmlns="http://www.w3.org/2000/svg" xmlns:xlink="http://www.w3.org/1999/xlink" x="0px" y="0px"
	 viewBox="0 0 250 152.6" style="enable-background:new 0 0 250 152.6;" xml:space="preserve">
<style type="text/css">
	.st0{fill:url(#SVGID_1_);}
	.st1{fill:#1C1C1C;}
	.st2{fill:url(#SVGID_2_);}
	.st3{fill:url(#SVGID_3_);}
</style>
<g id="Layer_8">
</g>
<g id="Layer_1">
	<g>
		<linearGradient id="SVGID_1_" gradientUnits="userSpaceOnUse" x1="25.9157" y1="64.1722" x2="224.9906" y2="64.1722">
			<stop  offset="6.810900e-04" style="stop-color:#FC6767"/>
			<stop  offset="0.9997" style="stop-color:#EC008C"/>
		</linearGradient>
		<path class="st0" d="M193.5,29.2c-15.7-10.8-38.4-18.2-64-19.3c-24.9-1.1-47.6,4-64.1,12.9H38.7c-3.1,0-5.6,2.5-5.6,5.6
			c0,3.1,2.5,5.6,5.6,5.6h11.6c-4,4-7.1,8.5-9,13.2h-9.9c-3.1,0-5.6,2.5-5.6,5.6c0,3.1,2.5,5.6,5.6,5.6h7.6
			c-0.1,6.4,1.8,12.6,5.3,18.4h-9.8c-3.1,0-5.6,2.5-5.6,5.6c0,3.1,2.5,5.6,5.6,5.6h19.2c4.6,4.2,10.3,8,16.7,11.4
			c15.7,10.8,38.4,18.2,64,19.3c48.7,2.1,89.2-19.2,90.5-47.6C225.7,54.6,213.3,39.5,193.5,29.2z"/>
		
			<ellipse transform="matrix(4.336777e-02 -0.9991 0.9991 4.336777e-02 62.5165 194.6193)" class="st1" cx="132.9" cy="64.7" rx="48.9" ry="84.6"/>
		<linearGradient id="SVGID_2_" gradientUnits="userSpaceOnUse" x1="68.1005" y1="41.985" x2="193.1628" y2="41.985">
			<stop  offset="0" style="stop-color:#00FFEE"/>
			<stop  offset="1" style="stop-color:#D585FF"/>
		</linearGradient>
		<path class="st2" d="M68.4,41.8c-0.1,5.2-0.2,10.6,1.5,15.6c0.2,0.7,0.5,1.3,1,1.9c0.9,0.9,2.2,1.1,3.4,1.3
			c4.7,0.6,10.3,0.9,13.3-2.8c0.6-0.7,1-1.5,1.6-2.1c1.9-1.8,5-1.4,7.3-0.1c2.3,1.2,4.2,3.1,6.6,4.1c2.2,0.9,4.5,0.9,6.9,1
			c14.4,0.2,28.8,0.2,43.2-0.2c4.1-0.1,8.3-0.2,12.3-1.3c0.6-0.1,1.1-0.3,1.7-0.4c0.7-0.1,1.5,0.1,2.2,0.2c3.6,0.7,7.3,1.1,10.9,0.7
			c3.6-0.5,7.2-2,9.7-4.7c2.7-3,3.8-7.3,2.8-11.2s-3.9-7.2-7.7-8.6c-4.1-1.5-8.6-0.8-12.9-0.8c-3.3,0-7.2-1-8.1-4.1
			c-0.5-1.5-0.2-3.2-1-4.6c-0.9-1.6-3-2-4.8-2.3c-2.1-0.3-4.5-0.6-6.3,0.5c-2.9,1.8-2.8,6-2.3,9.4c-3,0.4-6,0.6-9,0.6
			c-0.4,0-0.9,0-1.3-0.2c-1.6-0.8-0.6-3.1-0.5-4.8c0-1.6-1.1-3.1-2.5-4c-1.4-0.8-3.1-1.1-4.7-1.3c-2.5-0.3-4.9-0.4-7.4-0.2
			c-0.5,0-1,0.1-1.3,0.4c-0.3,0.3-0.4,0.9-0.4,1.3c-0.1,2.5-0.1,5-0.1,7.5c-6.4,0.3-12.8,0.5-19.2,0.8c-0.6,0-1.3,0-1.9-0.3
			c-0.3-0.2-0.5-0.5-0.7-0.7c-3.6-4.3-9.2-6.5-14.8-7c-2.9-0.3-5.8-0.2-8.6,0.1c-1.8,0.2-6.5,0-7.8,1.2
			C67.2,28.7,68.5,38.7,68.4,41.8z"/>
		<linearGradient id="SVGID_3_" gradientUnits="userSpaceOnUse" x1="44.9359" y1="85.9864" x2="217.5294" y2="85.9864">
			<stop  offset="0" style="stop-color:#00FFEE"/>
			<stop  offset="1" style="stop-color:#D585FF"/>
		</linearGradient>
		<path class="st3" d="M47.3,102.6c1.9,2.1,93.4,0,93.4,0s-2.3,4.8,0,6.9c2.3,2,11.1,1.2,14.5,0c3.4-1.2,0-6.9,0-6.9s54.6,1.6,57,0
			c2.4-1.6,0-16.3,0-16.3s2.5,1.8,4.1,0c1.5-1.8,1.7-9.5,0-10.7c-1.7-1.1-4.6,0-4.6,0s1.5-6.7-0.5-9.7c-2-3-12.1-2.6-14.3,0
			c-2.1,2.6-0.5,8.6-0.5,8.6h-11.1c0,0,2.8-6.8,3.5-8.6c0.7-1.7-5-7.4-16.6-3.1s-8.6,7.8-10.3,9.7c-1.6,1.9-45.1,0.2-45.1,0.2
			s0.8-5.9,0-7.4c-0.8-1.4-14.6-2-16.6,0c-2,2,0,7.1,0,7.1l-22.8,0.3c0,0,0.8-3.8,0-6.2c-0.8-2.4-28.3-2.2-31,0.3
			C43.6,69.4,45.4,100.5,47.3,102.6z"/>
		<g>
			<path class="st1" d="M99.6,40c0,1.3-0.2,2.4-0.6,3.5c-0.4,1-1,2-1.7,2.8c-0.7,0.8-1.5,1.5-2.5,2.1c-1,0.6-2,1.1-3.1,1.5
				c-0.6,0.2-1.3,0.4-2.1,0.6c-0.8,0.2-1.5,0.3-2.2,0.3c-0.5,0-0.9,0-1.4-0.1c-0.5-0.1-1-0.2-1.4-0.3l0.2,7.5l-9.9-0.5l-0.4-27.4
				l9.5-1.1l0,1.7c1.6-0.6,3.2-0.8,4.9-0.8c1.6,0,3.1,0.2,4.4,0.7c1.3,0.5,2.4,1.2,3.4,2c0.9,0.9,1.6,2,2.1,3.3
				C99.3,36.9,99.6,38.4,99.6,40z M91.9,39.2c0-0.8-0.2-1.4-0.5-1.9c-0.3-0.5-0.8-0.8-1.3-1.1c-0.5-0.3-1.1-0.4-1.8-0.5
				c-0.6-0.1-1.3-0.1-1.9-0.1c-0.4,0-0.7,0-1.1,0.1c-0.3,0.1-0.7,0.2-1,0.3l0.2,7c0.3,0,0.5,0,0.8,0.1c0.3,0,0.6,0,0.8,0
				c0.6,0,1.2-0.1,1.9-0.2c0.7-0.1,1.3-0.4,1.9-0.7c0.6-0.3,1.1-0.7,1.4-1.2C91.7,40.6,91.9,40,91.9,39.2z"/>
			<path class="st1" d="M124.6,57c-0.9,0.1-1.8,0.2-2.7,0.2c-0.9,0-1.8,0.1-2.8,0.1c-0.4,0-0.8,0-1.2,0c-0.4,0-0.8,0-1.2,0v-1.9
				c-0.8,1-1.7,1.8-2.9,2.2c-1.2,0.5-2.4,0.7-3.6,0.7c-1.5,0-2.8-0.3-4.1-0.8c-1.3-0.6-2.4-1.3-3.4-2.3c-1-1-1.8-2.1-2.3-3.4
				c-0.6-1.3-0.9-2.7-0.9-4.1c0-1.5,0.3-2.8,0.9-4.1c0.6-1.3,1.4-2.4,2.3-3.4c1-1,2.1-1.7,3.4-2.3c1.3-0.6,2.7-0.8,4.1-0.8
				c1.1,0,2.2,0.2,3.3,0.7c1.1,0.4,2,1.1,2.7,1.8l0-2.3c2.3-0.5,4.6-0.7,6.9-0.7h1.2L124.6,57z M116.2,47.6c0-0.6-0.1-1.1-0.4-1.6
				c-0.2-0.5-0.6-0.9-1-1.2c-0.4-0.3-0.9-0.6-1.4-0.8c-0.5-0.2-1-0.3-1.6-0.3c-0.5,0-1.1,0.1-1.6,0.2c-0.5,0.2-1,0.4-1.4,0.7
				c-0.4,0.3-0.8,0.7-1,1.1c-0.3,0.4-0.4,1-0.4,1.6c0,0.6,0.1,1.2,0.4,1.6c0.2,0.5,0.6,0.9,0.9,1.2c0.4,0.3,0.8,0.6,1.4,0.8
				c0.5,0.2,1.1,0.3,1.6,0.3c0.5,0,1-0.1,1.6-0.2c0.5-0.2,1-0.4,1.4-0.7c0.4-0.3,0.8-0.7,1-1.1C116.1,48.8,116.2,48.2,116.2,47.6z"
				/>
			<path class="st1" d="M132.7,57.9c-0.9,0.1-1.9,0.1-2.8,0.1c-0.9,0-1.8,0-2.7-0.1l-0.5-30.7c2.3-0.5,4.6-0.8,6.9-0.8
				c0.3,0,0.6,0,0.8,0c0.3,0,0.6,0,0.8,0l0.3,31.2C134.5,57.8,133.6,57.9,132.7,57.9z"/>
			<path class="st1" d="M162,57c-0.9,0.1-1.8,0.2-2.7,0.2c-0.9,0-1.8,0.1-2.7,0.1c-0.4,0-0.8,0-1.2,0c-0.4,0-0.8,0-1.2,0l0-1.9
				c-0.4,0.5-0.8,0.9-1.4,1.2c-0.6,0.3-1.1,0.6-1.8,0.8s-1.3,0.3-1.9,0.4c-0.6,0.1-1.3,0.1-1.8,0.1c-1.5,0-2.9-0.3-4.1-0.9
				c-1.3-0.6-2.4-1.4-3.3-2.4c-0.9-1-1.7-2.1-2.2-3.4c-0.5-1.3-0.8-2.7-0.8-4.1c0-1.4,0.3-2.8,0.8-4c0.5-1.3,1.3-2.4,2.2-3.3
				c0.9-1,2-1.7,3.3-2.3c1.3-0.6,2.6-0.8,4.1-0.8c1.2,0,2.4,0.2,3.6,0.7c1.2,0.5,2.1,1.2,2.9,2.1l-0.1-11.7c1.4-0.2,2.7-0.2,4.1-0.2
				c0.7,0,1.3,0,2,0c0.7,0,1.3,0.1,2,0.2L162,57z M153.5,47c0-0.6-0.1-1.1-0.3-1.5c-0.2-0.5-0.5-0.9-0.9-1.2
				c-0.4-0.3-0.8-0.6-1.3-0.8c-0.5-0.2-1-0.3-1.6-0.3c-0.5,0-1.1,0.1-1.6,0.2c-0.6,0.2-1.1,0.4-1.5,0.7c-0.5,0.3-0.8,0.7-1.1,1.2
				c-0.3,0.5-0.4,1-0.4,1.6c0,0.6,0.1,1.1,0.3,1.6c0.2,0.5,0.5,0.9,0.9,1.2c0.4,0.3,0.8,0.6,1.3,0.8c0.5,0.2,1,0.3,1.6,0.3
				c0.5,0,1.1-0.1,1.6-0.3c0.6-0.2,1-0.4,1.5-0.7c0.4-0.3,0.8-0.7,1.1-1.2C153.4,48.1,153.5,47.6,153.5,47z"/>
			<path class="st1" d="M187.9,47.1c0,1.5-0.3,2.9-1,4.3c-0.6,1.3-1.5,2.5-2.6,3.5c-1.1,1-2.4,1.8-3.9,2.4c-1.5,0.6-3.1,0.9-4.8,0.9
				c-1.7,0-3.3-0.3-4.8-0.9c-1.5-0.6-2.8-1.4-3.9-2.4c-1.1-1-2-2.2-2.6-3.5c-0.6-1.3-1-2.8-1-4.3c0-1.5,0.3-2.9,1-4.3
				c0.6-1.3,1.5-2.5,2.6-3.5c1.1-1,2.4-1.8,3.9-2.4c1.5-0.6,3.1-0.9,4.8-0.9c1.7,0,3.3,0.3,4.8,0.9c1.5,0.6,2.8,1.4,3.9,2.4
				c1.1,1,2,2.2,2.6,3.5C187.6,44.2,187.9,45.6,187.9,47.1z M179.8,47c-0.1-0.6-0.2-1.2-0.5-1.7c-0.3-0.5-0.6-1-1-1.3
				s-0.9-0.6-1.4-0.8s-1.1-0.3-1.7-0.3c-1.2,0.1-2.2,0.5-2.9,1.3c-0.7,0.8-1,1.9-0.9,3.1c0.1,0.6,0.2,1.2,0.5,1.7
				c0.3,0.5,0.6,1,1,1.3c0.4,0.4,0.9,0.6,1.4,0.8c0.5,0.2,1.1,0.3,1.7,0.3c1.2-0.1,2.2-0.5,2.9-1.4C179.5,49.2,179.8,48.2,179.8,47z
				"/>
			<path class="st1" d="M73.6,97.8C72.8,97.9,72,98,71.2,98c-0.8,0.1-1.6,0.1-2.4,0.1c-1.5,0-3-0.1-4.4-0.2v-8l-6.5,0.1l0.2,8.4
				c-1.8,0.2-3.6,0.4-5.4,0.4c-0.6,0-1.2,0-1.9-0.1c-0.6,0-1.2-0.1-1.9-0.1l-0.8-27.7c1.7-0.2,3.4-0.4,5.2-0.4c0.7,0,1.3,0,2,0
				c0.6,0,1.3,0.1,2,0.2l0.4,13.1c0.5-0.1,1.1-0.1,1.7-0.1c0.6,0,1.1-0.1,1.7-0.1c0.6,0,1.1,0,1.7,0.1c0.5,0,1.1,0.1,1.6,0.1V71
				c0.9-0.1,1.8-0.2,2.7-0.3c0.9-0.1,1.8-0.1,2.7-0.1c1.4,0,2.8,0.1,4.2,0.2L73.6,97.8z"/>
			<path class="st1" d="M100,87.8c0,1.5-0.3,2.9-1,4.3c-0.6,1.3-1.5,2.5-2.6,3.5c-1.1,1-2.4,1.8-3.9,2.4c-1.5,0.6-3.1,0.9-4.8,0.9
				c-1.7,0-3.3-0.3-4.8-0.9c-1.5-0.6-2.8-1.4-3.9-2.4c-1.1-1-2-2.2-2.6-3.5c-0.6-1.3-1-2.8-1-4.3c0-1.5,0.3-2.9,1-4.3
				c0.6-1.3,1.5-2.5,2.6-3.5c1.1-1,2.4-1.8,3.9-2.4c1.5-0.6,3.1-0.9,4.8-0.9c1.7,0,3.3,0.3,4.8,0.9c1.5,0.6,2.8,1.4,3.9,2.4
				c1.1,1,2,2.2,2.6,3.5C99.7,84.9,100,86.3,100,87.8z M91.8,87.7c-0.1-0.6-0.2-1.2-0.5-1.7c-0.3-0.5-0.6-1-1-1.3
				C90,84.3,89.5,84,89,83.8c-0.5-0.2-1.1-0.3-1.7-0.3C86,83.6,85,84,84.3,84.9c-0.7,0.8-1,1.9-0.9,3.1c0.1,0.6,0.2,1.2,0.5,1.7
				c0.3,0.5,0.6,1,1,1.3c0.4,0.4,0.9,0.6,1.4,0.8c0.5,0.2,1.1,0.3,1.7,0.3c1.2-0.1,2.2-0.5,2.9-1.4C91.6,89.9,91.9,88.9,91.8,87.7z"
				/>
			<path class="st1" d="M111.4,98.6c-0.9,0.1-1.9,0.1-2.8,0.1c-0.9,0-1.8,0-2.7-0.1L105.6,84l-5.2,0.1c-0.1-0.5-0.1-0.9-0.1-1.4
				s-0.1-1-0.1-1.4c0-1,0.1-2,0.2-3.1l5-0.2l-0.2-8.8c1.2-0.3,2.3-0.5,3.4-0.6c1.1-0.1,2.3-0.2,3.5-0.2c0.3,0,0.6,0,0.9,0
				c0.3,0,0.6,0,0.9,0l0.1,9.2l5.9-0.2c0,0.3,0.1,0.6,0.1,1c0,0.3,0,0.6,0,1c0,0.7-0.1,1.4-0.2,2.1c-0.1,0.7-0.3,1.4-0.5,2.1
				l-5.3,0.2l0.1,14.5C113.2,98.5,112.3,98.6,111.4,98.6z"/>
			<path class="st1" d="M131.2,99.2c-0.7,0-1.5-0.1-2.3-0.2c-0.8-0.1-1.6-0.3-2.4-0.5c-0.8-0.2-1.6-0.4-2.4-0.7
				c-0.8-0.3-1.5-0.5-2.2-0.8c-0.2-0.8-0.2-1.5-0.2-2.3c0-0.7,0.1-1.4,0.2-2.1c0.1-0.7,0.3-1.3,0.5-2c1.3,0.6,2.7,1.1,4.2,1.5
				c1.4,0.4,2.9,0.6,4.4,0.6c0.2,0,0.6,0,1,0c0.5,0,1,0,1.5-0.1c0.5-0.1,1-0.1,1.4-0.2c0.4-0.1,0.7-0.3,0.7-0.5
				c0-0.2-0.2-0.4-0.7-0.6c-0.4-0.1-0.9-0.2-1.5-0.3c-0.6-0.1-1.1-0.1-1.6-0.1c-0.5,0-0.8,0-0.9,0c-1.1-0.1-2.3-0.2-3.6-0.4
				c-1.2-0.2-2.4-0.6-3.4-1.1c-1-0.5-1.9-1.2-2.5-2.1c-0.7-0.9-1-2-1-3.5c0-1.4,0.4-2.6,1.2-3.6c0.8-1,1.8-1.8,3-2.4
				c1.2-0.6,2.5-1,3.9-1.3c1.4-0.3,2.6-0.4,3.8-0.4c1.5,0,2.9,0.1,4.4,0.4c1.5,0.3,2.9,0.6,4.3,1.1c0.1,0.4,0.1,0.8,0.1,1.2
				c0,0.4,0.1,0.8,0.1,1.3c0,0.7-0.1,1.3-0.2,2c-0.1,0.6-0.3,1.3-0.4,1.9c-1.1-0.5-2.3-0.8-3.5-1c-1.2-0.2-2.4-0.4-3.7-0.4
				c-0.2,0-0.5,0-1,0c-0.5,0-1,0.1-1.5,0.1c-0.5,0.1-1,0.2-1.4,0.4c-0.4,0.2-0.6,0.4-0.6,0.7c0,0.2,0.2,0.3,0.6,0.3
				c0.4,0.1,0.8,0.1,1.4,0.2c0.5,0,1,0.1,1.5,0.1c0.5,0,0.8,0,0.9,0c1.1,0,2.2,0.1,3.4,0.4c1.2,0.3,2.2,0.7,3.1,1.3
				c0.9,0.6,1.7,1.3,2.3,2.2c0.6,0.9,0.9,2,0.9,3.3c0,1.6-0.4,2.9-1.1,3.9c-0.8,1-1.7,1.7-2.9,2.3c-1.2,0.5-2.4,0.9-3.8,1
				C133.8,99.1,132.5,99.2,131.2,99.2z"/>
			<path class="st1" d="M169.2,86.6c0.2,1.5,0.1,2.8-0.2,4.2c-0.3,1.3-0.9,2.5-1.7,3.6c-0.8,1.1-1.7,2-2.9,2.7
				c-1.2,0.7-2.4,1.2-3.9,1.5c-0.7,0.1-1.4,0.2-2.2,0.1c-0.7,0-1.5-0.2-2.2-0.4c-0.7-0.2-1.4-0.5-2.1-0.9c-0.6-0.4-1.2-0.9-1.7-1.5
				l0.1,10.3c-1.3,0.2-2.6,0.3-4,0.3c-1.4,0-2.7-0.1-4-0.2l-0.2-27.9c1.2-0.2,2.5-0.3,3.9-0.3c1.3,0,2.6,0,3.9,0l0,1.9
				c0.6-0.7,1.4-1.2,2.3-1.6c0.9-0.4,2-0.7,3.2-0.8c1.4-0.2,2.8-0.1,4.1,0.3c1.3,0.4,2.5,1,3.6,1.8c1,0.8,1.9,1.8,2.6,3
				C168.5,83.8,169,85.1,169.2,86.6z M153.2,86.6c-0.3,0.5-0.5,1-0.5,1.5c0,0.5,0,1,0.2,1.5s0.5,0.9,0.8,1.3
				c0.4,0.4,0.8,0.7,1.3,0.9c0.5,0.2,1,0.3,1.6,0.3c0.6,0,1.1,0,1.7-0.2c0.5-0.1,1-0.4,1.5-0.7c0.5-0.3,0.8-0.7,1.1-1.2
				c0.3-0.5,0.5-1,0.5-1.5c0-0.5-0.1-1-0.2-1.5c-0.2-0.5-0.5-0.9-0.8-1.3c-0.4-0.4-0.8-0.7-1.3-0.9c-0.5-0.2-1-0.3-1.6-0.3
				c-0.6,0-1.1,0-1.7,0.2c-0.5,0.2-1,0.4-1.5,0.7C153.9,85.7,153.5,86.1,153.2,86.6z"/>
			<path class="st1" d="M193.7,83.5c-0.6-1.3-1.5-2.5-2.6-3.5c-1.1-1-2.4-1.8-3.9-2.4c-1.5-0.6-3.1-0.9-4.8-0.9
				c-1.7,0-3.3,0.3-4.8,0.9c-1.5,0.6-2.8,1.4-3.9,2.4c-1.1,1-2,2.2-2.6,3.5s-1,2.8-1,4.3c0,1.5,0.3,2.9,1,4.3
				c0.6,1.3,1.5,2.5,2.6,3.5c1.1,1,2.4,1.8,3.9,2.4c1.5,0.6,3.1,0.9,4.8,0.9c1.7,0,3.3-0.3,4.8-0.9c1.5-0.6,2.8-1.4,3.9-2.4
				c1.1-1,2-2.2,2.6-3.5c0.6-1.3,1-2.8,1-4.3C194.6,86.3,194.3,84.9,193.7,83.5z M185.5,90.8c-0.7,0.8-1.7,1.3-2.9,1.4
				c-0.6,0-1.2-0.1-1.7-0.3s-1-0.5-1.4-0.8c-0.4-0.4-0.7-0.8-1-1.3c-0.3-0.5-0.4-1.1-0.5-1.7c-0.1-1.2,0.2-2.3,0.9-3.1
				c0.7-0.8,1.7-1.3,2.9-1.3c0.6,0,1.2,0.1,1.7,0.3c0.5,0.2,1,0.5,1.4,0.8c0.4,0.4,0.7,0.8,1,1.3c0.3,0.5,0.4,1.1,0.5,1.7
				C186.6,88.9,186.3,89.9,185.5,90.8z"/>
			<path class="st1" d="M206,98.6c-0.9,0.1-1.9,0.1-2.8,0.1c-0.9,0-1.8,0-2.7-0.1L200.2,84l-5.2,0.1c-0.1-0.5-0.1-0.9-0.1-1.4
				s-0.1-1-0.1-1.4c0-1,0.1-2,0.2-3.1l5-0.2l-0.2-8.8c1.2-0.3,2.3-0.5,3.4-0.6c1.1-0.1,2.3-0.2,3.5-0.2c0.3,0,0.6,0,0.9,0
				c0.3,0,0.6,0,0.9,0l0.1,9.2l5.9-0.2c0,0.3,0.1,0.6,0.1,1c0,0.3,0,0.6,0,1c0,0.7-0.1,1.4-0.2,2.1c-0.1,0.7-0.3,1.4-0.5,2.1
				l-5.3,0.2l0.1,14.5C207.9,98.5,206.9,98.6,206,98.6z"/>
		</g>
		<g>
			<g id="XMLID_16_">
				<path id="XMLID_19_" class="st1" d="M176,73.4c-1.7,0.7-3,2-3.7,3.7c-0.3,0.7,0,1.4,0.7,1.7c0.7,0.3,1.4,0,1.7-0.7
					c0.4-1.1,1.3-1.9,2.3-2.3c1.1-0.4,2.2-0.4,3.3,0c0.3,0.1,0.7,0.1,1,0c0.3-0.1,0.6-0.4,0.7-0.7c0.3-0.7,0-1.4-0.7-1.7
					C179.6,72.6,177.7,72.6,176,73.4z"/>
				<path id="XMLID_18_" class="st1" d="M174.4,69.4c-2.8,1.2-4.9,3.3-6,6.1c-0.3,0.7,0,1.4,0.7,1.7c0.7,0.3,1.4,0,1.7-0.7
					c0.9-2.1,2.5-3.8,4.6-4.7c2.1-0.9,4.4-0.9,6.6,0c0.3,0.1,0.7,0.1,1,0c0.3-0.1,0.6-0.4,0.7-0.7c0.3-0.7,0-1.4-0.7-1.7
					C180.2,68.2,177.1,68.2,174.4,69.4z"/>
				<path id="XMLID_17_" class="st1" d="M184.6,65.4c-3.8-1.6-8-1.6-11.9,0s-6.8,4.6-8.4,8.4c-0.3,0.7,0,1.4,0.7,1.7
					c0.3,0.1,0.7,0.1,1,0c0.3-0.1,0.6-0.4,0.7-0.7c1.3-3.2,3.8-5.7,7-7c3.2-1.3,6.7-1.3,9.9,0c0.7,0.3,1.4,0,1.7-0.7
					C185.6,66.4,185.2,65.6,184.6,65.4z"/>
			</g>
		</g>
	</g>
</g>
<g id="Layer_6">
	<g>
		<path class="st1" d="M35.4,136.7c0-0.8,0.2-1.4,0.6-1.9c0.4-0.4,1-0.7,1.8-0.7c0.8,0,1.4,0.2,1.8,0.7c0.4,0.4,0.6,1.1,0.6,1.9v5.2
			c0,0.8-0.2,1.4-0.6,1.9c-0.4,0.4-1,0.7-1.8,0.7c-0.8,0-1.4-0.2-1.8-0.7c-0.4-0.4-0.6-1.1-0.6-1.9V136.7z M37,142
			c0,0.4,0.1,0.6,0.2,0.8c0.1,0.1,0.3,0.2,0.6,0.2s0.4-0.1,0.6-0.2c0.1-0.1,0.2-0.4,0.2-0.8v-5.4c0-0.4-0.1-0.6-0.2-0.8
			c-0.1-0.1-0.3-0.2-0.6-0.2s-0.4,0.1-0.6,0.2c-0.1,0.1-0.2,0.4-0.2,0.8V142z"/>
		<path class="st1" d="M42.6,137.1v7.2h-1.4v-10h2l1.6,6v-6h1.4v10h-1.6L42.6,137.1z"/>
		<path class="st1" d="M47.3,134.3h1.6v8.6h2.6v1.4h-4.2V134.3z"/>
		<path class="st1" d="M52.2,134.3h1.6v10h-1.6V134.3z"/>
		<path class="st1" d="M56.3,137.1v7.2h-1.4v-10h2l1.6,6v-6h1.4v10h-1.6L56.3,137.1z"/>
		<path class="st1" d="M62.6,138.6h2.2v1.4h-2.2v2.9h2.7v1.4H61v-10h4.3v1.4h-2.7V138.6z"/>
		<path class="st1" d="M70.8,138.8H73v3.2c0,0.8-0.2,1.4-0.6,1.9c-0.4,0.4-1,0.7-1.8,0.7c-0.8,0-1.4-0.2-1.8-0.7
			c-0.4-0.4-0.6-1.1-0.6-1.9v-5.2c0-0.8,0.2-1.4,0.6-1.9c0.4-0.4,1-0.7,1.8-0.7c0.8,0,1.4,0.2,1.8,0.7c0.4,0.4,0.6,1.1,0.6,1.9v1
			h-1.5v-1.1c0-0.4-0.1-0.6-0.2-0.8c-0.1-0.1-0.3-0.2-0.6-0.2s-0.4,0.1-0.6,0.2c-0.1,0.1-0.2,0.4-0.2,0.8v5.4c0,0.4,0.1,0.6,0.2,0.8
			c0.1,0.1,0.3,0.2,0.6,0.2s0.4-0.1,0.6-0.2c0.1-0.1,0.2-0.4,0.2-0.8v-1.8h-0.7V138.8z"/>
		<path class="st1" d="M79.1,144.3h-1.6l-0.3-1.8h-1.9l-0.3,1.8h-1.4l1.6-10h2.3L79.1,144.3z M75.5,141.2h1.5l-0.8-5.1L75.5,141.2z"
			/>
		<path class="st1" d="M83.2,141.4l1.1-7.1h2.2v10H85v-7.2l-1.1,7.2h-1.5l-1.2-7.1v7.1h-1.4v-10H82L83.2,141.4z"/>
		<path class="st1" d="M89.2,138.6h2.2v1.4h-2.2v2.9h2.7v1.4h-4.3v-10h4.3v1.4h-2.7V138.6z"/>
		<path class="st1" d="M92.7,136.7c0-0.8,0.2-1.4,0.6-1.9c0.4-0.4,1-0.7,1.7-0.7c0.8,0,1.4,0.2,1.7,0.7c0.4,0.4,0.6,1.1,0.6,1.9v0.4
			h-1.5v-0.5c0-0.4-0.1-0.6-0.2-0.8c-0.1-0.1-0.3-0.2-0.6-0.2c-0.2,0-0.4,0.1-0.6,0.2c-0.1,0.1-0.2,0.4-0.2,0.8
			c0,0.3,0.1,0.6,0.2,0.9c0.2,0.3,0.3,0.5,0.6,0.7c0.2,0.2,0.5,0.5,0.7,0.7c0.3,0.2,0.5,0.5,0.7,0.8c0.2,0.3,0.4,0.6,0.6,0.9
			c0.2,0.4,0.2,0.8,0.2,1.2c0,0.8-0.2,1.4-0.6,1.9c-0.4,0.4-1,0.7-1.8,0.7s-1.4-0.2-1.8-0.7c-0.4-0.4-0.6-1.1-0.6-1.9v-0.7h1.5v0.8
			c0,0.4,0.1,0.6,0.2,0.8c0.1,0.1,0.3,0.2,0.6,0.2s0.4-0.1,0.6-0.2c0.1-0.1,0.2-0.4,0.2-0.8c0-0.3-0.1-0.6-0.2-0.9
			c-0.2-0.3-0.3-0.5-0.6-0.7c-0.2-0.2-0.5-0.5-0.7-0.7c-0.3-0.2-0.5-0.5-0.7-0.8c-0.2-0.3-0.4-0.6-0.6-0.9
			C92.7,137.6,92.7,137.2,92.7,136.7z"/>
		<path class="st1" d="M102.9,133.4h1.3v11.9h-1.3V133.4z"/>
		<path class="st1" d="M109.6,136.7c0-0.8,0.2-1.4,0.6-1.9c0.4-0.4,1-0.7,1.7-0.7c0.8,0,1.4,0.2,1.7,0.7c0.4,0.4,0.6,1.1,0.6,1.9
			v0.4h-1.5v-0.5c0-0.4-0.1-0.6-0.2-0.8c-0.1-0.1-0.3-0.2-0.6-0.2c-0.2,0-0.4,0.1-0.6,0.2c-0.1,0.1-0.2,0.4-0.2,0.8
			c0,0.3,0.1,0.6,0.2,0.9s0.3,0.5,0.6,0.7c0.2,0.2,0.5,0.5,0.7,0.7c0.3,0.2,0.5,0.5,0.7,0.8s0.4,0.6,0.6,0.9
			c0.2,0.4,0.2,0.8,0.2,1.2c0,0.8-0.2,1.4-0.6,1.9c-0.4,0.4-1,0.7-1.8,0.7s-1.4-0.2-1.8-0.7c-0.4-0.4-0.6-1.1-0.6-1.9v-0.7h1.5v0.8
			c0,0.4,0.1,0.6,0.2,0.8c0.1,0.1,0.3,0.2,0.6,0.2s0.4-0.1,0.6-0.2c0.1-0.1,0.2-0.4,0.2-0.8c0-0.3-0.1-0.6-0.2-0.9
			c-0.2-0.3-0.3-0.5-0.6-0.7c-0.2-0.2-0.5-0.5-0.7-0.7c-0.3-0.2-0.5-0.5-0.7-0.8c-0.2-0.3-0.4-0.6-0.6-0.9S109.6,137.2,109.6,136.7z
			"/>
		<path class="st1" d="M114.7,134.3h4.9v1.4h-1.6v8.6h-1.6v-8.6h-1.6V134.3z"/>
		<path class="st1" d="M123.6,144.3c0-0.1,0-0.1-0.1-0.2c0-0.1,0-0.1,0-0.2c0-0.1,0-0.2,0-0.3c0-0.1,0-0.3,0-0.5v-1.6
			c0-0.5-0.1-0.8-0.2-1c-0.2-0.2-0.4-0.3-0.8-0.3h-0.5v4.1h-1.6v-10h2.4c0.8,0,1.4,0.2,1.8,0.6c0.4,0.4,0.6,1,0.6,1.7v0.8
			c0,1-0.3,1.7-1,2c0.4,0.2,0.7,0.4,0.8,0.8c0.1,0.4,0.2,0.8,0.2,1.3v1.5c0,0.2,0,0.5,0,0.7c0,0.2,0.1,0.4,0.1,0.6H123.6z
			 M121.9,135.8v3.1h0.6c0.3,0,0.5-0.1,0.7-0.2c0.2-0.2,0.3-0.4,0.3-0.8v-1c0-0.4-0.1-0.6-0.2-0.8c-0.1-0.2-0.3-0.2-0.6-0.2H121.9z"
			/>
		<path class="st1" d="M127.6,138.6h2.2v1.4h-2.2v2.9h2.7v1.4H126v-10h4.3v1.4h-2.7V138.6z"/>
		<path class="st1" d="M136.4,144.3h-1.6l-0.3-1.8h-1.9l-0.3,1.8h-1.4l1.6-10h2.3L136.4,144.3z M132.8,141.2h1.5l-0.8-5.1
			L132.8,141.2z"/>
		<path class="st1" d="M140.4,141.4l1.1-7.1h2.2v10h-1.5v-7.2l-1.1,7.2h-1.5l-1.2-7.1v7.1h-1.4v-10h2.2L140.4,141.4z"/>
		<path class="st1" d="M144.8,134.3h1.6v10h-1.6V134.3z"/>
		<path class="st1" d="M149,137.1v7.2h-1.4v-10h2l1.6,6v-6h1.4v10h-1.6L149,137.1z"/>
		<path class="st1" d="M156,138.8h2.2v3.2c0,0.8-0.2,1.4-0.6,1.9c-0.4,0.4-1,0.7-1.8,0.7s-1.4-0.2-1.8-0.7c-0.4-0.4-0.6-1.1-0.6-1.9
			v-5.2c0-0.8,0.2-1.4,0.6-1.9c0.4-0.4,1-0.7,1.8-0.7s1.4,0.2,1.8,0.7c0.4,0.4,0.6,1.1,0.6,1.9v1h-1.5v-1.1c0-0.4-0.1-0.6-0.2-0.8
			c-0.1-0.1-0.3-0.2-0.6-0.2c-0.2,0-0.4,0.1-0.6,0.2c-0.1,0.1-0.2,0.4-0.2,0.8v5.4c0,0.4,0.1,0.6,0.2,0.8c0.1,0.1,0.3,0.2,0.6,0.2
			c0.2,0,0.4-0.1,0.6-0.2c0.1-0.1,0.2-0.4,0.2-0.8v-1.8H156V138.8z"/>
		<path class="st1" d="M163.9,133.4h1.3v11.9h-1.3V133.4z"/>
		<path class="st1" d="M173.2,134.3c0.8,0,1.4,0.2,1.8,0.6c0.4,0.4,0.6,1,0.6,1.7v0.4c0,0.5-0.1,0.9-0.2,1.3
			c-0.2,0.3-0.4,0.6-0.8,0.7c0.4,0.2,0.7,0.4,0.9,0.8c0.2,0.4,0.3,0.8,0.3,1.4v0.8c0,0.8-0.2,1.4-0.6,1.8c-0.4,0.4-1,0.6-1.8,0.6
			h-2.5v-10H173.2z M172.4,135.8v2.6h0.6c0.3,0,0.5-0.1,0.7-0.2c0.2-0.2,0.3-0.4,0.3-0.8v-0.6c0-0.4-0.1-0.6-0.2-0.8
			c-0.1-0.2-0.3-0.2-0.6-0.2H172.4z M172.4,139.8v3.1h0.9c0.3,0,0.5-0.1,0.6-0.2c0.1-0.1,0.2-0.4,0.2-0.8v-0.9c0-0.5-0.1-0.8-0.2-1
			c-0.2-0.2-0.4-0.3-0.8-0.3H172.4z"/>
		<path class="st1" d="M179.9,144.3c0-0.1,0-0.1-0.1-0.2c0-0.1,0-0.1-0.1-0.2c0-0.1,0-0.2,0-0.3c0-0.1,0-0.3,0-0.5v-1.6
			c0-0.5-0.1-0.8-0.2-1c-0.2-0.2-0.4-0.3-0.8-0.3h-0.5v4.1h-1.6v-10h2.4c0.8,0,1.4,0.2,1.8,0.6c0.4,0.4,0.6,1,0.6,1.7v0.8
			c0,1-0.3,1.7-1,2c0.4,0.2,0.7,0.4,0.8,0.8c0.1,0.4,0.2,0.8,0.2,1.3v1.5c0,0.2,0,0.5,0,0.7c0,0.2,0.1,0.4,0.1,0.6H179.9z
			 M178.2,135.8v3.1h0.6c0.3,0,0.5-0.1,0.7-0.2c0.2-0.2,0.3-0.4,0.3-0.8v-1c0-0.4-0.1-0.6-0.2-0.8c-0.1-0.2-0.3-0.2-0.6-0.2H178.2z"
			/>
		<path class="st1" d="M182.2,136.7c0-0.8,0.2-1.4,0.6-1.9c0.4-0.4,1-0.7,1.8-0.7s1.4,0.2,1.8,0.7c0.4,0.4,0.6,1.1,0.6,1.9v5.2
			c0,0.8-0.2,1.4-0.6,1.9c-0.4,0.4-1,0.7-1.8,0.7s-1.4-0.2-1.8-0.7c-0.4-0.4-0.6-1.1-0.6-1.9V136.7z M183.8,142
			c0,0.4,0.1,0.6,0.2,0.8c0.1,0.1,0.3,0.2,0.6,0.2c0.2,0,0.4-0.1,0.6-0.2c0.1-0.1,0.2-0.4,0.2-0.8v-5.4c0-0.4-0.1-0.6-0.2-0.8
			c-0.1-0.1-0.3-0.2-0.6-0.2c-0.2,0-0.4,0.1-0.6,0.2c-0.1,0.1-0.2,0.4-0.2,0.8V142z"/>
		<path class="st1" d="M191.5,139l-0.6,5.3h-2.2l-1.1-10h1.5l0.8,7.9l0.8-7.9h1.5l0.8,7.9l0.8-7.9h1.4l-1.1,10h-2.1L191.5,139z"/>
		<path class="st1" d="M195.9,136.7c0-0.8,0.2-1.4,0.6-1.9c0.4-0.4,1-0.7,1.7-0.7s1.4,0.2,1.7,0.7c0.4,0.4,0.6,1.1,0.6,1.9v0.4H199
			v-0.5c0-0.4-0.1-0.6-0.2-0.8c-0.1-0.1-0.3-0.2-0.6-0.2c-0.2,0-0.4,0.1-0.6,0.2c-0.1,0.1-0.2,0.4-0.2,0.8c0,0.3,0.1,0.6,0.2,0.9
			c0.2,0.3,0.3,0.5,0.6,0.7c0.2,0.2,0.5,0.5,0.7,0.7c0.3,0.2,0.5,0.5,0.7,0.8c0.2,0.3,0.4,0.6,0.6,0.9c0.2,0.4,0.2,0.8,0.2,1.2
			c0,0.8-0.2,1.4-0.6,1.9c-0.4,0.4-1,0.7-1.8,0.7c-0.8,0-1.4-0.2-1.8-0.7c-0.4-0.4-0.6-1.1-0.6-1.9v-0.7h1.5v0.8
			c0,0.4,0.1,0.6,0.2,0.8c0.1,0.1,0.3,0.2,0.6,0.2c0.2,0,0.4-0.1,0.6-0.2c0.1-0.1,0.2-0.4,0.2-0.8c0-0.3-0.1-0.6-0.2-0.9
			c-0.2-0.3-0.3-0.5-0.6-0.7c-0.2-0.2-0.5-0.5-0.7-0.7c-0.3-0.2-0.5-0.5-0.7-0.8c-0.2-0.3-0.4-0.6-0.6-0.9S195.9,137.2,195.9,136.7z
			"/>
		<path class="st1" d="M201.4,134.3h1.6v10h-1.6V134.3z"/>
		<path class="st1" d="M205.5,137.1v7.2h-1.4v-10h2l1.6,6v-6h1.4v10h-1.6L205.5,137.1z"/>
		<path class="st1" d="M212.6,138.8h2.2v3.2c0,0.8-0.2,1.4-0.6,1.9c-0.4,0.4-1,0.7-1.8,0.7s-1.4-0.2-1.8-0.7
			c-0.4-0.4-0.6-1.1-0.6-1.9v-5.2c0-0.8,0.2-1.4,0.6-1.9c0.4-0.4,1-0.7,1.8-0.7s1.4,0.2,1.8,0.7c0.4,0.4,0.6,1.1,0.6,1.9v1h-1.5
			v-1.1c0-0.4-0.1-0.6-0.2-0.8c-0.1-0.1-0.3-0.2-0.6-0.2s-0.4,0.1-0.6,0.2c-0.1,0.1-0.2,0.4-0.2,0.8v5.4c0,0.4,0.1,0.6,0.2,0.8
			c0.1,0.1,0.3,0.2,0.6,0.2s0.4-0.1,0.6-0.2c0.1-0.1,0.2-0.4,0.2-0.8v-1.8h-0.7V138.8z"/>
	</g>
</g>
</svg>
