<?xml version="1.0" encoding="utf-8"?>
<!-- Generator: Adobe Illustrator 21.0.1, SVG Export Plug-In . SVG Version: 6.00 Build 0)  -->
<svg version="1.1" id="Layer_1" xmlns="http://www.w3.org/2000/svg" xmlns:xlink="http://www.w3.org/1999/xlink" x="0px" y="0px"
	 viewBox="0 0 200 40" style="enable-background:new 0 0 200 40;" xml:space="preserve">
<style type="text/css">
	.st0{fill:#FFFFFF;}
	.st1{fill:none;}
</style>
<g>
	<polygon class="st0" points="45.4,23.3 43.2,9.6 39,9.6 39,28.8 41.6,28.8 41.6,15.2 43.9,28.8 46.7,28.8 48.8,15 48.8,28.8 
		51.7,28.8 51.7,9.6 47.5,9.6 	"/>
	<polygon class="st0" points="53.9,28.8 62.1,28.8 62.1,26.1 56.9,26.1 56.9,20.5 61,20.5 61,17.7 56.9,17.7 56.9,12.4 62.1,12.4 
		62.1,9.6 53.9,9.6 	"/>
	<polygon class="st0" points="70.4,23.3 68.2,9.6 63.9,9.6 63.9,28.8 66.6,28.8 66.6,15.2 68.8,28.8 71.7,28.8 73.8,15 73.8,28.8 
		76.6,28.8 76.6,9.6 72.4,9.6 	"/>
	<path class="st0" d="M85.9,18.6c0.7-0.3,1.2-0.8,1.5-1.4c0.3-0.6,0.5-1.5,0.5-2.4V14c0-1.5-0.4-2.6-1.1-3.3
		C86.1,10,85,9.6,83.4,9.6h-4.6v19.2h4.8c1.5,0,2.7-0.4,3.4-1.2c0.8-0.8,1.2-1.9,1.2-3.4v-1.6c0-1-0.2-1.9-0.5-2.6
		C87.3,19.4,86.8,18.9,85.9,18.6z M81.9,12.4h1.5c0.5,0,0.9,0.2,1.2,0.5c0.2,0.3,0.4,0.8,0.4,1.5v1.1c0,0.8-0.2,1.3-0.5,1.6
		c-0.3,0.3-0.8,0.4-1.3,0.4h-1.2V12.4z M85.2,24.2c0,0.7-0.1,1.2-0.4,1.5c-0.3,0.3-0.7,0.4-1.2,0.4h-1.7v-5.9h1.3
		c0.7,0,1.2,0.2,1.5,0.5s0.5,0.9,0.5,1.8V24.2z"/>
	<polygon class="st0" points="90,28.8 98.2,28.8 98.2,26.1 93,26.1 93,20.5 97.2,20.5 97.2,17.7 93,17.7 93,12.4 98.2,12.4 
		98.2,9.6 90,9.6 	"/>
	<path class="st0" d="M109.2,26.5v-3c0-1-0.1-1.9-0.4-2.6c-0.3-0.7-0.8-1.2-1.6-1.5c1.3-0.6,2-1.9,2-3.9V14c0-1.5-0.4-2.6-1.1-3.3
		c-0.7-0.7-1.8-1.1-3.4-1.1h-4.6v19.2h3V21h1c0.7,0,1.2,0.2,1.5,0.5c0.3,0.4,0.5,1,0.5,1.9v3c0,0.4,0,0.7,0,1c0,0.3,0,0.5,0.1,0.6
		s0.1,0.3,0.1,0.4c0,0.1,0.1,0.2,0.1,0.4h3.1c-0.1-0.4-0.2-0.7-0.3-1.1C109.2,27.4,109.2,27,109.2,26.5z M106.1,16.2
		c0,0.8-0.2,1.3-0.5,1.6c-0.3,0.3-0.8,0.4-1.3,0.4h-1.2v-5.9h1.5c0.5,0,0.9,0.2,1.2,0.5s0.4,0.8,0.4,1.5V16.2z"/>
	<polygon class="st0" points="118.4,9.6 115.4,9.6 115.4,28.8 123.4,28.8 123.4,26.1 118.4,26.1 	"/>
	<path class="st0" d="M129.1,9.4c-1.5,0-2.6,0.4-3.4,1.3c-0.8,0.8-1.2,2-1.2,3.6v10c0,1.6,0.4,2.8,1.2,3.6c0.8,0.8,1.9,1.3,3.4,1.3
		s2.6-0.4,3.4-1.3c0.8-0.8,1.2-2,1.2-3.6v-10c0-1.6-0.4-2.8-1.2-3.6C131.8,9.8,130.6,9.4,129.1,9.4z M130.7,24.4
		c0,0.7-0.1,1.2-0.4,1.5s-0.7,0.4-1.1,0.4s-0.9-0.1-1.1-0.4s-0.4-0.8-0.4-1.5V14c0-0.7,0.1-1.2,0.4-1.5c0.3-0.3,0.7-0.4,1.1-0.4
		s0.9,0.1,1.1,0.4c0.3,0.3,0.4,0.8,0.4,1.5V24.4z"/>
	<path class="st0" d="M139.9,9.4c-1.5,0-2.6,0.4-3.4,1.3c-0.8,0.8-1.1,2-1.1,3.6v10c0,1.6,0.4,2.8,1.1,3.6c0.8,0.8,1.9,1.3,3.4,1.3
		c1.5,0,2.6-0.4,3.4-1.3c0.8-0.8,1.1-2,1.1-3.6v-6.1h-4.2v2.7h1.4v3.5c0,0.7-0.1,1.2-0.4,1.5c-0.3,0.3-0.7,0.4-1.1,0.4
		s-0.9-0.1-1.1-0.4c-0.3-0.3-0.4-0.8-0.4-1.5V14c0-0.7,0.1-1.2,0.4-1.5c0.3-0.3,0.7-0.4,1.1-0.4s0.9,0.1,1.1,0.4
		c0.3,0.3,0.4,0.8,0.4,1.5v2.1h2.9v-1.9c0-1.6-0.4-2.8-1.1-3.6C142.5,9.8,141.4,9.4,139.9,9.4z"/>
	<rect x="146.4" y="9.6" class="st0" width="3" height="19.2"/>
	<polygon class="st0" points="158.5,9.6 158.5,21.1 155.4,9.6 151.6,9.6 151.6,28.8 154.3,28.8 154.3,14.9 158.1,28.8 161.2,28.8 
		161.2,9.6 	"/>
</g>
<rect x="0.1" class="st1" width="200" height="40"/>
</svg>
