<?xml version="1.0" encoding="utf-8"?>
<!-- Generator: Adobe Illustrator 21.0.1, SVG Export Plug-In . SVG Version: 6.00 Build 0)  -->
<svg version="1.1" id="Layer_1" xmlns="http://www.w3.org/2000/svg" xmlns:xlink="http://www.w3.org/1999/xlink" x="0px" y="0px"
	 viewBox="0 0 267 245.6" style="enable-background:new 0 0 267 245.6;" xml:space="preserve">
<style type="text/css">
	.st0{fill:url(#SVGID_1_);}
	.st1{opacity:0.49;fill:none;stroke:#000000;stroke-miterlimit:10;enable-background:new    ;}
	.st2{fill:#8C8C8C;}
	.st3{fill:url(#SVGID_2_);}
	.st4{opacity:0.49;fill:none;stroke:url(#SVGID_3_);stroke-miterlimit:10;enable-background:new    ;}
	.st5{opacity:0.49;fill:none;stroke:url(#SVGID_4_);stroke-miterlimit:10;enable-background:new    ;}
	.st6{opacity:0.49;fill:none;stroke:url(#SVGID_5_);stroke-miterlimit:10;enable-background:new    ;}
	.st7{opacity:0.49;fill:none;stroke:url(#SVGID_6_);stroke-miterlimit:10;enable-background:new    ;}
	.st8{opacity:0.49;fill:none;stroke:url(#SVGID_7_);stroke-miterlimit:10;enable-background:new    ;}
	.st9{opacity:0.49;fill:none;stroke:url(#SVGID_8_);stroke-miterlimit:10;enable-background:new    ;}
</style>
<g id="Layer_14">
	
		<linearGradient id="SVGID_1_" gradientUnits="userSpaceOnUse" x1="49.8567" y1="-718.1703" x2="62.2567" y2="-718.1703" gradientTransform="matrix(1 0 0 1 0 736)">
		<stop  offset="0" style="stop-color:#63E2FF"/>
		<stop  offset="1" style="stop-color:#B066FE"/>
	</linearGradient>
	<ellipse class="st0" cx="56.1" cy="17.8" rx="6.2" ry="6.2"/>
	<ellipse transform="matrix(0.9363 -0.3512 0.3512 0.9363 -2.078 20.0022)" class="st1" cx="54.1" cy="15.7" rx="6.2" ry="6.2"/>
	<path class="st2" d="M256.7,11L256.7,11c-0.8,0.5-1.9,0.3-2.2-0.5L247-3.9c-0.5-0.8-0.3-1.9,0.5-2.2l0,0c0.8-0.5,1.9-0.3,2.2,0.5
		l7.6,14.4C257.8,9.7,257.5,10.5,256.7,11z"/>
	<path class="st2" d="M243.7,7L243.7,7c-0.5-0.8-0.3-1.9,0.5-2.2l14.4-7.6c0.8-0.5,1.9-0.3,2.2,0.5l0,0c0.5,0.8,0.3,1.9-0.5,2.2
		l-14.6,7.6C245.1,8,244,7.8,243.7,7z"/>
</g>
<linearGradient id="SVGID_2_" gradientUnits="userSpaceOnUse" x1="197.8559" y1="-717.3" x2="210.2559" y2="-717.3" gradientTransform="matrix(-1 0 0 1 414.1978 736)">
	<stop  offset="0" style="stop-color:#63E2FF"/>
	<stop  offset="1" style="stop-color:#B066FE"/>
</linearGradient>
<ellipse class="st3" cx="210.1" cy="18.7" rx="6.2" ry="6.2"/>
<ellipse transform="matrix(0.3512 -0.9363 0.9363 0.3512 122.0616 209.3547)" class="st1" cx="212.1" cy="16.6" rx="6.2" ry="6.2"/>
<linearGradient id="SVGID_3_" gradientUnits="userSpaceOnUse" x1="-81.9814" y1="584.0233" x2="8.8752" y2="584.0233" gradientTransform="matrix(1 0 0 -1 0 776)">
	<stop  offset="0" style="stop-color:#63E2FF"/>
	<stop  offset="1" style="stop-color:#B066FE"/>
</linearGradient>
<path class="st4" d="M6.5,196.2l-42.3,38.9c-2.4,2.2-6.2,2.1-8.3-0.3L-79.9,196c-2.2-2.4-2.1-6.2,0.3-8.3l42.3-38.9
	c2.4-2.2,6.2-2.1,8.3,0.3l35.8,38.8C9,190.3,8.9,194,6.5,196.2z"/>
<linearGradient id="SVGID_4_" gradientUnits="userSpaceOnUse" x1="-69.2814" y1="588.7233" x2="21.5363" y2="588.7233" gradientTransform="matrix(1 0 0 -1 0 776)">
	<stop  offset="0" style="stop-color:#63E2FF"/>
	<stop  offset="1" style="stop-color:#B066FE"/>
</linearGradient>
<path class="st5" d="M19.2,191.5l-42.3,38.9c-2.4,2.2-6.2,2.1-8.3-0.3l-35.8-38.8c-2.2-2.4-2.1-6.2,0.3-8.3l42.3-38.9
	c2.4-2.2,6.2-2.1,8.3,0.3l35.8,38.8C21.6,185.6,21.6,189.3,19.2,191.5z"/>
<linearGradient id="SVGID_5_" gradientUnits="userSpaceOnUse" x1="-75.0814" y1="586.6733" x2="15.8292" y2="586.6733" gradientTransform="matrix(1 0 0 -1 0 776)">
	<stop  offset="0" style="stop-color:#63E2FF"/>
	<stop  offset="1" style="stop-color:#B066FE"/>
</linearGradient>
<path class="st6" d="M13.4,193.6l-42.3,38.9c-2.4,2.2-6.2,2.1-8.3-0.3L-73,193.4c-2.2-2.4-2.1-6.2,0.3-8.3l42.4-39
	c2.4-2.2,6.2-2.1,8.3,0.3l35.8,38.8C16,187.6,15.8,191.4,13.4,193.6z"/>
<linearGradient id="SVGID_6_" gradientUnits="userSpaceOnUse" x1="251.6145" y1="618.2051" x2="338.7134" y2="618.2051" gradientTransform="matrix(1 0 0 -1 0 776)">
	<stop  offset="0" style="stop-color:#63E2FF"/>
	<stop  offset="1" style="stop-color:#B066FE"/>
</linearGradient>
<path class="st7" d="M335.9,165.4l-43.4,33.8c-2.6,2-6.3,1.5-8.2-1l-31-39.8c-2-2.6-1.5-6.3,1-8.2l43.4-33.8c2.6-2,6.3-1.5,8.2,1
	l31,39.8C338.9,159.6,338.5,163.4,335.9,165.4z"/>
<linearGradient id="SVGID_7_" gradientUnits="userSpaceOnUse" x1="264.1144" y1="621.8052" x2="351.2557" y2="621.8052" gradientTransform="matrix(1 0 0 -1 0 776)">
	<stop  offset="0" style="stop-color:#63E2FF"/>
	<stop  offset="1" style="stop-color:#B066FE"/>
</linearGradient>
<path class="st8" d="M348.4,161.8L305,195.6c-2.6,2-6.3,1.5-8.2-1l-31-39.8c-2-2.6-1.5-6.3,1-8.2l43.4-33.8c2.6-2,6.3-1.5,8.2,1
	l31,39.8C351.5,156.1,351,159.9,348.4,161.8z"/>
<linearGradient id="SVGID_8_" gradientUnits="userSpaceOnUse" x1="258.4144" y1="620.2051" x2="345.5557" y2="620.2051" gradientTransform="matrix(1 0 0 -1 0 776)">
	<stop  offset="0" style="stop-color:#63E2FF"/>
	<stop  offset="1" style="stop-color:#B066FE"/>
</linearGradient>
<path class="st9" d="M342.7,163.4l-43.4,33.8c-2.6,2-6.3,1.5-8.2-1l-31-39.8c-2-2.6-1.5-6.3,1-8.2l43.4-33.8c2.6-2,6.3-1.5,8.2,1
	l31,39.8C345.8,157.7,345.3,161.4,342.7,163.4z"/>
</svg>
