<?xml version="1.0" encoding="utf-8"?>
<!-- Generator: Adobe Illustrator 21.0.1, SVG Export Plug-In . SVG Version: 6.00 Build 0)  -->
<svg version="1.1" id="Layer_1" xmlns="http://www.w3.org/2000/svg" xmlns:xlink="http://www.w3.org/1999/xlink" x="0px" y="0px"
	 viewBox="0 0 200 40" style="enable-background:new 0 0 200 40;" xml:space="preserve">
<style type="text/css">
	.st0{fill:#FFFFFF;}
</style>
<g>
	<path class="st0" d="M82.4,28.1c0-0.1-0.1-0.2-0.1-0.3s-0.1-0.2-0.1-0.4c0-0.2,0-0.4-0.1-0.6c0-0.2,0-0.6,0-0.9v-2.9
		c0-0.9-0.2-1.5-0.5-1.8c-0.3-0.4-0.8-0.5-1.5-0.5h-1v7.6h-2.9V9.4h4.4c1.5,0,2.6,0.4,3.3,1.1c0.7,0.7,1,1.8,1,3.2v1.5
		c0,1.9-0.6,3.2-1.9,3.8c0.7,0.3,1.3,0.8,1.5,1.5c0.3,0.7,0.4,1.5,0.4,2.5v2.9c0,0.5,0,0.9,0.1,1.2c0,0.3,0.1,0.7,0.3,1.1H82.4z
		 M79.2,12.1v5.7h1.1c0.5,0,1-0.1,1.3-0.4c0.3-0.3,0.5-0.8,0.5-1.5V14c0-0.7-0.1-1.2-0.4-1.5c-0.2-0.3-0.6-0.5-1.1-0.5H79.2z"/>
	<path class="st0" d="M96.4,28.1h-3L93,24.7h-3.6l-0.5,3.4h-2.7l3-18.6h4.3L96.4,28.1z M89.7,22.2h2.8l-1.4-9.4L89.7,22.2z"/>
	<path class="st0" d="M96,9.4h9.1v2.7H102v16H99v-16H96V9.4z"/>
	<path class="st0" d="M109.3,17.3h4v2.7h-4v5.5h5.1v2.7h-8V9.4h8v2.7h-5.1V17.3z"/>
	<path class="st0" d="M115.8,13.9c0-1.5,0.4-2.7,1.1-3.5s1.8-1.2,3.2-1.2s2.5,0.4,3.2,1.2s1.1,2,1.1,3.5v0.7h-2.8v-0.9
		c0-0.7-0.1-1.1-0.4-1.4c-0.3-0.3-0.6-0.4-1.1-0.4c-0.5,0-0.8,0.1-1.1,0.4c-0.3,0.3-0.4,0.8-0.4,1.4c0,0.6,0.1,1.2,0.4,1.7
		c0.3,0.5,0.6,0.9,1.1,1.4c0.4,0.4,0.9,0.9,1.4,1.3s0.9,0.9,1.4,1.4s0.8,1.1,1.1,1.8c0.3,0.7,0.4,1.4,0.4,2.3c0,1.5-0.4,2.7-1.1,3.5
		s-1.8,1.2-3.3,1.2s-2.5-0.4-3.3-1.2s-1.1-2-1.1-3.5v-1.3h2.8v1.5c0,0.7,0.1,1.1,0.4,1.4c0.3,0.3,0.6,0.4,1.1,0.4
		c0.5,0,0.8-0.1,1.1-0.4c0.3-0.3,0.4-0.7,0.4-1.4c0-0.6-0.1-1.2-0.4-1.7c-0.3-0.5-0.6-0.9-1.1-1.4c-0.4-0.4-0.9-0.9-1.4-1.3
		c-0.5-0.4-0.9-0.9-1.4-1.4c-0.4-0.5-0.8-1.1-1.1-1.8C115.9,15.6,115.8,14.8,115.8,13.9z"/>
</g>
</svg>
