<?xml version="1.0" encoding="utf-8"?>
<!-- Generator: Adobe Illustrator 21.0.1, SVG Export Plug-In . SVG Version: 6.00 Build 0)  -->
<svg version="1.1" id="Layer_1" xmlns="http://www.w3.org/2000/svg" xmlns:xlink="http://www.w3.org/1999/xlink" x="0px" y="0px"
	 viewBox="0 0 250 54.7" style="enable-background:new 0 0 250 54.7;" xml:space="preserve">
<style type="text/css">
	.st0{fill:url(#SVGID_1_);}
	.st1{fill:none;stroke:url(#SVGID_2_);stroke-width:0.75;stroke-miterlimit:10;}
	.st2{fill:none;stroke:url(#SVGID_3_);stroke-width:0.75;stroke-miterlimit:10;}
	.st3{fill:none;stroke:url(#SVGID_4_);stroke-width:0.75;stroke-miterlimit:10;}
	.st4{fill:none;stroke:url(#SVGID_5_);stroke-width:0.75;stroke-miterlimit:10;}
	.st5{fill:none;stroke:url(#SVGID_6_);stroke-width:0.75;stroke-miterlimit:10;}
	.st6{fill:none;stroke:url(#SVGID_7_);stroke-width:0.75;stroke-miterlimit:10;}
	.st7{fill:none;stroke:url(#SVGID_8_);stroke-width:0.75;stroke-miterlimit:10;}
</style>
<linearGradient id="SVGID_1_" gradientUnits="userSpaceOnUse" x1="4.9" y1="27.3" x2="247.8" y2="27.3">
	<stop  offset="0" style="stop-color:#B22D91"/>
	<stop  offset="1" style="stop-color:#312A6C"/>
</linearGradient>
<path class="st0" d="M235.8,48.8H16.9c-6.6,0-12-5.4-12-12v-19c0-6.6,5.4-12,12-12h218.9c6.6,0,12,5.4,12,12v19
	C247.8,43.5,242.4,48.8,235.8,48.8z"/>
<g id="Layer_2">
</g>
<linearGradient id="SVGID_2_" gradientUnits="userSpaceOnUse" x1="-176.3805" y1="-342.6708" x2="-162.0777" y2="-342.6708" gradientTransform="matrix(0.9792 -0.203 -0.203 -0.9792 336.9022 -326.0469)">
	<stop  offset="0" style="stop-color:#A343FF"/>
	<stop  offset="1" style="stop-color:#4CABFD"/>
	<stop  offset="1" style="stop-color:#E93E3A"/>
</linearGradient>
<path class="st1" d="M246.6,49.7l-9,1.8c-1.2,0.2-2.2-0.6-2.7-1.8l-1.8-9c-0.2-1.2,0.6-2.2,1.8-2.7l9-1.8c1.2-0.2,2.2,0.6,2.7,1.8
	l1.8,9C248.7,48.5,247.8,49.5,246.6,49.7z"/>
<linearGradient id="SVGID_3_" gradientUnits="userSpaceOnUse" x1="-170.3099" y1="-325.2657" x2="-158.6629" y2="-325.2657" gradientTransform="matrix(0.7138 -0.7004 -0.7004 -0.7138 130.2954 -338.4803)">
	<stop  offset="0" style="stop-color:#A343FF"/>
	<stop  offset="1" style="stop-color:#4CABFD"/>
	<stop  offset="1" style="stop-color:#E93E3A"/>
</linearGradient>
<path class="st2" d="M247.2,10.3l-5.3,5.1c-0.7,0.7-1.8,0.6-2.6-0.1l-5.1-5.3c-0.7-0.7-0.6-1.8,0.1-2.6l5.3-5.1
	c0.7-0.7,1.8-0.6,2.6,0.1l5.1,5.3C248.1,8.6,248,9.6,247.2,10.3z"/>
<linearGradient id="SVGID_4_" gradientUnits="userSpaceOnUse" x1="-207.2654" y1="-342.5368" x2="-195.6184" y2="-342.5368" gradientTransform="matrix(-8.266273e-02 -0.9966 -0.9966 8.266273e-02 -128.2678 -146.3569)">
	<stop  offset="0" style="stop-color:#A343FF"/>
	<stop  offset="1" style="stop-color:#4CABFD"/>
	<stop  offset="1" style="stop-color:#E93E3A"/>
</linearGradient>
<path class="st3" d="M234.9,22l0.6,7.3c0,1-0.7,1.7-1.7,1.9l-7.3,0.6c-1,0-1.7-0.7-1.9-1.7l-0.6-7.3c0-1,0.7-1.7,1.7-1.9l7.3-0.6
	C234.1,20.2,234.9,21,234.9,22z"/>
<linearGradient id="SVGID_5_" gradientUnits="userSpaceOnUse" x1="-210.651" y1="-337.8102" x2="-199.004" y2="-337.8102" gradientTransform="matrix(0.7138 -0.7004 -0.7004 -0.7138 130.2954 -338.4803)">
	<stop  offset="0" style="stop-color:#A343FF"/>
	<stop  offset="1" style="stop-color:#4CABFD"/>
	<stop  offset="1" style="stop-color:#E93E3A"/>
</linearGradient>
<path class="st4" d="M227.2,47.5l-5.3,5.1c-0.7,0.7-1.8,0.6-2.6-0.1l-5.1-5.3c-0.7-0.7-0.6-1.8,0.1-2.6l5.3-5.1
	c0.7-0.7,1.8-0.6,2.6,0.1l5.1,5.3C228.1,45.8,228,46.8,227.2,47.5z"/>
<linearGradient id="SVGID_6_" gradientUnits="userSpaceOnUse" x1="-328.1796" y1="-170.3839" x2="-316.5326" y2="-170.3839" gradientTransform="matrix(0.7138 -0.7004 -0.7004 -0.7138 130.2954 -338.4803)">
	<stop  offset="0" style="stop-color:#A343FF"/>
	<stop  offset="1" style="stop-color:#4CABFD"/>
	<stop  offset="1" style="stop-color:#E93E3A"/>
</linearGradient>
<path class="st5" d="M26,10.3l-5.3,5.1c-0.7,0.7-1.7,0.6-2.5,0L13,10.1c-0.7-0.7-0.6-1.8,0.1-2.6l5.3-5.1c0.7-0.7,1.8-0.6,2.6,0.1
	l5.1,5.3C26.9,8.6,26.8,9.6,26,10.3z"/>
<linearGradient id="SVGID_7_" gradientUnits="userSpaceOnUse" x1="-354.0683" y1="-181.6928" x2="-342.4213" y2="-181.6928" gradientTransform="matrix(0.7138 -0.7004 -0.7004 -0.7138 130.2954 -338.4803)">
	<stop  offset="0" style="stop-color:#A343FF"/>
	<stop  offset="1" style="stop-color:#4CABFD"/>
	<stop  offset="1" style="stop-color:#E93E3A"/>
</linearGradient>
<path class="st6" d="M15.5,36.5l-5.3,5.1c-0.7,0.7-1.8,0.6-2.6-0.1l-5.1-5.3c-0.7-0.7-0.6-1.8,0.1-2.6l5.3-5.1
	c0.7-0.7,1.8-0.6,2.6,0.1l5.1,5.3C16.3,34.8,16.2,35.8,15.5,36.5z"/>
<linearGradient id="SVGID_8_" gradientUnits="userSpaceOnUse" x1="-350.3173" y1="-199.1107" x2="-335.839" y2="-199.1107" gradientTransform="matrix(0.7138 -0.7004 -0.7004 -0.7138 130.2954 -338.4803)">
	<stop  offset="0" style="stop-color:#A343FF"/>
	<stop  offset="1" style="stop-color:#4CABFD"/>
	<stop  offset="1" style="stop-color:#E93E3A"/>
</linearGradient>
<path class="st7" d="M33,45.7l-6.6,6.5c-0.9,0.8-2.2,0.7-3.3-0.1l-6.5-6.6c-0.8-0.9-0.7-2.2,0.1-3.3l6.6-6.5
	c0.9-0.8,2.2-0.7,3.3,0.1l6.5,6.6C34.1,43.5,34,44.8,33,45.7z"/>
</svg>
