<?xml version="1.0" encoding="utf-8"?>
<!-- Generator: Adobe Illustrator 21.0.1, SVG Export Plug-In . SVG Version: 6.00 Build 0)  -->
<svg version="1.1" id="Layer_1" xmlns="http://www.w3.org/2000/svg" xmlns:xlink="http://www.w3.org/1999/xlink" x="0px" y="0px"
	 viewBox="0 0 200 40" style="enable-background:new 0 0 200 40;" xml:space="preserve">
<style type="text/css">
	.st0{fill:#FFFFFF;}
</style>
<g>
	<path class="st0" d="M43.6,24.4l2.2-15.2h2.7l-2.9,18.6h-4.4L38.5,9.2h3L43.6,24.4z"/>
	<path class="st0" d="M49.7,13.6c0-1.5,0.4-2.7,1.1-3.5C51.6,9.4,52.7,9,54.1,9c1.4,0,2.5,0.4,3.3,1.2c0.8,0.8,1.1,2,1.1,3.5v9.7
		c0,1.5-0.4,2.7-1.1,3.5c-0.8,0.8-1.9,1.2-3.3,1.2c-1.4,0-2.5-0.4-3.3-1.2c-0.8-0.8-1.1-2-1.1-3.5V13.6z M52.6,23.5
		c0,0.7,0.1,1.1,0.4,1.4c0.3,0.3,0.6,0.4,1.1,0.4c0.5,0,0.8-0.1,1.1-0.4c0.3-0.3,0.4-0.7,0.4-1.4V13.5c0-0.7-0.1-1.1-0.4-1.4
		c-0.3-0.3-0.6-0.4-1.1-0.4c-0.5,0-0.8,0.1-1.1,0.4c-0.3,0.3-0.4,0.8-0.4,1.4V23.5z"/>
	<path class="st0" d="M63.2,9.2v14.4c0,0.7,0.1,1.1,0.4,1.4c0.3,0.3,0.6,0.4,1.1,0.4c0.5,0,0.8-0.1,1.1-0.4c0.3-0.3,0.4-0.7,0.4-1.4
		V9.2H69v14.2c0,1.5-0.4,2.7-1.1,3.5c-0.7,0.8-1.8,1.2-3.3,1.2c-1.4,0-2.5-0.4-3.3-1.2c-0.7-0.8-1.1-2-1.1-3.5V9.2H63.2z"/>
	<path class="st0" d="M79.5,20.9v2.5c0,1.5-0.4,2.7-1.1,3.5S76.6,28,75.2,28c-1.4,0-2.5-0.4-3.3-1.2c-0.7-0.8-1.1-2-1.1-3.5v-9.7
		c0-1.5,0.4-2.7,1.1-3.5C72.6,9.4,73.7,9,75.2,9c1.4,0,2.5,0.4,3.3,1.2s1.1,2,1.1,3.5v1.8h-2.8v-2c0-0.7-0.1-1.1-0.4-1.4
		c-0.3-0.3-0.6-0.4-1.1-0.4c-0.5,0-0.8,0.1-1.1,0.4c-0.3,0.3-0.4,0.8-0.4,1.4v10.1c0,0.7,0.1,1.1,0.4,1.4c0.3,0.3,0.6,0.4,1.1,0.4
		c0.5,0,0.8-0.1,1.1-0.4c0.3-0.3,0.4-0.7,0.4-1.4v-2.7H79.5z"/>
	<path class="st0" d="M84.2,27.8h-2.9V9.2h2.9v8h3.3v-8h3v18.6h-3v-8h-3.3V27.8z"/>
	<path class="st0" d="M95.6,17h4v2.7h-4v5.5h5.1v2.7h-8V9.2h8v2.7h-5.1V17z"/>
	<path class="st0" d="M108.6,27.8c0-0.1-0.1-0.2-0.1-0.3c0-0.1-0.1-0.2-0.1-0.4c0-0.2,0-0.4-0.1-0.6c0-0.2,0-0.6,0-0.9v-2.9
		c0-0.9-0.2-1.5-0.5-1.8c-0.3-0.4-0.8-0.5-1.5-0.5h-1v7.6h-2.9V9.2h4.4c1.5,0,2.6,0.4,3.3,1.1c0.7,0.7,1,1.8,1,3.2v1.5
		c0,1.9-0.6,3.2-1.9,3.8c0.7,0.3,1.3,0.8,1.5,1.5s0.4,1.5,0.4,2.5v2.9c0,0.5,0,0.9,0.1,1.2c0,0.3,0.1,0.7,0.3,1.1H108.6z
		 M105.4,11.8v5.7h1.1c0.5,0,1-0.1,1.3-0.4c0.3-0.3,0.5-0.8,0.5-1.5v-1.8c0-0.7-0.1-1.2-0.4-1.5c-0.2-0.3-0.6-0.5-1.1-0.5H105.4z"/>
	<path class="st0" d="M117.3,9.2h2.9v16h4.8v2.7h-7.7V9.2z"/>
	<path class="st0" d="M126.1,13.6c0-1.5,0.4-2.7,1.1-3.5c0.8-0.8,1.9-1.2,3.3-1.2s2.5,0.4,3.3,1.2c0.8,0.8,1.1,2,1.1,3.5v9.7
		c0,1.5-0.4,2.7-1.1,3.5c-0.8,0.8-1.9,1.2-3.3,1.2s-2.5-0.4-3.3-1.2c-0.8-0.8-1.1-2-1.1-3.5V13.6z M129.1,23.5
		c0,0.7,0.1,1.1,0.4,1.4c0.3,0.3,0.6,0.4,1.1,0.4c0.5,0,0.8-0.1,1.1-0.4c0.3-0.3,0.4-0.7,0.4-1.4V13.5c0-0.7-0.1-1.1-0.4-1.4
		c-0.3-0.3-0.6-0.4-1.1-0.4c-0.5,0-0.8,0.1-1.1,0.4c-0.3,0.3-0.4,0.8-0.4,1.4V23.5z"/>
	<path class="st0" d="M141.3,17.4h4.1v5.9c0,1.5-0.4,2.7-1.1,3.5c-0.7,0.8-1.8,1.2-3.3,1.2s-2.5-0.4-3.3-1.2c-0.7-0.8-1.1-2-1.1-3.5
		v-9.7c0-1.5,0.4-2.7,1.1-3.5c0.7-0.8,1.8-1.2,3.3-1.2s2.5,0.4,3.3,1.2c0.7,0.8,1.1,2,1.1,3.5v1.8h-2.8v-2c0-0.7-0.1-1.1-0.4-1.4
		c-0.3-0.3-0.6-0.4-1.1-0.4c-0.5,0-0.8,0.1-1.1,0.4c-0.3,0.3-0.4,0.8-0.4,1.4v10.1c0,0.7,0.1,1.1,0.4,1.4c0.3,0.3,0.6,0.4,1.1,0.4
		c0.5,0,0.8-0.1,1.1-0.4c0.3-0.3,0.4-0.7,0.4-1.4v-3.4h-1.3V17.4z"/>
	<path class="st0" d="M147.3,9.2h2.9v18.6h-2.9V9.2z"/>
	<path class="st0" d="M155,14.3v13.5h-2.6V9.2h3.7l3,11.2V9.2h2.6v18.6h-3L155,14.3z"/>
</g>
</svg>
